<svg width="448" height="96" viewBox="0 0 448 96" fill="none" xmlns="http://www.w3.org/2000/svg">
  <defs>
    <linearGradient id="shellBg" x1="224" y1="0" x2="224" y2="96" gradientUnits="userSpaceOnUse">
      <stop stop-color="#1D1814"/>
      <stop offset="1" stop-color="#0C0A08"/>
    </linearGradient>
    <linearGradient id="warmSheen" x1="0" y1="48" x2="448" y2="48" gradientUnits="userSpaceOnUse">
      <stop stop-color="#6B4B2B" stop-opacity="0.14"/>
      <stop offset="0.24" stop-color="#6B4B2B" stop-opacity="0.04"/>
      <stop offset="0.54" stop-color="#000000" stop-opacity="0"/>
      <stop offset="1" stop-color="#86603A" stop-opacity="0.04"/>
    </linearGradient>
    <linearGradient id="leftSpine" x1="1" y1="0" x2="1" y2="96" gradientUnits="userSpaceOnUse">
      <stop stop-color="#3A291C"/>
      <stop offset="0.24" stop-color="#5A402A"/>
      <stop offset="0.56" stop-color="#3D2C1F"/>
      <stop offset="0.82" stop-color="#4E3826"/>
      <stop offset="1" stop-color="#2A1E15"/>
    </linearGradient>
    <linearGradient id="topLine" x1="12" y1="0.5" x2="434" y2="0.5" gradientUnits="userSpaceOnUse">
      <stop stop-color="#000000" stop-opacity="0"/>
      <stop offset="0.2" stop-color="#785B3A" stop-opacity="0.62"/>
      <stop offset="0.5" stop-color="#C29B63" stop-opacity="0.94"/>
      <stop offset="0.8" stop-color="#785B3A" stop-opacity="0.62"/>
      <stop offset="1" stop-color="#000000" stop-opacity="0"/>
    </linearGradient>
    <linearGradient id="bottomLine" x1="16" y1="95.5" x2="432" y2="95.5" gradientUnits="userSpaceOnUse">
      <stop stop-color="#000000" stop-opacity="0"/>
      <stop offset="0.24" stop-color="#5E4930" stop-opacity="0.28"/>
      <stop offset="0.5" stop-color="#9E7B4E" stop-opacity="0.48"/>
      <stop offset="0.76" stop-color="#5E4930" stop-opacity="0.28"/>
      <stop offset="1" stop-color="#000000" stop-opacity="0"/>
    </linearGradient>
    <linearGradient id="rightSpine" x1="429" y1="10" x2="429" y2="86" gradientUnits="userSpaceOnUse">
      <stop stop-color="#000000" stop-opacity="0"/>
      <stop offset="0.22" stop-color="#5B4631"/>
      <stop offset="0.5" stop-color="#A07E52"/>
      <stop offset="0.78" stop-color="#5B4631"/>
      <stop offset="1" stop-color="#000000" stop-opacity="0"/>
    </linearGradient>
    <linearGradient id="portraitBg" x1="50" y1="9" x2="50" y2="87" gradientUnits="userSpaceOnUse">
      <stop stop-color="#0F0D0B"/>
      <stop offset="1" stop-color="#060505"/>
    </linearGradient>
    <linearGradient id="panelBg" x1="265" y1="10" x2="265" y2="86" gradientUnits="userSpaceOnUse">
      <stop stop-color="#1B1612" stop-opacity="0.82"/>
      <stop offset="1" stop-color="#0A0908" stop-opacity="0.9"/>
    </linearGradient>
    <linearGradient id="trackPrimary" x1="165" y1="0" x2="315" y2="0" gradientUnits="userSpaceOnUse">
      <stop stop-color="#0F0C09"/>
      <stop offset="1" stop-color="#070605"/>
    </linearGradient>
    <linearGradient id="trackSecondary" x1="165" y1="0" x2="287" y2="0" gradientUnits="userSpaceOnUse">
      <stop stop-color="#090909"/>
      <stop offset="1" stop-color="#171411"/>
    </linearGradient>
    <pattern id="weave" patternUnits="userSpaceOnUse" width="18" height="18">
      <path d="M0 0L18 18M18 0L0 18" stroke="#4A3B2A" stroke-opacity="0.22" stroke-width="0.5"/>
    </pattern>
    <filter id="shellShadow" x="-8" y="-8" width="464" height="112" color-interpolation-filters="sRGB">
      <feDropShadow dx="0" dy="4" stdDeviation="6" flood-color="#000000" flood-opacity="0.48"/>
    </filter>
  </defs>

  <g filter="url(#shellShadow)">
    <rect x="0.5" y="0.5" width="447" height="95" rx="2.5" fill="url(#shellBg)" stroke="#2A241E"/>
    <rect x="0" y="0" width="448" height="96" fill="url(#weave)" opacity="0.18"/>
    <rect x="0" y="0" width="448" height="96" fill="url(#warmSheen)"/>
    <rect x="0" y="0" width="2" height="96" fill="url(#leftSpine)"/>
    <rect x="12" y="0" width="422" height="1" fill="url(#topLine)"/>
    <rect x="16" y="95" width="416" height="1" fill="url(#bottomLine)" opacity="0.42"/>
    <rect x="428" y="10" width="2" height="76" fill="url(#rightSpine)" opacity="0.48"/>

    <rect x="14.5" y="9.5" width="71" height="77" fill="url(#portraitBg)" stroke="#43362A"/>
    <rect x="21.5" y="16.5" width="57" height="63" rx="1.5" fill="#11100D" stroke="#4C3D2E" stroke-opacity="0.72"/>
    <rect x="21.5" y="16.5" width="57" height="63" rx="1.5" fill="url(#warmSheen)" opacity="0.45"/>
    <path d="M14.5 17.5V9.5H22.5" stroke="#8A704D"/>
    <path d="M85.5 78.5V86.5H77.5" stroke="#8A704D"/>

    <rect x="98.5" y="10.5" width="333" height="75" fill="url(#panelBg)" stroke="#403428" stroke-opacity="0.78"/>
    <rect x="98.5" y="10.5" width="333" height="75" fill="url(#warmSheen)" opacity="0.2"/>

    <rect x="112" y="20" width="44" height="8" rx="1.5" fill="#EAD9B2" fill-opacity="0.14"/>
    <rect x="161" y="21" width="24" height="6" rx="1.5" fill="#C9AB71" fill-opacity="0.18"/>
    <rect x="370.5" y="17.5" width="42" height="14" rx="7" fill="#442C1C" fill-opacity="0.9" stroke="#916D41" stroke-opacity="0.9"/>
    <rect x="112" y="34" width="68" height="11" rx="1.5" fill="#F2E6CD" fill-opacity="0.16"/>

    <rect x="112" y="55" width="28" height="8" rx="1.5" fill="#C4B190" fill-opacity="0.18"/>
    <rect x="150.5" y="56.5" width="151" height="7" fill="url(#trackPrimary)" stroke="#352B1F" stroke-opacity="0.9"/>
    <rect x="150.5" y="56.5" width="1" height="7" fill="#C29B63" fill-opacity="0.24"/>
    <rect x="314" y="55" width="98" height="8" rx="1.5" fill="#D8C6A0" fill-opacity="0.14"/>

    <rect x="112" y="71" width="28" height="8" rx="1.5" fill="#AEA48C" fill-opacity="0.16"/>
    <rect x="150.5" y="72.5" width="123" height="6" fill="url(#trackSecondary)" stroke="#2B251D" stroke-opacity="0.88"/>
    <rect x="287" y="71" width="75" height="8" rx="1.5" fill="#B3A991" fill-opacity="0.14"/>
  </g>
</svg>
