<svg data-asset-anchor="bottom-center footprint center" style="width:384;height:384;overflow:visible;pointer-events:none" width="384" height="384" viewBox="-192 -230 384 384" fill="none" xmlns="http://www.w3.org/2000/svg" role="img" aria-label="Academy Base v1" data-asset-id="Academy_Base_v1" data-footprint-size="240"><defs><linearGradient id="academyRoof" x1="0%" y1="0%" x2="0%" y2="100%"><stop offset="0%" stop-color="#4d555a"/><stop offset="100%" stop-color="#1f2325"/></linearGradient><linearGradient id="academyPaper" x1="0%" y1="0%" x2="100%" y2="100%"><stop offset="0%" stop-color="#ebe5d6"/><stop offset="100%" stop-color="#c8c0ad"/></linearGradient><filter id="academyShadow" x="-25%" y="-25%" width="150%" height="150%"><feGaussianBlur in="SourceAlpha" stdDeviation="2.8"/><feOffset dx="2" dy="4" result="offsetblur"/><feComponentTransfer><feFuncA type="linear" slope="0.4"/></feComponentTransfer><feMerge><feMergeNode/><feMergeNode in="SourceGraphic"/></feMerge></filter></defs><g filter="url(#academyShadow)"><path d="M 0 -60 L 120 0 L 0 60 L -120 0 Z" fill="#161714" stroke="#090807" stroke-width="1.15"/><g><path d="M 0 -70 L -120 -10 L 0 50 L 120 -10 Z" fill="#49504a" stroke="rgba(0,0,0,0.16)" stroke-width="0.85" stroke-linejoin="round"/><path d="M 0 -60 L -120 0 L -120 -10 L 0 -70 Z" fill="#282d29" stroke="rgba(0,0,0,0.16)" stroke-width="0.85" stroke-linejoin="round"/><path d="M -120 0 L 0 60 L 0 50 L -120 -10 Z" fill="#363c37" stroke="rgba(0,0,0,0.16)" stroke-width="0.85" stroke-linejoin="round"/></g><g><path d="M 0 -68.4 L -100.80000000000001 -17.999999999999996 L 0 32.400000000000006 L 100.80000000000001 -17.999999999999996 Z" fill="#49504a" stroke="rgba(0,0,0,0.16)" stroke-width="0.85" stroke-linejoin="round"/><path d="M 0 -60.4 L -100.80000000000001 -9.999999999999996 L -100.80000000000001 -17.999999999999996 L 0 -68.4 Z" fill="#282d29" stroke="rgba(0,0,0,0.16)" stroke-width="0.85" stroke-linejoin="round"/><path d="M -100.80000000000001 -9.999999999999996 L 0 40.400000000000006 L 0 32.400000000000006 L -100.80000000000001 -17.999999999999996 Z" fill="#363c37" stroke="rgba(0,0,0,0.16)" stroke-width="0.85" stroke-linejoin="round"/></g><g><path d="M 1.200000000000001 -104.6 L -85.19999999999999 -61.4 L -1.200000000000001 -19.400000000000006 L 85.19999999999999 -62.6 Z" fill="#c8c0ad" stroke="rgba(0,0,0,0.16)" stroke-width="0.85" stroke-linejoin="round"/><path d="M 1.200000000000001 -60.599999999999994 L -85.19999999999999 -17.4 L -85.19999999999999 -61.4 L 1.200000000000001 -104.6 Z" fill="#8d8476" stroke="rgba(0,0,0,0.16)" stroke-width="0.85" stroke-linejoin="round"/><path d="M -85.19999999999999 -17.4 L -1.200000000000001 24.599999999999994 L -1.200000000000001 -19.400000000000006 L -85.19999999999999 -61.4 Z" fill="#a69d8e" stroke="rgba(0,0,0,0.16)" stroke-width="0.85" stroke-linejoin="round"/></g><g><path d="M -12.000000000000004 -112 L -16.8 -109.6 L 79.2 -61.6 L 84 -64 Z" fill="#503526" stroke="rgba(0,0,0,0.16)" stroke-width="0.85" stroke-linejoin="round"/><path d="M -12.000000000000004 -104 L -16.8 -101.6 L -16.8 -109.6 L -12.000000000000004 -112 Z" fill="#2b1d16" stroke="rgba(0,0,0,0.16)" stroke-width="0.85" stroke-linejoin="round"/><path d="M -16.8 -101.6 L 79.2 -53.6 L 79.2 -61.6 L -16.8 -109.6 Z" fill="#6f4b35" stroke="rgba(0,0,0,0.16)" stroke-width="0.85" stroke-linejoin="round"/></g><g><path d="M -79.2 -78.4 L -84.00000000000001 -76 L 11.999999999999996 -27.999999999999993 L 16.8 -30.4 Z" fill="#503526" stroke="rgba(0,0,0,0.16)" stroke-width="0.85" stroke-linejoin="round"/><path d="M -79.2 -70.4 L -84.00000000000001 -68 L -84.00000000000001 -76 L -79.2 -78.4 Z" fill="#2b1d16" stroke="rgba(0,0,0,0.16)" stroke-width="0.85" stroke-linejoin="round"/><path d="M -84.00000000000001 -68 L 11.999999999999996 -19.999999999999993 L 11.999999999999996 -27.999999999999993 L -84.00000000000001 -76 Z" fill="#6f4b35" stroke="rgba(0,0,0,0.16)" stroke-width="0.85" stroke-linejoin="round"/></g><path d="M 0 -120.4 L 100.80000000000001 -70 L 69.60000000000001 -102.8 L -2.3999999999999955 -138.8 Z" fill="url(#academyRoof)" stroke="rgba(0,0,0,0.16)" stroke-width="0.95" stroke-linejoin="round"/><path d="M -100.80000000000001 -70 L 0 -19.599999999999994 L 2.400000000000002 -69.19999999999999 L -69.60000000000001 -105.2 Z" fill="url(#academyRoof)" stroke="rgba(0,0,0,0.16)" stroke-width="0.95" stroke-linejoin="round"/><path d="M -2.3999999999999955 -138.8 L 69.60000000000001 -102.8 L 2.400000000000002 -69.19999999999999 L -69.60000000000001 -105.2 Z" fill="url(#academyRoof)" stroke="rgba(0,0,0,0.14)" stroke-width="0.95" stroke-linejoin="round"/><path d="M 0 -130.4 L 52.8 -104 L 0 -77.6 L -52.8 -104 Z" fill="#d7d0bf" stroke="rgba(0,0,0,0.12)" stroke-width="0.8" stroke-linejoin="round"/><g><path d="M 0 -53.2 L -16.8 -44.8 L -4.799999999999997 -38.8 L 12.000000000000004 -47.2 Z" fill="#5a5d58" stroke="rgba(0,0,0,0.16)" stroke-width="0.85" stroke-linejoin="round"/><path d="M 0 -39.2 L -16.8 -30.8 L -16.8 -44.8 L 0 -53.2 Z" fill="#333630" stroke="rgba(0,0,0,0.16)" stroke-width="0.85" stroke-linejoin="round"/><path d="M -16.8 -30.8 L -4.799999999999997 -24.799999999999997 L -4.799999999999997 -38.8 L -16.8 -44.8 Z" fill="#454943" stroke="rgba(0,0,0,0.16)" stroke-width="0.85" stroke-linejoin="round"/></g><g><path d="M -45.6 -30.4 L -62.400000000000006 -22 L -50.4 -15.999999999999998 L -33.599999999999994 -24.4 Z" fill="#5a5d58" stroke="rgba(0,0,0,0.16)" stroke-width="0.85" stroke-linejoin="round"/><path d="M -45.6 -16.4 L -62.400000000000006 -8 L -62.400000000000006 -22 L -45.6 -30.4 Z" fill="#333630" stroke="rgba(0,0,0,0.16)" stroke-width="0.85" stroke-linejoin="round"/><path d="M -62.400000000000006 -8 L -50.4 -1.9999999999999982 L -50.4 -15.999999999999998 L -62.400000000000006 -22 Z" fill="#454943" stroke="rgba(0,0,0,0.16)" stroke-width="0.85" stroke-linejoin="round"/></g><g><path d="M 50.400000000000006 -28 L 33.6 -19.599999999999998 L 45.6 -13.6 L 62.400000000000006 -22 Z" fill="#5a5d58" stroke="rgba(0,0,0,0.16)" stroke-width="0.85" stroke-linejoin="round"/><path d="M 50.400000000000006 -13.999999999999998 L 33.6 -5.599999999999998 L 33.6 -19.599999999999998 L 50.400000000000006 -28 Z" fill="#333630" stroke="rgba(0,0,0,0.16)" stroke-width="0.85" stroke-linejoin="round"/><path d="M 33.6 -5.599999999999998 L 45.6 0.40000000000000036 L 45.6 -13.6 L 33.6 -19.599999999999998 Z" fill="#454943" stroke="rgba(0,0,0,0.16)" stroke-width="0.85" stroke-linejoin="round"/></g><g><path d="M 4.800000000000004 -5.199999999999999 L -11.999999999999996 3.200000000000003 L 0 9.200000000000003 L 16.8 0.8000000000000007 Z" fill="#5a5d58" stroke="rgba(0,0,0,0.16)" stroke-width="0.85" stroke-linejoin="round"/><path d="M 4.800000000000004 8.8 L -11.999999999999996 17.200000000000003 L -11.999999999999996 3.200000000000003 L 4.800000000000004 -5.199999999999999 Z" fill="#333630" stroke="rgba(0,0,0,0.16)" stroke-width="0.85" stroke-linejoin="round"/><path d="M -11.999999999999996 17.200000000000003 L 0 23.200000000000003 L 0 9.200000000000003 L -11.999999999999996 3.200000000000003 Z" fill="#454943" stroke="rgba(0,0,0,0.16)" stroke-width="0.85" stroke-linejoin="round"/></g><g><path d="M 36 -93.6 L 26.4 -88.8 L 45.599999999999994 -79.2 L 55.199999999999996 -84 Z" fill="#a68a56" stroke="rgba(0,0,0,0.16)" stroke-width="0.85" stroke-linejoin="round"/><path d="M 36 -79.6 L 26.4 -74.8 L 26.4 -88.8 L 36 -93.6 Z" fill="#6d5935" stroke="rgba(0,0,0,0.16)" stroke-width="0.85" stroke-linejoin="round"/><path d="M 26.4 -74.8 L 45.599999999999994 -65.2 L 45.599999999999994 -79.2 L 26.4 -88.8 Z" fill="#8b7347" stroke="rgba(0,0,0,0.16)" stroke-width="0.85" stroke-linejoin="round"/></g><path d="M 22.8 -90.6 L 49.199999999999996 -77.4 L 35.99999999999999 -66.4 L 16.799999999999994 -76 Z" fill="#5c5144" stroke="rgba(0,0,0,0.14)" stroke-width="0.75" stroke-linejoin="round"/><path d="M 36 -84 L 25.200000000000003 -98.6" stroke="#8d7240" stroke-width="1.2"/><path d="M -2.3999999999999955 -36 L 36.00000000000001 -16.799999999999997 L 28.800000000000004 -13.2 L -9.599999999999994 -32.4 Z" fill="url(#academyPaper)" stroke="rgba(0,0,0,0.12)" stroke-width="0.8" stroke-linejoin="round"/><path d="M -28.799999999999994 -22.8 L 9.600000000000009 -3.6000000000000014 L 2.400000000000002 3.552713678800501e-15 L -36 -19.2 Z" fill="url(#academyPaper)" stroke="rgba(0,0,0,0.12)" stroke-width="0.8" stroke-linejoin="round"/><path d="M -3.600000000000003 -33 L 30 -16.2" stroke="#a19683" stroke-width="0.8"/><path d="M -30 -19.8 L 3.600000000000003 -3" stroke="#a19683" stroke-width="0.8"/><path d="M 9.599999999999994 -32.4 L -28.800000000000004 -13.2" stroke="#a19683" stroke-width="0.8"/><path d="M 28.799999999999994 -22.8 L -9.600000000000009 -3.6000000000000014" stroke="#a19683" stroke-width="0.8"/><path d="M -37.2 -33.4 L -26.400000000000002 -28 L -36.00000000000001 -23.2 L -46.800000000000004 -28.599999999999998 Z" fill="#5f675f" stroke="rgba(0,0,0,0.12)" stroke-width="0.7" stroke-linejoin="round"/><path d="M 36 3.200000000000001 L 46.8 8.600000000000001 L 37.199999999999996 13.400000000000002 L 26.4 8.000000000000004 Z" fill="#5f675f" stroke="rgba(0,0,0,0.12)" stroke-width="0.7" stroke-linejoin="round"/><g><path d="M -31.200000000000003 -68.4 L -64.80000000000001 -51.6 L -55.2 -46.8 L -21.599999999999998 -63.6 Z" fill="#503526" stroke="rgba(0,0,0,0.16)" stroke-width="0.85" stroke-linejoin="round"/><path d="M -31.200000000000003 -50.400000000000006 L -64.80000000000001 -33.6 L -64.80000000000001 -51.6 L -31.200000000000003 -68.4 Z" fill="#2b1d16" stroke="rgba(0,0,0,0.16)" stroke-width="0.85" stroke-linejoin="round"/><path d="M -64.80000000000001 -33.6 L -55.2 -28.799999999999997 L -55.2 -46.8 L -64.80000000000001 -51.6 Z" fill="#6f4b35" stroke="rgba(0,0,0,0.16)" stroke-width="0.85" stroke-linejoin="round"/></g><g><path d="M 55.199999999999996 -25.200000000000003 L 21.599999999999994 -8.400000000000002 L 31.200000000000003 -3.5999999999999943 L 64.80000000000001 -20.4 Z" fill="#503526" stroke="rgba(0,0,0,0.16)" stroke-width="0.85" stroke-linejoin="round"/><path d="M 55.199999999999996 -7.200000000000003 L 21.599999999999994 9.599999999999998 L 21.599999999999994 -8.400000000000002 L 55.199999999999996 -25.200000000000003 Z" fill="#2b1d16" stroke="rgba(0,0,0,0.16)" stroke-width="0.85" stroke-linejoin="round"/><path d="M 21.599999999999994 9.599999999999998 L 31.200000000000003 14.400000000000006 L 31.200000000000003 -3.5999999999999943 L 21.599999999999994 -8.400000000000002 Z" fill="#6f4b35" stroke="rgba(0,0,0,0.16)" stroke-width="0.85" stroke-linejoin="round"/></g><path d="M -26.400000000000002 -68.4 L -19.200000000000003 -64.8 L -57.6 -45.599999999999994 L -64.80000000000001 -49.2 Z" fill="#6f4b35" stroke="rgba(0,0,0,0.12)" stroke-width="0.7" stroke-linejoin="round"/><path d="M 57.599999999999994 -26.400000000000002 L 64.80000000000001 -22.799999999999997 L 26.4 -3.5999999999999943 L 19.19999999999999 -7.200000000000003 Z" fill="#6f4b35" stroke="rgba(0,0,0,0.12)" stroke-width="0.7" stroke-linejoin="round"/></g></svg>
