<svg data-asset-anchor="bottom-center footprint center" style="width:384;height:384;overflow:visible;pointer-events:none" width="384" height="384" viewBox="-192 -240 384 384" fill="none" xmlns="http://www.w3.org/2000/svg" role="img" aria-label="Armory Base v1" data-asset-id="Armory_Base_v1" data-footprint-size="240"><defs><filter id="armoryShadow-world_cell_1" x="-20%" y="-20%" width="140%" height="140%"><feGaussianBlur in="SourceAlpha" stdDeviation="2.8"/><feOffset dx="2" dy="4" result="offsetblur"/><feComponentTransfer><feFuncA type="linear" slope="0.5"/></feComponentTransfer><feMerge><feMergeNode/><feMergeNode in="SourceGraphic"/></feMerge></filter></defs><g filter="url(#armoryShadow-world_cell_1)"><path d="M -3.5999999999999996 -55.8 L 121.19999999999999 6.6 L 7.199999999999999 68.39999999999999 L -118.8 11.4 Z" fill="rgba(0,0,0,0.5)" stroke="none" stroke-width="0.5" stroke-linejoin="round"/><g><path d="M -1.2 -71.4 L -121.19999999999999 -11.4 L -1.2 48.599999999999994 L 118.8 -11.4 Z" fill="#404642" stroke="rgba(0,0,0,0.2)" stroke-width="0.5" stroke-linejoin="round"/><path d="M -1.2 -59.4 L -121.19999999999999 0.6 L -121.19999999999999 -11.4 L -1.2 -71.4 Z" fill="#1d211f" stroke="rgba(0,0,0,0.2)" stroke-width="0.5" stroke-linejoin="round"/><path d="M -121.19999999999999 0.6 L -1.2 60.599999999999994 L -1.2 48.599999999999994 L -121.19999999999999 -11.4 Z" fill="#2a302d" stroke="rgba(0,0,0,0.2)" stroke-width="0.5" stroke-linejoin="round"/></g><g><path d="M -1.2 -72.19999999999999 L -106.8 -19.4 L -1.2 33.4 L 104.39999999999999 -19.4 Z" fill="#4f4c46" stroke="rgba(0,0,0,0.2)" stroke-width="0.5" stroke-linejoin="round"/><path d="M -1.2 -64.19999999999999 L -106.8 -11.4 L -106.8 -19.4 L -1.2 -72.19999999999999 Z" fill="#26231d" stroke="rgba(0,0,0,0.2)" stroke-width="0.5" stroke-linejoin="round"/><path d="M -106.8 -11.4 L -1.2 41.4 L -1.2 33.4 L -106.8 -19.4 Z" fill="#36332c" stroke="rgba(0,0,0,0.2)" stroke-width="0.5" stroke-linejoin="round"/></g><g><path d="M -73.2 10.2 L -78 12.599999999999998 L -49.199999999999996 27 L -44.4 24.6 Z" fill="#4f4c46" stroke="rgba(0,0,0,0.2)" stroke-width="0.5" stroke-linejoin="round"/><path d="M -73.2 22.2 L -78 24.599999999999998 L -78 12.599999999999998 L -73.2 10.2 Z" fill="#26231d" stroke="rgba(0,0,0,0.2)" stroke-width="0.5" stroke-linejoin="round"/><path d="M -78 24.599999999999998 L -49.199999999999996 39 L -49.199999999999996 27 L -78 12.599999999999998 Z" fill="#36332c" stroke="rgba(0,0,0,0.2)" stroke-width="0.5" stroke-linejoin="round"/></g><g><path d="M -73.2 19 L -76.8 20.799999999999997 L -57.599999999999994 30.4 L -54 28.6 Z" fill="#4f4c46" stroke="rgba(0,0,0,0.2)" stroke-width="0.5" stroke-linejoin="round"/><path d="M -73.2 27 L -76.8 28.799999999999997 L -76.8 20.799999999999997 L -73.2 19 Z" fill="#26231d" stroke="rgba(0,0,0,0.2)" stroke-width="0.5" stroke-linejoin="round"/><path d="M -76.8 28.799999999999997 L -57.599999999999994 38.4 L -57.599999999999994 30.4 L -76.8 20.799999999999997 Z" fill="#36332c" stroke="rgba(0,0,0,0.2)" stroke-width="0.5" stroke-linejoin="round"/></g><g><path d="M -7.199999999999999 -104.8 L -75.6 -70.6 L 1.2 -32.2 L 69.6 -66.4 Z" fill="#2c1711" stroke="rgba(0,0,0,0.2)" stroke-width="0.5" stroke-linejoin="round"/><path d="M -7.199999999999999 -54.8 L -75.6 -20.6 L -75.6 -70.6 L -7.199999999999999 -104.8 Z" fill="#4b160f" stroke="rgba(0,0,0,0.2)" stroke-width="0.5" stroke-linejoin="round"/><path d="M -75.6 -20.6 L 1.2 17.799999999999997 L 1.2 -32.2 L -75.6 -70.6 Z" fill="#6b2016" stroke="rgba(0,0,0,0.2)" stroke-width="0.5" stroke-linejoin="round"/></g><g><path d="M -7.199999999999999 -125.6 L -60 -99.2 L 2.4 -68 L 55.199999999999996 -94.4 Z" fill="#4f4c46" stroke="rgba(0,0,0,0.2)" stroke-width="0.5" stroke-linejoin="round"/><path d="M -7.199999999999999 -97.6 L -60 -71.2 L -60 -99.2 L -7.199999999999999 -125.6 Z" fill="#26231d" stroke="rgba(0,0,0,0.2)" stroke-width="0.5" stroke-linejoin="round"/><path d="M -60 -71.2 L 2.4 -40 L 2.4 -68 L -60 -99.2 Z" fill="#36332c" stroke="rgba(0,0,0,0.2)" stroke-width="0.5" stroke-linejoin="round"/></g><g><path d="M -7.199999999999999 -133.6 L -45.6 -114.4 L 4.8 -89.2 L 43.199999999999996 -108.4 Z" fill="#2c1711" stroke="rgba(0,0,0,0.2)" stroke-width="0.5" stroke-linejoin="round"/><path d="M -7.199999999999999 -119.6 L -45.6 -100.4 L -45.6 -114.4 L -7.199999999999999 -133.6 Z" fill="#4b160f" stroke="rgba(0,0,0,0.2)" stroke-width="0.5" stroke-linejoin="round"/><path d="M -45.6 -100.4 L 4.8 -75.2 L 4.8 -89.2 L -45.6 -114.4 Z" fill="#6b2016" stroke="rgba(0,0,0,0.2)" stroke-width="0.5" stroke-linejoin="round"/></g><g><path d="M -45.6 -40 L -48.6 -38.5 L -27 -27.7 L -24 -29.2 Z" fill="#101010" stroke="rgba(0,0,0,0.2)" stroke-width="0.5" stroke-linejoin="round"/><path d="M -45.6 -8 L -48.6 -6.5 L -48.6 -38.5 L -45.6 -40 Z" fill="#1d120d" stroke="rgba(0,0,0,0.2)" stroke-width="0.5" stroke-linejoin="round"/><path d="M -48.6 -6.5 L -27 4.300000000000001 L -27 -27.7 L -48.6 -38.5 Z" fill="#1d120d" stroke="rgba(0,0,0,0.2)" stroke-width="0.5" stroke-linejoin="round"/></g><path d="M -43.199999999999996 -19.6 L -40.8 -22.4 L -96 -51 L -31.2 -17.6 L -28.799999999999997 -12.400000000000002 Z" fill="#c69a54" stroke="none" stroke-width="0.5" stroke-linejoin="round"/><g><path d="M -2.4 -168.4 L -115.19999999999999 -112 L 36 -188 Z" fill="#1b1c1d" stroke="rgba(0,0,0,0.2)" stroke-width="0.5" stroke-linejoin="round"/><path d="M -115.19999999999999 -112 L 0 -54.400000000000006 L 84 -164 L 36 -188 Z" fill="#2a2c2d" stroke="rgba(0,0,0,0.2)" stroke-width="0.5" stroke-linejoin="round"/></g><path d="M 34.8 -188.6 L 85.2 -163.4 L 24 -137.8 L -26.4 -163 Z" fill="#b48a48" stroke="rgba(0,0,0,0.2)" stroke-width="0.5" stroke-linejoin="round"/><path d="M -2.4 -168.4 L -115.19999999999999 -112 L -110.39999999999999 -113 L -1.2 -167.6 Z" fill="#79613a" stroke="rgba(0,0,0,0.2)" stroke-width="0.5" stroke-linejoin="round"/><path d="M -115.19999999999999 -112 L 0 -54.400000000000006 L 0 -57.800000000000004 L -110.39999999999999 -113 Z" fill="#8b6b3d" stroke="rgba(0,0,0,0.2)" stroke-width="0.5" stroke-linejoin="round"/><g><path d="M 33.6 -12.400000000000002 L 0 4.399999999999999 L 14.399999999999999 11.600000000000001 L 48 -5.200000000000003 Z" fill="#2c1711" stroke="rgba(0,0,0,0.2)" stroke-width="0.5" stroke-linejoin="round"/><path d="M 33.6 1.5999999999999979 L 0 18.4 L 0 4.399999999999999 L 33.6 -12.400000000000002 Z" fill="#4b160f" stroke="rgba(0,0,0,0.2)" stroke-width="0.5" stroke-linejoin="round"/><path d="M 0 18.4 L 14.399999999999999 25.6 L 14.399999999999999 11.600000000000001 L 0 4.399999999999999 Z" fill="#6b2016" stroke="rgba(0,0,0,0.2)" stroke-width="0.5" stroke-linejoin="round"/></g><g><path d="M 30 -24.2 L 6 -12.200000000000003 L 15.6 -7.399999999999999 L 39.6 -19.400000000000002 Z" fill="#d1a55f" stroke="rgba(0,0,0,0.2)" stroke-width="0.5" stroke-linejoin="round"/><path d="M 30 -8.2 L 6 3.799999999999997 L 6 -12.200000000000003 L 30 -24.2 Z" fill="#8b6730" stroke="rgba(0,0,0,0.2)" stroke-width="0.5" stroke-linejoin="round"/><path d="M 6 3.799999999999997 L 15.6 8.600000000000001 L 15.6 -7.399999999999999 L 6 -12.200000000000003 Z" fill="#b48a48" stroke="rgba(0,0,0,0.2)" stroke-width="0.5" stroke-linejoin="round"/></g><path d="M 62.4 -45.599999999999994 L 63.60000000000001 -44.99999999999999 L 63.60000000000001 -85 L 62.4 -85.6 Z" fill="#b2ad9a" stroke="#726f5d" stroke-width="0.5" stroke-linejoin="round"/><path d="M 69.6 -42 L 70.8 -41.4 L 70.8 -81.4 L 69.6 -82 Z" fill="#b2ad9a" stroke="#726f5d" stroke-width="0.5" stroke-linejoin="round"/><path d="M 76.8 -38.4 L 78 -37.8 L 78 -77.8 L 76.8 -78.39999999999999 Z" fill="#b2ad9a" stroke="#726f5d" stroke-width="0.5" stroke-linejoin="round"/><path d="M 3.599999999999987 -29 L 15.6 -39.8 L 18.000000000000004 -21.799999999999994 L 1.2 -8.600000000000001 Z" fill="#401712" stroke="#8f6d36" stroke-width="1" stroke-linejoin="round"/><g><path d="M -56.4 -58.2 L -82.8 -45 L -67.2 -37.2 L -40.8 -50.4 Z" fill="#404642" stroke="rgba(0,0,0,0.2)" stroke-width="0.5" stroke-linejoin="round"/><path d="M -56.4 -42.2 L -82.8 -29 L -82.8 -45 L -56.4 -58.2 Z" fill="#1d211f" stroke="rgba(0,0,0,0.2)" stroke-width="0.5" stroke-linejoin="round"/><path d="M -82.8 -29 L -67.2 -21.2 L -67.2 -37.2 L -82.8 -45 Z" fill="#2a302d" stroke="rgba(0,0,0,0.2)" stroke-width="0.5" stroke-linejoin="round"/></g><g><path d="M -58.8 -68.6 L -78 -59 L -67.2 -53.6 L -48 -63.2 Z" fill="#2c1711" stroke="rgba(0,0,0,0.2)" stroke-width="0.5" stroke-linejoin="round"/><path d="M -58.8 -54.599999999999994 L -78 -45 L -78 -59 L -58.8 -68.6 Z" fill="#4b160f" stroke="rgba(0,0,0,0.2)" stroke-width="0.5" stroke-linejoin="round"/><path d="M -78 -45 L -67.2 -39.6 L -67.2 -53.6 L -78 -59 Z" fill="#6b2016" stroke="rgba(0,0,0,0.2)" stroke-width="0.5" stroke-linejoin="round"/></g><path d="M -60 -69.2 L -46.8 -62.6 L -48 -64 L -61.199999999999996 -70.6 Z" fill="#d1a55f" stroke="rgba(0,0,0,0.2)" stroke-width="0.5" stroke-linejoin="round"/><path d="M -56.4 -48.6 L -10.799999999999999 -25.8 L -13.2 -28.6 L -58.8 -51.4 Z" fill="#5e4c2a" stroke="rgba(0,0,0,0.2)" stroke-width="0.5" stroke-linejoin="round"/><path d="M -37.199999999999996 -56.2 L -27.599999999999998 -51.400000000000006 L -31.2 -57.6 L -40.8 -62.4 Z" fill="#bc9451" stroke="rgba(0,0,0,0.2)" stroke-width="0.5" stroke-linejoin="round"/></g></svg>
