<svg data-asset-anchor="bottom-center footprint center" style="width:384;height:384;overflow:visible;pointer-events:none" width="384" height="384" viewBox="-192 -210 384 384" fill="none" xmlns="http://www.w3.org/2000/svg" role="img" aria-label="Barracks Base v1" data-asset-id="Barracks_Base_v1" data-footprint-size="240"><defs><linearGradient id="goldGradient" x1="0%" y1="0%" x2="0%" y2="100%"><stop offset="0%" stop-color="#D4AF37"/><stop offset="50%" stop-color="#B7791F"/><stop offset="100%" stop-color="#713F12"/></linearGradient><linearGradient id="wallGradient" x1="0%" y1="0%" x2="100%" y2="100%"><stop offset="0%" stop-color="#8B2B2B"/><stop offset="100%" stop-color="#5D1A1A"/></linearGradient><filter id="shadow" x="-20%" y="-20%" width="140%" height="140%"><feGaussianBlur in="SourceAlpha" stdDeviation="3"/><feOffset dx="2" dy="4" result="offsetblur"/><feComponentTransfer><feFuncA type="linear" slope="0.5"/></feComponentTransfer><feMerge><feMergeNode/><feMergeNode in="SourceGraphic"/></feMerge></filter></defs><g><path d="M 0 -60 L 120 0 L 0 60 L -120 0 Z" fill="#1a201d" stroke="#090807" stroke-width="1.2" opacity="0.98"/><path d="M -120 0 L -120 -10 L 0 50 L 0 60 Z" fill="#121614" stroke="#070605" stroke-width="0.8"/><path d="M 120 0 L 120 -10 L 0 50 L 0 60 Z" fill="#0f1211" stroke="#070605" stroke-width="0.8"/><path d="M 0 -70 L 120 -10 L 0 50 L -120 -10 Z" fill="#2e332b" stroke="#6f5b2e" stroke-width="1.1"/><path d="M 0 -63.8 L 105.6 -11.000000000000004 L 0 41.8 L -105.6 -11.000000000000004 Z" fill="#3c3b2e" opacity="0.42"/><path d="M 0 -69.6 L 115.19999999999999 -12 L 0 45.599999999999994 L -115.19999999999999 -12 Z" fill="none" stroke="rgba(199,166,90,0.45)" stroke-width="0.9"/><circle cx="-50.4" cy="-10.800000000000002" r="15" fill="#2a2a20" opacity="0.45"/><circle cx="12.000000000000004" cy="-15.6" r="10" fill="#211f18" opacity="0.36"/><g filter="url(#shadow)"><path d="M 0 -53.199999999999996 L 0 -50.8 L 0 -168.8 L 0 -171.2 Z" fill="#2d2b22"/><path d="M 0 -170 L 0 -126 L 10.799999999999997 -117.8 Z" fill="#812323" stroke="#4d1612" stroke-width="1"/></g><path d="M 72 -19.6 L 93.60000000000001 -8.799999999999999 L 93.60000000000001 -26.799999999999997 L 72 -37.6 Z" fill="#3d1d09"/><path d="M 64.80000000000001 -16 L 86.39999999999999 -5.199999999999999 L 86.39999999999999 -23.2 L 64.80000000000001 -34 Z" fill="#3d1d09"/><path d="M 82.80000000000001 -27.199999999999996 L 75.60000000000001 -23.599999999999998 L 75.60000000000001 -25.599999999999998 L 82.80000000000001 -29.199999999999996 Z" fill="#6b3a11"/><path d="M 72 -17.2 L 70.8 -16.6 L 70.8 -49.6 L 72 -50.2 Z" fill="#b8b49e" stroke="#6f6a55" stroke-width="0.5"/><path d="M 79.2 -13.599999999999996 L 78 -12.999999999999996 L 78 -45.99999999999999 L 79.2 -46.599999999999994 Z" fill="#b8b49e" stroke="#6f6a55" stroke-width="0.5"/><path d="M 86.39999999999999 -10 L 85.19999999999999 -9.399999999999999 L 85.19999999999999 -42.4 L 86.39999999999999 -43 Z" fill="#b8b49e" stroke="#6f6a55" stroke-width="0.5"/><g filter="url(#shadow)"><path d="M 0 -36.400000000000006 L 4.800000000000004 -34 L 4.800000000000004 -76 L 0 -78.4 Z" fill="#6b211d"/><path d="M 47.99999999999999 -12.400000000000006 L 52.8 -10.000000000000004 L 52.8 -52 L 47.99999999999999 -54.400000000000006 Z" fill="#6b211d"/><path d="M -47.99999999999999 -12.400000000000006 L -43.19999999999999 -10.000000000000004 L -43.19999999999999 -52 L -47.99999999999999 -54.400000000000006 Z" fill="#6b211d"/><path d="M 0 11.599999999999994 L 4.800000000000004 13.999999999999993 L 4.800000000000004 -28.000000000000007 L 0 -30.400000000000006 Z" fill="#6b211d"/><path d="M 0 -34 L 47.99999999999999 -10.000000000000004 L 47.99999999999999 -52 L 0 -76 Z" fill="url(#wallGradient)"/><path d="M 47.99999999999999 -10.000000000000004 L 0 13.999999999999993 L 0 -28.000000000000007 L 47.99999999999999 -52 Z" fill="#4f1613"/><path d="M 0 -83.2 L 62.400000000000006 -52 L 0 -20.799999999999997 L -62.400000000000006 -52 Z" fill="#25251f" stroke="#12100b"/><path d="M 0 -83.2 L 62.400000000000006 -52 L 0 -96 L -31.200000000000003 -87.6 Z" fill="url(#goldGradient)" stroke="#6d3b0e" stroke-width="0.8"/><path d="M 62.400000000000006 -52 L 0 -20.799999999999997 L 0 -96 L 31.200000000000003 -67.6 Z" fill="#76450f" stroke="#33200a"/><path d="M -62.400000000000006 -52 L 0 -20.799999999999997 L 0 -96 L -31.200000000000003 -87.6 Z" fill="#8b5614" stroke="#33200a"/><path d="M -31.200000000000003 -87.6 L 31.200000000000003 -80.4 L 31.200000000000003 -83.4 L -31.200000000000003 -90.6 Z" fill="#ad7a24"/><circle cx="-31.200000000000003" cy="-90.6" r="3" fill="#c99a36"/><circle cx="31.200000000000003" cy="-83.4" r="3" fill="#c99a36"/></g></g></svg>
