<svg data-asset-anchor="center" width="384" height="384" viewBox="0 0 384 384" fill="none" xmlns="http://www.w3.org/2000/svg" role="img" aria-label="City Wall Ring Profile v1" data-asset-id="CityWallRing_Profile_v1" data-footprint-size="240" data-anchor="center">
  <defs>
    <linearGradient id="wallTop" x1="192" y1="42" x2="192" y2="260" gradientUnits="userSpaceOnUse">
      <stop offset="0" stop-color="#c6b775"/>
      <stop offset="0.42" stop-color="#8f7b43"/>
      <stop offset="1" stop-color="#54492d"/>
    </linearGradient>
    <linearGradient id="wallInner" x1="192" y1="68" x2="192" y2="236" gradientUnits="userSpaceOnUse">
      <stop offset="0" stop-color="#16130d"/>
      <stop offset="1" stop-color="#0a0907"/>
    </linearGradient>
    <filter id="ringShadow" x="-20%" y="-20%" width="140%" height="150%" color-interpolation-filters="sRGB">
      <feDropShadow dx="0" dy="14" stdDeviation="8" flood-color="#000000" flood-opacity="0.55"/>
    </filter>
  </defs>
  <path d="M192 44L354 138L192 232L30 138Z" fill="#070604" fill-opacity="0.42"/>
  <path d="M192 52L344 140L192 228L40 140Z M192 72L314 140L192 208L70 140Z" fill="url(#wallTop)" fill-rule="evenodd" filter="url(#ringShadow)"/>
  <path d="M192 72L314 140L192 208L70 140Z" fill="url(#wallInner)" fill-opacity="0.82"/>
  <path d="M192 52L344 140L192 228L40 140Z" stroke="#d3bd71" stroke-width="4" stroke-linejoin="round"/>
  <path d="M192 72L314 140L192 208L70 140Z" stroke="#4b3c22" stroke-width="3" stroke-linejoin="round"/>
  <path d="M192 58L334 140L192 222L50 140Z" stroke="#7c6b3e" stroke-width="2" stroke-linejoin="round" stroke-dasharray="18 10" stroke-opacity="0.65"/>
  <path d="M70 140L192 208L314 140" stroke="#201911" stroke-width="5" stroke-linecap="round" stroke-opacity="0.42"/>
  <path d="M50 140L192 222L334 140" stroke="#f0d88a" stroke-width="1.2" stroke-linecap="round" stroke-opacity="0.42"/>
</svg>
