<svg data-asset-anchor="bottom-center footprint center" style="width:384;height:384;overflow:visible;pointer-events:none" width="384" height="384" viewBox="-192 -240 384 384" fill="none" xmlns="http://www.w3.org/2000/svg" role="img" aria-label="City Wall Segment Base v1" data-asset-id="CityWallSegment_Base_v1" data-footprint-size="240" data-anchor="bottom-center footprint center"><defs><filter id="cityWallSegmentShadow" x="-30%" y="-30%" width="160%" height="160%"><feGaussianBlur in="SourceAlpha" stdDeviation="2.4"/><feOffset dx="2" dy="5" result="offsetblur"/><feComponentTransfer><feFuncA type="linear" slope="0.42"/></feComponentTransfer><feMerge><feMergeNode/><feMergeNode in="SourceGraphic"/></feMerge></filter></defs><g filter="url(#cityWallSegmentShadow)"><path d="M 0 -60 L 120 0 L 0 60 L -120 0 Z" fill="#10100f" stroke="#050403" stroke-width="1.1"/><g><path d="M -27.600000000000005 -52.199999999999996 L -80.39999999999999 -25.800000000000004 L 27.599999999999998 28.199999999999996 L 80.39999999999999 1.799999999999999 Z" fill="#c4bbb0" stroke="rgba(0,0,0,0.16)" stroke-width="0.85" stroke-linejoin="round"/><path d="M -27.600000000000005 -40.199999999999996 L -80.39999999999999 -13.800000000000002 L -80.39999999999999 -25.800000000000004 L -27.600000000000005 -52.199999999999996 Z" fill="#8d8579" stroke="rgba(0,0,0,0.16)" stroke-width="0.85" stroke-linejoin="round"/><path d="M -80.39999999999999 -13.800000000000002 L 27.599999999999998 40.199999999999996 L 27.599999999999998 28.199999999999996 L -80.39999999999999 -25.800000000000004 Z" fill="#a59b8d" stroke="rgba(0,0,0,0.16)" stroke-width="0.85" stroke-linejoin="round"/></g><g><path d="M -26.4 -55.2 L -74.39999999999999 -31.200000000000003 L 26.40000000000001 19.200000000000003 L 74.4 -4.799999999999999 Z" fill="#c4bbb0" stroke="rgba(0,0,0,0.16)" stroke-width="0.85" stroke-linejoin="round"/><path d="M -26.4 -49.2 L -74.39999999999999 -25.200000000000003 L -74.39999999999999 -31.200000000000003 L -26.4 -55.2 Z" fill="#8d8579" stroke="rgba(0,0,0,0.16)" stroke-width="0.85" stroke-linejoin="round"/><path d="M -74.39999999999999 -25.200000000000003 L 26.40000000000001 25.200000000000003 L 26.40000000000001 19.200000000000003 L -74.39999999999999 -31.200000000000003 Z" fill="#a59b8d" stroke="rgba(0,0,0,0.16)" stroke-width="0.85" stroke-linejoin="round"/></g><g><path d="M -19.199999999999996 -84.8 L -81.6 -53.599999999999994 L -74.4 -50 L -11.999999999999996 -81.2 Z" fill="#c4bbb0" stroke="rgba(0,0,0,0.16)" stroke-width="0.85" stroke-linejoin="round"/><path d="M -19.199999999999996 -52.8 L -81.6 -21.599999999999998 L -81.6 -53.599999999999994 L -19.199999999999996 -84.8 Z" fill="#8d8579" stroke="rgba(0,0,0,0.16)" stroke-width="0.85" stroke-linejoin="round"/><path d="M -81.6 -21.599999999999998 L -74.4 -18 L -74.4 -50 L -81.6 -53.599999999999994 Z" fill="#a59b8d" stroke="rgba(0,0,0,0.16)" stroke-width="0.85" stroke-linejoin="round"/></g><g><path d="M 74.4 -38 L 11.999999999999996 -6.799999999999997 L 19.200000000000003 -3.1999999999999957 L 81.60000000000001 -34.4 Z" fill="#c4bbb0" stroke="rgba(0,0,0,0.16)" stroke-width="0.85" stroke-linejoin="round"/><path d="M 74.4 -6.000000000000002 L 11.999999999999996 25.200000000000003 L 11.999999999999996 -6.799999999999997 L 74.4 -38 Z" fill="#8d8579" stroke="rgba(0,0,0,0.16)" stroke-width="0.85" stroke-linejoin="round"/><path d="M 11.999999999999996 25.200000000000003 L 19.200000000000003 28.800000000000004 L 19.200000000000003 -3.1999999999999957 L 11.999999999999996 -6.799999999999997 Z" fill="#a59b8d" stroke="rgba(0,0,0,0.16)" stroke-width="0.85" stroke-linejoin="round"/></g><g><path d="M -24 -75.2 L -62.400000000000006 -56 L 23.999999999999993 -12.799999999999997 L 62.400000000000006 -32 Z" fill="#c4bbb0" stroke="rgba(0,0,0,0.16)" stroke-width="0.85" stroke-linejoin="round"/><path d="M -24 -59.2 L -62.400000000000006 -40 L -62.400000000000006 -56 L -24 -75.2 Z" fill="#8d8579" stroke="rgba(0,0,0,0.16)" stroke-width="0.85" stroke-linejoin="round"/><path d="M -62.400000000000006 -40 L 23.999999999999993 3.200000000000003 L 23.999999999999993 -12.799999999999997 L -62.400000000000006 -56 Z" fill="#a59b8d" stroke="rgba(0,0,0,0.16)" stroke-width="0.85" stroke-linejoin="round"/></g><g><path d="M -19.199999999999996 -85.2 L -26.4 -81.6 L 55.199999999999996 -40.8 L 62.400000000000006 -44.400000000000006 Z" fill="#6a6460" stroke="rgba(0,0,0,0.16)" stroke-width="0.85" stroke-linejoin="round"/><path d="M -19.199999999999996 -75.2 L -26.4 -71.6 L -26.4 -81.6 L -19.199999999999996 -85.2 Z" fill="#3a3633" stroke="rgba(0,0,0,0.16)" stroke-width="0.85" stroke-linejoin="round"/><path d="M -26.4 -71.6 L 55.199999999999996 -30.8 L 55.199999999999996 -40.8 L -26.4 -81.6 Z" fill="#4b4642" stroke="rgba(0,0,0,0.16)" stroke-width="0.85" stroke-linejoin="round"/></g><g><path d="M -55.199999999999996 -67.2 L -62.400000000000006 -63.599999999999994 L 19.19999999999999 -22.799999999999997 L 26.4 -26.400000000000002 Z" fill="#6a6460" stroke="rgba(0,0,0,0.16)" stroke-width="0.85" stroke-linejoin="round"/><path d="M -55.199999999999996 -57.2 L -62.400000000000006 -53.599999999999994 L -62.400000000000006 -63.599999999999994 L -55.199999999999996 -67.2 Z" fill="#3a3633" stroke="rgba(0,0,0,0.16)" stroke-width="0.85" stroke-linejoin="round"/><path d="M -62.400000000000006 -53.599999999999994 L 19.19999999999999 -12.799999999999997 L 19.19999999999999 -22.799999999999997 L -62.400000000000006 -63.599999999999994 Z" fill="#4b4642" stroke="rgba(0,0,0,0.16)" stroke-width="0.85" stroke-linejoin="round"/></g><g><path d="M -19.200000000000003 -94 L -48 -79.6 L 19.200000000000003 -46 L 48 -60.4 Z" fill="#c4bbb0" stroke="rgba(0,0,0,0.16)" stroke-width="0.85" stroke-linejoin="round"/><path d="M -19.200000000000003 -78 L -48 -63.6 L -48 -79.6 L -19.200000000000003 -94 Z" fill="#8d8579" stroke="rgba(0,0,0,0.16)" stroke-width="0.85" stroke-linejoin="round"/><path d="M -48 -63.6 L 19.200000000000003 -30 L 19.200000000000003 -46 L -48 -79.6 Z" fill="#a59b8d" stroke="rgba(0,0,0,0.16)" stroke-width="0.85" stroke-linejoin="round"/></g><path d="M -19.200000000000003 -94 L -4.799999999999997 -92.8 L 9.600000000000001 -79.6 L 23.999999999999993 -78.4 L 38.39999999999999 -65.2 L 48 -60.4 Z" fill="#d5cbc0" stroke="rgba(0,0,0,0.14)" stroke-width="0.75" stroke-linejoin="round"/><path d="M -48 -79.6 L -33.599999999999994 -78.4 L -19.199999999999996 -65.2 L -4.800000000000004 -64 L 9.599999999999994 -50.800000000000004 L 19.200000000000003 -46 Z" fill="#d5cbc0" stroke="rgba(0,0,0,0.14)" stroke-width="0.75" stroke-linejoin="round"/><g><path d="M 0 -61.199999999999996 L -7.199999999999999 -57.599999999999994 L 0 -54 L 7.199999999999999 -57.599999999999994 Z" fill="#5c3f2f" stroke="rgba(0,0,0,0.16)" stroke-width="0.85" stroke-linejoin="round"/><path d="M 0 -39.199999999999996 L -7.199999999999999 -35.599999999999994 L -7.199999999999999 -57.599999999999994 L 0 -61.199999999999996 Z" fill="#2c1d16" stroke="rgba(0,0,0,0.16)" stroke-width="0.85" stroke-linejoin="round"/><path d="M -7.199999999999999 -35.599999999999994 L 0 -31.999999999999996 L 0 -54 L -7.199999999999999 -57.599999999999994 Z" fill="#7b5440" stroke="rgba(0,0,0,0.16)" stroke-width="0.85" stroke-linejoin="round"/></g><g><path d="M 31.199999999999996 -45.6 L 23.999999999999993 -42 L 31.200000000000003 -38.4 L 38.4 -42 Z" fill="#5c3f2f" stroke="rgba(0,0,0,0.16)" stroke-width="0.85" stroke-linejoin="round"/><path d="M 31.199999999999996 -23.6 L 23.999999999999993 -20 L 23.999999999999993 -42 L 31.199999999999996 -45.6 Z" fill="#2c1d16" stroke="rgba(0,0,0,0.16)" stroke-width="0.85" stroke-linejoin="round"/><path d="M 23.999999999999993 -20 L 31.200000000000003 -16.4 L 31.200000000000003 -38.4 L 23.999999999999993 -42 Z" fill="#7b5440" stroke="rgba(0,0,0,0.16)" stroke-width="0.85" stroke-linejoin="round"/></g><g><path d="M -31.199999999999996 -45.6 L -38.4 -42 L -31.200000000000003 -38.4 L -23.999999999999993 -42 Z" fill="#5c3f2f" stroke="rgba(0,0,0,0.16)" stroke-width="0.85" stroke-linejoin="round"/><path d="M -31.199999999999996 -23.6 L -38.4 -19.999999999999996 L -38.4 -42 L -31.199999999999996 -45.6 Z" fill="#2c1d16" stroke="rgba(0,0,0,0.16)" stroke-width="0.85" stroke-linejoin="round"/><path d="M -38.4 -19.999999999999996 L -31.200000000000003 -16.4 L -31.200000000000003 -38.4 L -38.4 -42 Z" fill="#7b5440" stroke="rgba(0,0,0,0.16)" stroke-width="0.85" stroke-linejoin="round"/></g><g><path d="M 0 -30.000000000000004 L -7.200000000000006 -26.4 L 0 -22.799999999999997 L 7.200000000000006 -26.4 Z" fill="#5c3f2f" stroke="rgba(0,0,0,0.16)" stroke-width="0.85" stroke-linejoin="round"/><path d="M 0 -8.000000000000004 L -7.200000000000006 -4.399999999999999 L -7.200000000000006 -26.4 L 0 -30.000000000000004 Z" fill="#2c1d16" stroke="rgba(0,0,0,0.16)" stroke-width="0.85" stroke-linejoin="round"/><path d="M -7.200000000000006 -4.399999999999999 L 0 -0.7999999999999972 L 0 -22.799999999999997 L -7.200000000000006 -26.4 Z" fill="#7b5440" stroke="rgba(0,0,0,0.16)" stroke-width="0.85" stroke-linejoin="round"/></g></g></svg>
