<svg data-asset-anchor="bottom-center footprint center" style="width:384;height:384;overflow:visible;pointer-events:none" width="384" height="384" viewBox="-192 -260 384 384" fill="none" xmlns="http://www.w3.org/2000/svg" role="img" aria-label="CityHall Base v1" data-asset-id="CityHall_Base_v1" data-footprint-size="240"><g filter="drop-shadow(0 18px 18px rgba(0,0,0,0.65))"><path d="M -134.3,0.0 L 14.1,-74.2 L 162.6,0.0 L 28.3,67.2 Z" fill="rgba(0,0,0,0.5)" stroke="none" stroke-width="0.5" stroke-linejoin="round"/><g><path d="M -141.4,-10.4 L 0.0,60.3 L 141.4,-10.4 L 0.0,-81.1 Z" fill="#455057" stroke="rgba(0,0,0,0.2)" stroke-width="0.5" stroke-linejoin="round"/><path d="M -141.4,0.0 L 0.0,70.7 L 0.0,60.3 L -141.4,-10.4 Z" fill="#242a2e" stroke="rgba(0,0,0,0.2)" stroke-width="0.5" stroke-linejoin="round"/><path d="M 0.0,70.7 L 141.4,0.0 L 141.4,-10.4 L 0.0,60.3 Z" fill="#313a40" stroke="rgba(0,0,0,0.2)" stroke-width="0.5" stroke-linejoin="round"/></g><g><path d="M -127.3,-17.3 L 0.0,46.3 L 127.3,-17.3 L 0.0,-80.9 Z" fill="#455057" stroke="rgba(0,0,0,0.2)" stroke-width="0.5" stroke-linejoin="round"/><path d="M -127.3,-10.4 L 0.0,53.2 L 0.0,46.3 L -127.3,-17.3 Z" fill="#242a2e" stroke="rgba(0,0,0,0.2)" stroke-width="0.5" stroke-linejoin="round"/><path d="M 0.0,53.2 L 127.3,-10.4 L 127.3,-17.3 L 0.0,46.3 Z" fill="#313a40" stroke="rgba(0,0,0,0.2)" stroke-width="0.5" stroke-linejoin="round"/></g><g><path d="M 56.6,32.0 L 59.4,33.4 L 87.7,19.3 L 84.9,17.9 Z" fill="#455057" stroke="rgba(0,0,0,0.2)" stroke-width="0.5" stroke-linejoin="round"/><path d="M 56.6,42.4 L 59.4,43.8 L 59.4,33.4 L 56.6,32.0 Z" fill="#242a2e" stroke="rgba(0,0,0,0.2)" stroke-width="0.5" stroke-linejoin="round"/><path d="M 59.4,43.8 L 87.7,29.7 L 87.7,19.3 L 59.4,33.4 Z" fill="#313a40" stroke="rgba(0,0,0,0.2)" stroke-width="0.5" stroke-linejoin="round"/></g><g><path d="M 59.4,36.9 L 62.2,38.3 L 90.5,24.2 L 87.7,22.8 Z" fill="#455057" stroke="rgba(0,0,0,0.2)" stroke-width="0.5" stroke-linejoin="round"/><path d="M 59.4,43.8 L 62.2,45.2 L 62.2,38.3 L 59.4,36.9 Z" fill="#242a2e" stroke="rgba(0,0,0,0.2)" stroke-width="0.5" stroke-linejoin="round"/><path d="M 62.2,45.2 L 90.5,31.1 L 90.5,24.2 L 62.2,38.3 Z" fill="#313a40" stroke="rgba(0,0,0,0.2)" stroke-width="0.5" stroke-linejoin="round"/></g><g><path d="M 62.2,41.8 L 65.1,43.2 L 93.3,29.1 L 90.5,27.6 Z" fill="#455057" stroke="rgba(0,0,0,0.2)" stroke-width="0.5" stroke-linejoin="round"/><path d="M 62.2,45.2 L 65.1,46.7 L 65.1,43.2 L 62.2,41.8 Z" fill="#242a2e" stroke="rgba(0,0,0,0.2)" stroke-width="0.5" stroke-linejoin="round"/><path d="M 65.1,46.7 L 93.3,32.5 L 93.3,29.1 L 65.1,43.2 Z" fill="#313a40" stroke="rgba(0,0,0,0.2)" stroke-width="0.5" stroke-linejoin="round"/></g><g><path d="M -84.9,-60.6 L 0.0,-18.2 L 84.9,-60.6 L 0.0,-103.0 Z" fill="#d1cdc5" stroke="rgba(0,0,0,0.2)" stroke-width="0.5" stroke-linejoin="round"/><path d="M -84.9,-17.3 L 0.0,25.1 L 0.0,-18.2 L -84.9,-60.6 Z" fill="#8c8883" stroke="rgba(0,0,0,0.2)" stroke-width="0.5" stroke-linejoin="round"/><path d="M 0.0,25.1 L 84.9,-17.3 L 84.9,-60.6 L 0.0,-18.2 Z" fill="#b0aba4" stroke="rgba(0,0,0,0.2)" stroke-width="0.5" stroke-linejoin="round"/></g><g><path d="M -96.2,-60.6 L -91.9,-58.5 L -87.7,-60.6 L -91.9,-62.7 Z" fill="#2c1611" stroke="rgba(0,0,0,0.2)" stroke-width="0.5" stroke-linejoin="round"/><path d="M -96.2,-17.3 L -91.9,-15.2 L -91.9,-58.5 L -96.2,-60.6 Z" fill="#4a150d" stroke="rgba(0,0,0,0.2)" stroke-width="0.5" stroke-linejoin="round"/><path d="M -91.9,-15.2 L -87.7,-17.3 L -87.7,-60.6 L -91.9,-58.5 Z" fill="#6e1b12" stroke="rgba(0,0,0,0.2)" stroke-width="0.5" stroke-linejoin="round"/></g><g><path d="M -50.2,-37.6 L -46.0,-35.5 L -41.7,-37.6 L -46.0,-39.8 Z" fill="#2c1611" stroke="rgba(0,0,0,0.2)" stroke-width="0.5" stroke-linejoin="round"/><path d="M -50.2,5.7 L -46.0,7.8 L -46.0,-35.5 L -50.2,-37.6 Z" fill="#4a150d" stroke="rgba(0,0,0,0.2)" stroke-width="0.5" stroke-linejoin="round"/><path d="M -46.0,7.8 L -41.7,5.7 L -41.7,-37.6 L -46.0,-35.5 Z" fill="#6e1b12" stroke="rgba(0,0,0,0.2)" stroke-width="0.5" stroke-linejoin="round"/></g><g><path d="M -4.2,-14.7 L 0.0,-12.5 L 4.2,-14.7 L 0.0,-16.8 Z" fill="#2c1611" stroke="rgba(0,0,0,0.2)" stroke-width="0.5" stroke-linejoin="round"/><path d="M -4.2,28.6 L 0.0,30.8 L 0.0,-12.5 L -4.2,-14.7 Z" fill="#4a150d" stroke="rgba(0,0,0,0.2)" stroke-width="0.5" stroke-linejoin="round"/><path d="M 0.0,30.8 L 4.2,28.6 L 4.2,-14.7 L 0.0,-12.5 Z" fill="#6e1b12" stroke="rgba(0,0,0,0.2)" stroke-width="0.5" stroke-linejoin="round"/></g><g><path d="M 41.7,-37.6 L 46.0,-35.5 L 50.2,-37.6 L 46.0,-39.8 Z" fill="#2c1611" stroke="rgba(0,0,0,0.2)" stroke-width="0.5" stroke-linejoin="round"/><path d="M 41.7,5.7 L 46.0,7.8 L 46.0,-35.5 L 41.7,-37.6 Z" fill="#4a150d" stroke="rgba(0,0,0,0.2)" stroke-width="0.5" stroke-linejoin="round"/><path d="M 46.0,7.8 L 50.2,5.7 L 50.2,-37.6 L 46.0,-35.5 Z" fill="#6e1b12" stroke="rgba(0,0,0,0.2)" stroke-width="0.5" stroke-linejoin="round"/></g><g><path d="M 87.7,-60.6 L 91.9,-58.5 L 96.2,-60.6 L 91.9,-62.7 Z" fill="#2c1611" stroke="rgba(0,0,0,0.2)" stroke-width="0.5" stroke-linejoin="round"/><path d="M 87.7,-17.3 L 91.9,-15.2 L 91.9,-58.5 L 87.7,-60.6 Z" fill="#4a150d" stroke="rgba(0,0,0,0.2)" stroke-width="0.5" stroke-linejoin="round"/><path d="M 91.9,-15.2 L 96.2,-17.3 L 96.2,-60.6 L 91.9,-58.5 Z" fill="#6e1b12" stroke="rgba(0,0,0,0.2)" stroke-width="0.5" stroke-linejoin="round"/></g><g><path d="M 29.7,-17.1 L 32.5,-15.7 L 55.2,-27.0 L 52.3,-28.5 Z" fill="#111" stroke="rgba(0,0,0,0.2)" stroke-width="0.5" stroke-linejoin="round"/><path d="M 29.7,8.8 L 32.5,10.3 L 32.5,-15.7 L 29.7,-17.1 Z" fill="#170e0a" stroke="rgba(0,0,0,0.2)" stroke-width="0.5" stroke-linejoin="round"/><path d="M 32.5,10.3 L 55.2,-1.1 L 55.2,-27.0 L 32.5,-15.7 Z" fill="#170e0a" stroke="rgba(0,0,0,0.2)" stroke-width="0.5" stroke-linejoin="round"/></g><g><path d="M 32.5,-15.4 L 34.6,-14.3 L 43.8,-18.9 L 41.7,-20.0 Z" fill="#111" stroke="rgba(0,0,0,0.2)" stroke-width="0.5" stroke-linejoin="round"/><path d="M 32.5,8.8 L 34.6,9.9 L 34.6,-14.3 L 32.5,-15.4 Z" fill="#2a1813" stroke="rgba(0,0,0,0.2)" stroke-width="0.5" stroke-linejoin="round"/><path d="M 34.6,9.9 L 43.8,5.3 L 43.8,-18.9 L 34.6,-14.3 Z" fill="#2a1813" stroke="rgba(0,0,0,0.2)" stroke-width="0.5" stroke-linejoin="round"/></g><g><path d="M 43.1,-20.7 L 45.3,-19.7 L 54.4,-24.2 L 52.3,-25.3 Z" fill="#111" stroke="rgba(0,0,0,0.2)" stroke-width="0.5" stroke-linejoin="round"/><path d="M 43.1,3.5 L 45.3,4.6 L 45.3,-19.7 L 43.1,-20.7 Z" fill="#2a1813" stroke="rgba(0,0,0,0.2)" stroke-width="0.5" stroke-linejoin="round"/><path d="M 45.3,4.6 L 54.4,0.0 L 54.4,-24.2 L 45.3,-19.7 Z" fill="#2a1813" stroke="rgba(0,0,0,0.2)" stroke-width="0.5" stroke-linejoin="round"/></g><g><path d="M -106.1,-67.5 L 0.0,-14.5 L 106.1,-67.5 L 0.0,-120.6 Z" fill="#2c1611" stroke="rgba(0,0,0,0.2)" stroke-width="0.5" stroke-linejoin="round"/><path d="M -106.1,-60.6 L 0.0,-7.6 L 0.0,-14.5 L -106.1,-67.5 Z" fill="#4a150d" stroke="rgba(0,0,0,0.2)" stroke-width="0.5" stroke-linejoin="round"/><path d="M 0.0,-7.6 L 106.1,-60.6 L 106.1,-67.5 L 0.0,-14.5 Z" fill="#6e1b12" stroke="rgba(0,0,0,0.2)" stroke-width="0.5" stroke-linejoin="round"/></g><g><path d="M -134.3,-67.5 L 0.0,-0.4 L -31.8,-79.4 Z" fill="#1b2024" stroke="rgba(0,0,0,0.2)" stroke-width="0.5" stroke-linejoin="round"/><path d="M 0.0,-0.4 L 134.3,-67.5 L 31.8,-111.2 L -31.8,-79.4 Z" fill="#293238" stroke="rgba(0,0,0,0.2)" stroke-width="0.5" stroke-linejoin="round"/></g><path d="M -30.4,-78.6 L 33.2,-110.5 L 31.8,-111.2 L -31.8,-79.4 Z" fill="#c4a660" stroke="rgba(0,0,0,0.2)" stroke-width="0.5" stroke-linejoin="round"/><path d="M -134.3,-67.5 L -131.5,-67.5 L -29.0,-79.4 L -31.8,-79.4 Z" fill="#a3834b" stroke="rgba(0,0,0,0.2)" stroke-width="0.5" stroke-linejoin="round"/><path d="M 0.0,-0.4 L 0.0,-1.8 L -29.0,-79.4 L -31.8,-79.4 Z" fill="#a3834b" stroke="rgba(0,0,0,0.2)" stroke-width="0.5" stroke-linejoin="round"/><path d="M 134.3,-67.5 L 131.5,-67.5 L 31.8,-109.8 L 31.8,-111.2 Z" fill="#c4a660" stroke="rgba(0,0,0,0.2)" stroke-width="0.5" stroke-linejoin="round"/><path d="M -134.3,-67.5 L 0.0,-0.4 L 0.0,-2.7 L -131.5,-68.4 Z" fill="#a3834b" stroke="rgba(0,0,0,0.2)" stroke-width="0.5" stroke-linejoin="round"/><path d="M 0.0,-0.4 L 134.3,-67.5 L 131.5,-68.4 L 0.0,-2.7 Z" fill="#c4a660" stroke="rgba(0,0,0,0.2)" stroke-width="0.5" stroke-linejoin="round"/><g><path d="M -56.6,-121.2 L 0.0,-93.0 L 56.6,-121.2 L 0.0,-149.5 Z" fill="#d1cdc5" stroke="rgba(0,0,0,0.2)" stroke-width="0.5" stroke-linejoin="round"/><path d="M -56.6,-95.3 L 0.0,-67.0 L 0.0,-93.0 L -56.6,-121.2 Z" fill="#8c8883" stroke="rgba(0,0,0,0.2)" stroke-width="0.5" stroke-linejoin="round"/><path d="M 0.0,-67.0 L 56.6,-95.3 L 56.6,-121.2 L 0.0,-93.0 Z" fill="#b0aba4" stroke="rgba(0,0,0,0.2)" stroke-width="0.5" stroke-linejoin="round"/></g><g><path d="M -65.1,-121.2 L -60.8,-119.1 L -56.6,-121.2 L -60.8,-123.4 Z" fill="#2c1611" stroke="rgba(0,0,0,0.2)" stroke-width="0.5" stroke-linejoin="round"/><path d="M -65.1,-95.3 L -60.8,-93.1 L -60.8,-119.1 L -65.1,-121.2 Z" fill="#4a150d" stroke="rgba(0,0,0,0.2)" stroke-width="0.5" stroke-linejoin="round"/><path d="M -60.8,-93.1 L -56.6,-95.3 L -56.6,-121.2 L -60.8,-119.1 Z" fill="#6e1b12" stroke="rgba(0,0,0,0.2)" stroke-width="0.5" stroke-linejoin="round"/></g><g><path d="M -34.6,-106.0 L -30.4,-103.9 L -26.2,-106.0 L -30.4,-108.2 Z" fill="#2c1611" stroke="rgba(0,0,0,0.2)" stroke-width="0.5" stroke-linejoin="round"/><path d="M -34.6,-80.1 L -30.4,-77.9 L -30.4,-103.9 L -34.6,-106.0 Z" fill="#4a150d" stroke="rgba(0,0,0,0.2)" stroke-width="0.5" stroke-linejoin="round"/><path d="M -30.4,-77.9 L -26.2,-80.1 L -26.2,-106.0 L -30.4,-103.9 Z" fill="#6e1b12" stroke="rgba(0,0,0,0.2)" stroke-width="0.5" stroke-linejoin="round"/></g><g><path d="M -4.2,-90.8 L 0.0,-88.7 L 4.2,-90.8 L 0.0,-93.0 Z" fill="#2c1611" stroke="rgba(0,0,0,0.2)" stroke-width="0.5" stroke-linejoin="round"/><path d="M -4.2,-64.9 L 0.0,-62.7 L 0.0,-88.7 L -4.2,-90.8 Z" fill="#4a150d" stroke="rgba(0,0,0,0.2)" stroke-width="0.5" stroke-linejoin="round"/><path d="M 0.0,-62.7 L 4.2,-64.9 L 4.2,-90.8 L 0.0,-88.7 Z" fill="#6e1b12" stroke="rgba(0,0,0,0.2)" stroke-width="0.5" stroke-linejoin="round"/></g><g><path d="M 26.2,-106.0 L 30.4,-103.9 L 34.6,-106.0 L 30.4,-108.2 Z" fill="#2c1611" stroke="rgba(0,0,0,0.2)" stroke-width="0.5" stroke-linejoin="round"/><path d="M 26.2,-80.1 L 30.4,-77.9 L 30.4,-103.9 L 26.2,-106.0 Z" fill="#4a150d" stroke="rgba(0,0,0,0.2)" stroke-width="0.5" stroke-linejoin="round"/><path d="M 30.4,-77.9 L 34.6,-80.1 L 34.6,-106.0 L 30.4,-103.9 Z" fill="#6e1b12" stroke="rgba(0,0,0,0.2)" stroke-width="0.5" stroke-linejoin="round"/></g><g><path d="M 56.6,-121.2 L 60.8,-119.1 L 65.1,-121.2 L 60.8,-123.4 Z" fill="#2c1611" stroke="rgba(0,0,0,0.2)" stroke-width="0.5" stroke-linejoin="round"/><path d="M 56.6,-95.3 L 60.8,-93.1 L 60.8,-119.1 L 56.6,-121.2 Z" fill="#4a150d" stroke="rgba(0,0,0,0.2)" stroke-width="0.5" stroke-linejoin="round"/><path d="M 60.8,-93.1 L 65.1,-95.3 L 65.1,-121.2 L 60.8,-119.1 Z" fill="#6e1b12" stroke="rgba(0,0,0,0.2)" stroke-width="0.5" stroke-linejoin="round"/></g><g><path d="M -70.7,-128.2 L 0.0,-92.8 L 70.7,-128.2 L 0.0,-163.5 Z" fill="#2c1611" stroke="rgba(0,0,0,0.2)" stroke-width="0.5" stroke-linejoin="round"/><path d="M -70.7,-121.2 L 0.0,-85.9 L 0.0,-92.8 L -70.7,-128.2 Z" fill="#4a150d" stroke="rgba(0,0,0,0.2)" stroke-width="0.5" stroke-linejoin="round"/><path d="M 0.0,-85.9 L 70.7,-121.2 L 70.7,-128.2 L 0.0,-92.8 Z" fill="#6e1b12" stroke="rgba(0,0,0,0.2)" stroke-width="0.5" stroke-linejoin="round"/></g><g><path d="M -91.9,-128.2 L 0.0,-82.2 L -17.7,-151.4 Z" fill="#1b2024" stroke="rgba(0,0,0,0.2)" stroke-width="0.5" stroke-linejoin="round"/><path d="M 0.0,-82.2 L 91.9,-128.2 L 17.7,-169.0 L -17.7,-151.4 Z" fill="#293238" stroke="rgba(0,0,0,0.2)" stroke-width="0.5" stroke-linejoin="round"/></g><path d="M -91.9,-128.2 L -89.1,-128.2 L -14.8,-151.4 L -17.7,-151.4 Z" fill="#a3834b" stroke="rgba(0,0,0,0.2)" stroke-width="0.5" stroke-linejoin="round"/><path d="M 0.0,-82.2 L 0.0,-83.6 L -14.8,-151.4 L -17.7,-151.4 Z" fill="#a3834b" stroke="rgba(0,0,0,0.2)" stroke-width="0.5" stroke-linejoin="round"/><path d="M 91.9,-128.2 L 89.1,-128.2 L 17.7,-167.6 L 17.7,-169.0 Z" fill="#c4a660" stroke="rgba(0,0,0,0.2)" stroke-width="0.5" stroke-linejoin="round"/><path d="M -91.9,-128.2 L 0.0,-82.2 L 0.0,-84.5 L -89.1,-129.0 Z" fill="#a3834b" stroke="rgba(0,0,0,0.2)" stroke-width="0.5" stroke-linejoin="round"/><path d="M 0.0,-82.2 L 91.9,-128.2 L 89.1,-129.0 L 0.0,-84.5 Z" fill="#c4a660" stroke="rgba(0,0,0,0.2)" stroke-width="0.5" stroke-linejoin="round"/><g><path d="M -23.3,-156.7 L -19.1,-154.6 L 23.3,-175.8 L 19.1,-177.9 Z" fill="#e0c279" stroke="rgba(0,0,0,0.2)" stroke-width="0.5" stroke-linejoin="round"/><path d="M -23.3,-150.7 L -19.1,-148.5 L -19.1,-154.6 L -23.3,-156.7 Z" fill="#a3834b" stroke="rgba(0,0,0,0.2)" stroke-width="0.5" stroke-linejoin="round"/><path d="M -19.1,-148.5 L 23.3,-169.8 L 23.3,-175.8 L -19.1,-154.6 Z" fill="#c4a660" stroke="rgba(0,0,0,0.2)" stroke-width="0.5" stroke-linejoin="round"/></g><g><path d="M -24.7,-168.7 L -17.7,-165.2 L -13.4,-167.3 L -20.5,-170.8 Z" fill="#e0c279" stroke="rgba(0,0,0,0.2)" stroke-width="0.5" stroke-linejoin="round"/><path d="M -24.7,-157.4 L -17.7,-153.9 L -17.7,-165.2 L -24.7,-168.7 Z" fill="#a3834b" stroke="rgba(0,0,0,0.2)" stroke-width="0.5" stroke-linejoin="round"/><path d="M -17.7,-153.9 L -13.4,-156.0 L -13.4,-167.3 L -17.7,-165.2 Z" fill="#c4a660" stroke="rgba(0,0,0,0.2)" stroke-width="0.5" stroke-linejoin="round"/></g><g><path d="M 13.4,-187.8 L 20.5,-184.2 L 24.7,-186.4 L 17.7,-189.9 Z" fill="#e0c279" stroke="rgba(0,0,0,0.2)" stroke-width="0.5" stroke-linejoin="round"/><path d="M 13.4,-176.5 L 20.5,-173.0 L 20.5,-184.2 L 13.4,-187.8 Z" fill="#a3834b" stroke="rgba(0,0,0,0.2)" stroke-width="0.5" stroke-linejoin="round"/><path d="M 20.5,-173.0 L 24.7,-175.1 L 24.7,-186.4 L 20.5,-184.2 Z" fill="#c4a660" stroke="rgba(0,0,0,0.2)" stroke-width="0.5" stroke-linejoin="round"/></g><path d="M -21.2,-166.9 L -24.7,-173.8 L -17.0,-169.0 Z" fill="#c4a660" stroke="rgba(0,0,0,0.2)" stroke-width="0.5" stroke-linejoin="round"/><path d="M 21.2,-188.1 L 24.7,-198.6 L 17.0,-186.0 Z" fill="#a3834b" stroke="rgba(0,0,0,0.2)" stroke-width="0.5" stroke-linejoin="round"/></g></svg>
