<svg data-asset-anchor="bottom-center footprint center" style="width:384;height:384;overflow:visible;pointer-events:none" width="384" height="384" viewBox="-192 -244 384 384" fill="none" xmlns="http://www.w3.org/2000/svg" role="img" aria-label="City Gate Base v1" data-asset-id="CityGate_Base_v1" data-footprint-size="240" data-anchor="bottom-center footprint center"><defs><filter id="cityGateShadow" x="-30%" y="-30%" width="160%" height="160%"><feGaussianBlur in="SourceAlpha" stdDeviation="2.5"/><feOffset dx="2" dy="5" result="offsetblur"/><feComponentTransfer><feFuncA type="linear" slope="0.44"/></feComponentTransfer><feMerge><feMergeNode/><feMergeNode in="SourceGraphic"/></feMerge></filter><linearGradient id="cityGateRoof" x1="0%" y1="0%" x2="0%" y2="100%"><stop offset="0%" stop-color="#43302a"/><stop offset="100%" stop-color="#1f1512"/></linearGradient></defs><g filter="url(#cityGateShadow)"><path d="M 0 -60 L 120 0 L 0 60 L -120 0 Z" fill="#11100f" stroke="#050403" stroke-width="1.1"/><g><path d="M -11.999999999999996 -56.4 L -88.8 -18 L 12.00000000000001 32.4 L 88.8 -5.999999999999998 Z" fill="#c5bbb0" stroke="rgba(0,0,0,0.16)" stroke-width="0.85" stroke-linejoin="round"/><path d="M -11.999999999999996 -44.4 L -88.8 -6.000000000000002 L -88.8 -18 L -11.999999999999996 -56.4 Z" fill="#8f8578" stroke="rgba(0,0,0,0.16)" stroke-width="0.85" stroke-linejoin="round"/><path d="M -88.8 -6.000000000000002 L 12.00000000000001 44.4 L 12.00000000000001 32.4 L -88.8 -18 Z" fill="#a89e90" stroke="rgba(0,0,0,0.16)" stroke-width="0.85" stroke-linejoin="round"/></g><g><path d="M -9.600000000000001 -60.8 L -81.60000000000001 -24.799999999999997 L 9.599999999999994 20.800000000000004 L 81.6 -15.2 Z" fill="#c5bbb0" stroke="rgba(0,0,0,0.16)" stroke-width="0.85" stroke-linejoin="round"/><path d="M -9.600000000000001 -52.8 L -81.60000000000001 -16.799999999999997 L -81.60000000000001 -24.799999999999997 L -9.600000000000001 -60.8 Z" fill="#8f8578" stroke="rgba(0,0,0,0.16)" stroke-width="0.85" stroke-linejoin="round"/><path d="M -81.60000000000001 -16.799999999999997 L 9.599999999999994 28.800000000000004 L 9.599999999999994 20.800000000000004 L -81.60000000000001 -24.799999999999997 Z" fill="#a89e90" stroke="rgba(0,0,0,0.16)" stroke-width="0.85" stroke-linejoin="round"/></g><g><path d="M -9.600000000000001 -90.8 L -81.60000000000001 -54.8 L -72.00000000000001 -50 L 0 -86 Z" fill="#c5bbb0" stroke="rgba(0,0,0,0.16)" stroke-width="0.85" stroke-linejoin="round"/><path d="M -9.600000000000001 -52.8 L -81.60000000000001 -16.799999999999997 L -81.60000000000001 -54.8 L -9.600000000000001 -90.8 Z" fill="#8f8578" stroke="rgba(0,0,0,0.16)" stroke-width="0.85" stroke-linejoin="round"/><path d="M -81.60000000000001 -16.799999999999997 L -72.00000000000001 -11.999999999999996 L -72.00000000000001 -50 L -81.60000000000001 -54.8 Z" fill="#a89e90" stroke="rgba(0,0,0,0.16)" stroke-width="0.85" stroke-linejoin="round"/></g><g><path d="M 72.00000000000001 -50 L 0 -13.999999999999993 L 9.599999999999994 -9.199999999999996 L 81.6 -45.2 Z" fill="#c5bbb0" stroke="rgba(0,0,0,0.16)" stroke-width="0.85" stroke-linejoin="round"/><path d="M 72.00000000000001 -11.999999999999996 L 0 24.000000000000007 L 0 -13.999999999999993 L 72.00000000000001 -50 Z" fill="#8f8578" stroke="rgba(0,0,0,0.16)" stroke-width="0.85" stroke-linejoin="round"/><path d="M 0 24.000000000000007 L 9.599999999999994 28.800000000000004 L 9.599999999999994 -9.199999999999996 L 0 -13.999999999999993 Z" fill="#a89e90" stroke="rgba(0,0,0,0.16)" stroke-width="0.85" stroke-linejoin="round"/></g><g><path d="M 2.400000000000002 -101.2 L -9.600000000000001 -95.2 L 62.400000000000006 -59.199999999999996 L 74.4 -65.2 Z" fill="#6d6761" stroke="rgba(0,0,0,0.16)" stroke-width="0.85" stroke-linejoin="round"/><path d="M 2.400000000000002 -87.2 L -9.600000000000001 -81.2 L -9.600000000000001 -95.2 L 2.400000000000002 -101.2 Z" fill="#3d3835" stroke="rgba(0,0,0,0.16)" stroke-width="0.85" stroke-linejoin="round"/><path d="M -9.600000000000001 -81.2 L 62.400000000000006 -45.199999999999996 L 62.400000000000006 -59.199999999999996 L -9.600000000000001 -95.2 Z" fill="#4f4945" stroke="rgba(0,0,0,0.16)" stroke-width="0.85" stroke-linejoin="round"/></g><g><path d="M -62.400000000000006 -68.8 L -74.39999999999999 -62.800000000000004 L -2.399999999999989 -26.799999999999997 L 9.600000000000009 -32.8 Z" fill="#6d6761" stroke="rgba(0,0,0,0.16)" stroke-width="0.85" stroke-linejoin="round"/><path d="M -62.400000000000006 -54.8 L -74.39999999999999 -48.800000000000004 L -74.39999999999999 -62.800000000000004 L -62.400000000000006 -68.8 Z" fill="#3d3835" stroke="rgba(0,0,0,0.16)" stroke-width="0.85" stroke-linejoin="round"/><path d="M -74.39999999999999 -48.800000000000004 L -2.399999999999989 -12.799999999999997 L -2.399999999999989 -26.799999999999997 L -74.39999999999999 -62.800000000000004 Z" fill="#4f4945" stroke="rgba(0,0,0,0.16)" stroke-width="0.85" stroke-linejoin="round"/></g><g><path d="M -7.200000000000006 -116 L -60 -89.60000000000001 L 7.200000000000006 -56 L 60 -82.39999999999999 Z" fill="#c5bbb0" stroke="rgba(0,0,0,0.16)" stroke-width="0.85" stroke-linejoin="round"/><path d="M -7.200000000000006 -94 L -60 -67.60000000000001 L -60 -89.60000000000001 L -7.200000000000006 -116 Z" fill="#8f8578" stroke="rgba(0,0,0,0.16)" stroke-width="0.85" stroke-linejoin="round"/><path d="M -60 -67.60000000000001 L 7.200000000000006 -34 L 7.200000000000006 -56 L -60 -89.60000000000001 Z" fill="#a89e90" stroke="rgba(0,0,0,0.16)" stroke-width="0.85" stroke-linejoin="round"/></g><g><path d="M -7.199999999999999 -123.2 L -50.400000000000006 -101.6 L 7.199999999999993 -72.8 L 50.4 -94.4 Z" fill="#5b3e30" stroke="rgba(0,0,0,0.16)" stroke-width="0.85" stroke-linejoin="round"/><path d="M -7.199999999999999 -111.2 L -50.400000000000006 -89.6 L -50.400000000000006 -101.6 L -7.199999999999999 -123.2 Z" fill="#2f1f18" stroke="rgba(0,0,0,0.16)" stroke-width="0.85" stroke-linejoin="round"/><path d="M -50.400000000000006 -89.6 L 7.199999999999993 -60.8 L 7.199999999999993 -72.8 L -50.400000000000006 -101.6 Z" fill="#7a5140" stroke="rgba(0,0,0,0.16)" stroke-width="0.85" stroke-linejoin="round"/></g><g><path d="M -8.4 -120.6 L -37.2 -106.2 L 8.399999999999995 -83.4 L 37.199999999999996 -97.8 Z" fill="#12100e" stroke="rgba(0,0,0,0.16)" stroke-width="0.85" stroke-linejoin="round"/><path d="M -8.4 -116.6 L -37.2 -102.2 L -37.2 -106.2 L -8.4 -120.6 Z" fill="#0f0d0c" stroke="rgba(0,0,0,0.16)" stroke-width="0.85" stroke-linejoin="round"/><path d="M -37.2 -102.2 L 8.399999999999995 -79.4 L 8.399999999999995 -83.4 L -37.2 -106.2 Z" fill="#161412" stroke="rgba(0,0,0,0.16)" stroke-width="0.85" stroke-linejoin="round"/></g><path d="M -4.800000000000004 -130.8 L 57.599999999999994 -99.6 L 62.400000000000006 -129.2 L 14.399999999999999 -153.2 Z" fill="url(#cityGateRoof)" stroke="rgba(0,0,0,0.16)" stroke-width="0.95" stroke-linejoin="round"/><path d="M -57.599999999999994 -104.4 L 4.800000000000004 -73.2 L -14.399999999999999 -90.80000000000001 L -62.400000000000006 -114.8 Z" fill="url(#cityGateRoof)" stroke="rgba(0,0,0,0.16)" stroke-width="0.95" stroke-linejoin="round"/><path d="M 14.399999999999999 -153.2 L 62.400000000000006 -129.2 L -14.399999999999999 -90.80000000000001 L -62.400000000000006 -114.8 Z" fill="url(#cityGateRoof)" stroke="rgba(0,0,0,0.14)" stroke-width="0.95" stroke-linejoin="round"/><g><path d="M -5.999999999999998 -74.6 L -25.199999999999996 -65 L 6.000000000000005 -49.400000000000006 L 25.200000000000003 -59 Z" fill="#191512" stroke="rgba(0,0,0,0.16)" stroke-width="0.85" stroke-linejoin="round"/><path d="M -5.999999999999998 -34.6 L -25.199999999999996 -25.000000000000004 L -25.199999999999996 -65 L -5.999999999999998 -74.6 Z" fill="#0f0c0a" stroke="rgba(0,0,0,0.16)" stroke-width="0.85" stroke-linejoin="round"/><path d="M -25.199999999999996 -25.000000000000004 L 6.000000000000005 -9.400000000000002 L 6.000000000000005 -49.400000000000006 L -25.199999999999996 -65 Z" fill="#241c18" stroke="rgba(0,0,0,0.16)" stroke-width="0.85" stroke-linejoin="round"/></g><path d="M -2.3999999999999955 -72.8 L 21.599999999999998 -60.800000000000004 L 9.599999999999994 -41.2 L -9.600000000000001 -50.8 Z" fill="#0b0908" stroke="rgba(0,0,0,0.12)" stroke-width="0.75" stroke-linejoin="round"/><path d="M -21.599999999999994 -63.2 L 2.400000000000002 -51.2 L 9.599999999999994 -41.2 L -9.600000000000001 -50.8 Z" fill="#0b0908" stroke="rgba(0,0,0,0.12)" stroke-width="0.75" stroke-linejoin="round"/><g><path d="M 28.799999999999997 -133.6 L 21.599999999999998 -130 L 36.00000000000001 -122.8 L 43.2 -126.39999999999999 Z" fill="#d4c7a0" stroke="rgba(0,0,0,0.16)" stroke-width="0.85" stroke-linejoin="round"/><path d="M 28.799999999999997 -121.6 L 21.599999999999998 -118 L 21.599999999999998 -130 L 28.799999999999997 -133.6 Z" fill="#9d8a58" stroke="rgba(0,0,0,0.16)" stroke-width="0.85" stroke-linejoin="round"/><path d="M 21.599999999999998 -118 L 36.00000000000001 -110.8 L 36.00000000000001 -122.8 L 21.599999999999998 -130 Z" fill="#b49c66" stroke="rgba(0,0,0,0.16)" stroke-width="0.85" stroke-linejoin="round"/></g><g><path d="M -36 -101.2 L -43.2 -97.6 L -28.799999999999997 -90.39999999999999 L -21.599999999999994 -94 Z" fill="#d4c7a0" stroke="rgba(0,0,0,0.16)" stroke-width="0.85" stroke-linejoin="round"/><path d="M -36 -89.2 L -43.2 -85.6 L -43.2 -97.6 L -36 -101.2 Z" fill="#9d8a58" stroke="rgba(0,0,0,0.16)" stroke-width="0.85" stroke-linejoin="round"/><path d="M -43.2 -85.6 L -28.799999999999997 -78.39999999999999 L -28.799999999999997 -90.39999999999999 L -43.2 -97.6 Z" fill="#b49c66" stroke="rgba(0,0,0,0.16)" stroke-width="0.85" stroke-linejoin="round"/></g><path d="M 16.8 -132.4 L 40.8 -120.4 L 28.800000000000004 -115.2 L 14.399999999999999 -122.4 Z" fill="#d4c7a0" stroke="rgba(0,0,0,0.12)" stroke-width="0.75" stroke-linejoin="round"/><path d="M -40.8 -103.6 L -16.8 -91.6 L -14.399999999999999 -93.6 L -28.800000000000004 -100.8 Z" fill="#d4c7a0" stroke="rgba(0,0,0,0.12)" stroke-width="0.75" stroke-linejoin="round"/><path d="M -28 20 L -18 12 L -18 58 L -28 66 Z" fill="#d1c6a2" opacity="0.75"/><path d="M 28 20 L 18 12 L 18 58 L 28 66 Z" fill="#d1c6a2" opacity="0.75"/><path d="M -6 -24 L 6 -24 L 6 -18 L -6 -18 Z" fill="#c7a65a" opacity="0.9"/></g></svg>
