<svg data-asset-anchor="bottom-center footprint center" style="width:384;height:384;overflow:visible;pointer-events:none" width="384" height="384" viewBox="-192 -220 384 384" fill="none" xmlns="http://www.w3.org/2000/svg" role="img" aria-label="Construction Plot Base v1" data-asset-id="ConstructionPlot_Base_v1" data-footprint-size="240" data-anchor="bottom-center footprint center"><defs><filter id="constructionPlotShadow" x="-30%" y="-30%" width="160%" height="160%"><feGaussianBlur in="SourceAlpha" stdDeviation="2.2"/><feOffset dx="2" dy="4" result="offsetblur"/><feComponentTransfer><feFuncA type="linear" slope="0.4"/></feComponentTransfer><feMerge><feMergeNode/><feMergeNode in="SourceGraphic"/></feMerge></filter></defs><g filter="url(#constructionPlotShadow)"><path d="M 0 -60 L 120 0 L 0 60 L -120 0 Z" fill="#171513" stroke="#050403" stroke-width="1.1"/><g><path d="M 0 -57.4 L -100.80000000000001 -6.9999999999999964 L 0 43.400000000000006 L 100.80000000000001 -6.9999999999999964 Z" fill="#4a392d" stroke="rgba(0,0,0,0.16)" stroke-width="0.85" stroke-linejoin="round"/><path d="M 0 -50.4 L -100.80000000000001 3.3306690738754696e-15 L -100.80000000000001 -6.9999999999999964 L 0 -57.4 Z" fill="#2f221a" stroke="rgba(0,0,0,0.16)" stroke-width="0.85" stroke-linejoin="round"/><path d="M -100.80000000000001 3.3306690738754696e-15 L 0 50.400000000000006 L 0 43.400000000000006 L -100.80000000000001 -6.9999999999999964 Z" fill="#5f4837" stroke="rgba(0,0,0,0.16)" stroke-width="0.85" stroke-linejoin="round"/></g><g><path d="M 0 -55.6 L -91.2 -10 L 0 35.6 L 91.2 -10 Z" fill="#4a392d" stroke="rgba(0,0,0,0.16)" stroke-width="0.85" stroke-linejoin="round"/><path d="M 0 -52.6 L -91.2 -7 L -91.2 -10 L 0 -55.6 Z" fill="#2f221a" stroke="rgba(0,0,0,0.16)" stroke-width="0.85" stroke-linejoin="round"/><path d="M -91.2 -7 L 0 38.6 L 0 35.6 L -91.2 -10 Z" fill="#5f4837" stroke="rgba(0,0,0,0.16)" stroke-width="0.85" stroke-linejoin="round"/></g><g><path d="M 0 -58.8 L -4.799999999999997 -56.39999999999999 L 76.79999999999998 -15.600000000000001 L 81.6 -18 Z" fill="#6b4a36" stroke="rgba(0,0,0,0.16)" stroke-width="0.85" stroke-linejoin="round"/><path d="M 0 -50.8 L -4.799999999999997 -48.39999999999999 L -4.799999999999997 -56.39999999999999 L 0 -58.8 Z" fill="#38251d" stroke="rgba(0,0,0,0.16)" stroke-width="0.85" stroke-linejoin="round"/><path d="M -4.799999999999997 -48.39999999999999 L 76.79999999999998 -7.600000000000001 L 76.79999999999998 -15.600000000000001 L -4.799999999999997 -56.39999999999999 Z" fill="#8a6047" stroke="rgba(0,0,0,0.16)" stroke-width="0.85" stroke-linejoin="round"/></g><g><path d="M -76.8 -20.399999999999995 L -81.6 -18 L 0 22.799999999999997 L 4.799999999999991 20.4 Z" fill="#6b4a36" stroke="rgba(0,0,0,0.16)" stroke-width="0.85" stroke-linejoin="round"/><path d="M -76.8 -12.399999999999995 L -81.6 -10 L -81.6 -18 L -76.8 -20.399999999999995 Z" fill="#38251d" stroke="rgba(0,0,0,0.16)" stroke-width="0.85" stroke-linejoin="round"/><path d="M -81.6 -10 L 0 30.799999999999997 L 0 22.799999999999997 L -81.6 -18 Z" fill="#8a6047" stroke="rgba(0,0,0,0.16)" stroke-width="0.85" stroke-linejoin="round"/></g><g><path d="M -4.799999999999997 -56.39999999999999 L -76.8 -20.399999999999995 L -72.00000000000001 -17.999999999999996 L 0 -54 Z" fill="#6b4a36" stroke="rgba(0,0,0,0.16)" stroke-width="0.85" stroke-linejoin="round"/><path d="M -4.799999999999997 -48.39999999999999 L -76.8 -12.399999999999995 L -76.8 -20.399999999999995 L -4.799999999999997 -56.39999999999999 Z" fill="#38251d" stroke="rgba(0,0,0,0.16)" stroke-width="0.85" stroke-linejoin="round"/><path d="M -76.8 -12.399999999999995 L -72.00000000000001 -9.999999999999996 L -72.00000000000001 -17.999999999999996 L -76.8 -20.399999999999995 Z" fill="#8a6047" stroke="rgba(0,0,0,0.16)" stroke-width="0.85" stroke-linejoin="round"/></g><g><path d="M 72.00000000000001 -17.999999999999996 L 0 18.000000000000007 L 4.799999999999991 20.4 L 76.79999999999998 -15.600000000000001 Z" fill="#6b4a36" stroke="rgba(0,0,0,0.16)" stroke-width="0.85" stroke-linejoin="round"/><path d="M 72.00000000000001 -9.999999999999996 L 0 26.000000000000007 L 0 18.000000000000007 L 72.00000000000001 -17.999999999999996 Z" fill="#38251d" stroke="rgba(0,0,0,0.16)" stroke-width="0.85" stroke-linejoin="round"/><path d="M 0 26.000000000000007 L 4.799999999999991 28.4 L 4.799999999999991 20.4 L 0 18.000000000000007 Z" fill="#8a6047" stroke="rgba(0,0,0,0.16)" stroke-width="0.85" stroke-linejoin="round"/></g><g><path d="M 0 -57.6 L -67.2 -24 L 0 9.600000000000001 L 67.2 -24 Z" fill="#4a392d" stroke="rgba(0,0,0,0.16)" stroke-width="0.85" stroke-linejoin="round"/><path d="M 0 -51.6 L -67.2 -18 L -67.2 -24 L 0 -57.6 Z" fill="#2f221a" stroke="rgba(0,0,0,0.16)" stroke-width="0.85" stroke-linejoin="round"/><path d="M -67.2 -18 L 0 15.600000000000001 L 0 9.600000000000001 L -67.2 -24 Z" fill="#5f4837" stroke="rgba(0,0,0,0.16)" stroke-width="0.85" stroke-linejoin="round"/></g><g><path d="M 0 -56.4 L -52.8 -30 L 0 -3.6000000000000014 L 52.8 -30 Z" fill="#444642" stroke="rgba(0,0,0,0.16)" stroke-width="0.85" stroke-linejoin="round"/><path d="M 0 -50.4 L -52.8 -24 L -52.8 -30 L 0 -56.4 Z" fill="#2d2f2b" stroke="rgba(0,0,0,0.16)" stroke-width="0.85" stroke-linejoin="round"/><path d="M -52.8 -24 L 0 2.3999999999999986 L 0 -3.6000000000000014 L -52.8 -30 Z" fill="#5a5d57" stroke="rgba(0,0,0,0.16)" stroke-width="0.85" stroke-linejoin="round"/></g><g><path d="M 0 -55.599999999999994 L -43.2 -34 L 0 -12.399999999999995 L 43.2 -34 Z" fill="#2c2e2b" stroke="rgba(0,0,0,0.16)" stroke-width="0.85" stroke-linejoin="round"/><path d="M 0 -51.599999999999994 L -43.2 -29.999999999999996 L -43.2 -34 L 0 -55.599999999999994 Z" fill="#1e201d" stroke="rgba(0,0,0,0.16)" stroke-width="0.85" stroke-linejoin="round"/><path d="M -43.2 -29.999999999999996 L 0 -8.399999999999995 L 0 -12.399999999999995 L -43.2 -34 Z" fill="#3a3d39" stroke="rgba(0,0,0,0.16)" stroke-width="0.85" stroke-linejoin="round"/></g><path d="M 0 -58 L 47.99999999999999 -34 L 33.6 -41.599999999999994 L -4.799999999999997 -60.8 Z" fill="#5a5c58" stroke="rgba(0,0,0,0.14)" stroke-width="0.8" stroke-linejoin="round"/><path d="M -47.99999999999999 -34 L 0 -10.000000000000007 L 4.800000000000004 -27.2 L -33.599999999999994 -46.4 Z" fill="#5a5c58" stroke="rgba(0,0,0,0.14)" stroke-width="0.8" stroke-linejoin="round"/><g><path d="M 0 -87.2 L -9.600000000000001 -82.4 L 0 -77.6 L 9.600000000000001 -82.4 Z" fill="#7a5537" stroke="rgba(0,0,0,0.16)" stroke-width="0.85" stroke-linejoin="round"/><path d="M 0 -65.2 L -9.600000000000001 -60.4 L -9.600000000000001 -82.4 L 0 -87.2 Z" fill="#463020" stroke="rgba(0,0,0,0.16)" stroke-width="0.85" stroke-linejoin="round"/><path d="M -9.600000000000001 -60.4 L 0 -55.599999999999994 L 0 -77.6 L -9.600000000000001 -82.4 Z" fill="#996943" stroke="rgba(0,0,0,0.16)" stroke-width="0.85" stroke-linejoin="round"/></g><g><path d="M 52.800000000000004 -60.8 L 43.2 -56 L 52.8 -51.2 L 62.400000000000006 -56 Z" fill="#7a5537" stroke="rgba(0,0,0,0.16)" stroke-width="0.85" stroke-linejoin="round"/><path d="M 52.800000000000004 -38.8 L 43.2 -34 L 43.2 -56 L 52.800000000000004 -60.8 Z" fill="#463020" stroke="rgba(0,0,0,0.16)" stroke-width="0.85" stroke-linejoin="round"/><path d="M 43.2 -34 L 52.8 -29.2 L 52.8 -51.2 L 43.2 -56 Z" fill="#996943" stroke="rgba(0,0,0,0.16)" stroke-width="0.85" stroke-linejoin="round"/></g><g><path d="M -52.800000000000004 -60.8 L -62.400000000000006 -56 L -52.8 -51.2 L -43.2 -56 Z" fill="#7a5537" stroke="rgba(0,0,0,0.16)" stroke-width="0.85" stroke-linejoin="round"/><path d="M -52.800000000000004 -38.8 L -62.400000000000006 -34 L -62.400000000000006 -56 L -52.800000000000004 -60.8 Z" fill="#463020" stroke="rgba(0,0,0,0.16)" stroke-width="0.85" stroke-linejoin="round"/><path d="M -62.400000000000006 -34 L -52.8 -29.2 L -52.8 -51.2 L -62.400000000000006 -56 Z" fill="#996943" stroke="rgba(0,0,0,0.16)" stroke-width="0.85" stroke-linejoin="round"/></g><g><path d="M 0 -34.39999999999999 L -9.599999999999994 -29.599999999999998 L 0 -24.799999999999997 L 9.599999999999994 -29.599999999999998 Z" fill="#7a5537" stroke="rgba(0,0,0,0.16)" stroke-width="0.85" stroke-linejoin="round"/><path d="M 0 -12.399999999999995 L -9.599999999999994 -7.599999999999998 L -9.599999999999994 -29.599999999999998 L 0 -34.39999999999999 Z" fill="#463020" stroke="rgba(0,0,0,0.16)" stroke-width="0.85" stroke-linejoin="round"/><path d="M -9.599999999999994 -7.599999999999998 L 0 -2.799999999999997 L 0 -24.799999999999997 L -9.599999999999994 -29.599999999999998 Z" fill="#996943" stroke="rgba(0,0,0,0.16)" stroke-width="0.85" stroke-linejoin="round"/></g><g><path d="M 31.200000000000003 -80.8 L 24 -77.2 L 38.400000000000006 -70 L 45.60000000000001 -73.6 Z" fill="#9c8b62" stroke="rgba(0,0,0,0.16)" stroke-width="0.85" stroke-linejoin="round"/><path d="M 31.200000000000003 -32.8 L 24 -29.2 L 24 -77.2 L 31.200000000000003 -80.8 Z" fill="#7d6c49" stroke="rgba(0,0,0,0.16)" stroke-width="0.85" stroke-linejoin="round"/><path d="M 24 -29.2 L 38.400000000000006 -21.999999999999996 L 38.400000000000006 -70 L 24 -77.2 Z" fill="#b39e6d" stroke="rgba(0,0,0,0.16)" stroke-width="0.85" stroke-linejoin="round"/></g><g><path d="M -38.4 -46 L -45.599999999999994 -42.400000000000006 L -31.19999999999999 -35.2 L -23.999999999999993 -38.8 Z" fill="#9c8b62" stroke="rgba(0,0,0,0.16)" stroke-width="0.85" stroke-linejoin="round"/><path d="M -38.4 2 L -45.599999999999994 5.599999999999998 L -45.599999999999994 -42.400000000000006 L -38.4 -46 Z" fill="#7d6c49" stroke="rgba(0,0,0,0.16)" stroke-width="0.85" stroke-linejoin="round"/><path d="M -45.599999999999994 5.599999999999998 L -31.19999999999999 12.8 L -31.19999999999999 -35.2 L -45.599999999999994 -42.400000000000006 Z" fill="#b39e6d" stroke="rgba(0,0,0,0.16)" stroke-width="0.85" stroke-linejoin="round"/></g><g><path d="M -31.200000000000003 -80.8 L -45.60000000000001 -73.6 L -38.400000000000006 -70 L -24 -77.2 Z" fill="#9c8b62" stroke="rgba(0,0,0,0.16)" stroke-width="0.85" stroke-linejoin="round"/><path d="M -31.200000000000003 -32.8 L -45.60000000000001 -25.599999999999998 L -45.60000000000001 -73.6 L -31.200000000000003 -80.8 Z" fill="#7d6c49" stroke="rgba(0,0,0,0.16)" stroke-width="0.85" stroke-linejoin="round"/><path d="M -45.60000000000001 -25.599999999999998 L -38.400000000000006 -21.999999999999996 L -38.400000000000006 -70 L -45.60000000000001 -73.6 Z" fill="#b39e6d" stroke="rgba(0,0,0,0.16)" stroke-width="0.85" stroke-linejoin="round"/></g><g><path d="M 38.4 -46 L 23.999999999999993 -38.8 L 31.19999999999999 -35.2 L 45.599999999999994 -42.400000000000006 Z" fill="#9c8b62" stroke="rgba(0,0,0,0.16)" stroke-width="0.85" stroke-linejoin="round"/><path d="M 38.4 2 L 23.999999999999993 9.200000000000003 L 23.999999999999993 -38.8 L 38.4 -46 Z" fill="#7d6c49" stroke="rgba(0,0,0,0.16)" stroke-width="0.85" stroke-linejoin="round"/><path d="M 23.999999999999993 9.200000000000003 L 31.19999999999999 12.8 L 31.19999999999999 -35.2 L 23.999999999999993 -38.8 Z" fill="#b39e6d" stroke="rgba(0,0,0,0.16)" stroke-width="0.85" stroke-linejoin="round"/></g><path d="M -48 -4 L -20 -4 L -20 24 L -48 24 Z" fill="#11100f" opacity="0.45"/><path d="M 20 -4 L 48 -4 L 48 24 L 20 24 Z" fill="#11100f" opacity="0.45"/></g></svg>
