<svg data-asset-anchor="bottom-center footprint center" style="width:384;height:384;overflow:visible;pointer-events:none" width="384" height="384" viewBox="-192 -256 384 384" fill="none" xmlns="http://www.w3.org/2000/svg" role="img" aria-label="Corner Watchtower Base v1" data-asset-id="CornerWatchtower_Base_v1" data-footprint-size="240" data-anchor="bottom-center footprint center"><defs><filter id="cornerWatchtowerShadow" x="-30%" y="-30%" width="160%" height="160%"><feGaussianBlur in="SourceAlpha" stdDeviation="2.5"/><feOffset dx="2" dy="5" result="offsetblur"/><feComponentTransfer><feFuncA type="linear" slope="0.44"/></feComponentTransfer><feMerge><feMergeNode/><feMergeNode in="SourceGraphic"/></feMerge></filter><linearGradient id="cornerWatchtowerRoof" x1="0%" y1="0%" x2="0%" y2="100%"><stop offset="0%" stop-color="#44302a"/><stop offset="100%" stop-color="#1f1512"/></linearGradient></defs><g filter="url(#cornerWatchtowerShadow)"><path d="M 0 -60 L 120 0 L 0 60 L -120 0 Z" fill="#11100f" stroke="#050403" stroke-width="1.1"/><g><path d="M 0 -58 L -96 -10 L 0 38 L 96 -10 Z" fill="#c5bbb0" stroke="rgba(0,0,0,0.16)" stroke-width="0.85" stroke-linejoin="round"/><path d="M 0 -48 L -96 0 L -96 -10 L 0 -58 Z" fill="#8d8579" stroke="rgba(0,0,0,0.16)" stroke-width="0.85" stroke-linejoin="round"/><path d="M -96 0 L 0 48 L 0 38 L -96 -10 Z" fill="#a79d90" stroke="rgba(0,0,0,0.16)" stroke-width="0.85" stroke-linejoin="round"/></g><g><path d="M 0 -58.8 L -81.6 -18 L 0 22.799999999999997 L 81.6 -18 Z" fill="#6c6761" stroke="rgba(0,0,0,0.16)" stroke-width="0.85" stroke-linejoin="round"/><path d="M 0 -50.8 L -81.6 -10 L -81.6 -18 L 0 -58.8 Z" fill="#3d3835" stroke="rgba(0,0,0,0.16)" stroke-width="0.85" stroke-linejoin="round"/><path d="M -81.6 -10 L 0 30.799999999999997 L 0 22.799999999999997 L -81.6 -18 Z" fill="#4f4945" stroke="rgba(0,0,0,0.16)" stroke-width="0.85" stroke-linejoin="round"/></g><g><path d="M 0 -96.4 L -33.6 -79.6 L 0 -62.8 L 33.6 -79.6 Z" fill="#c5bbb0" stroke="rgba(0,0,0,0.16)" stroke-width="0.85" stroke-linejoin="round"/><path d="M 0 -56.4 L -33.6 -39.599999999999994 L -33.6 -79.6 L 0 -96.4 Z" fill="#8d8579" stroke="rgba(0,0,0,0.16)" stroke-width="0.85" stroke-linejoin="round"/><path d="M -33.6 -39.599999999999994 L 0 -22.799999999999997 L 0 -62.8 L -33.6 -79.6 Z" fill="#a79d90" stroke="rgba(0,0,0,0.16)" stroke-width="0.85" stroke-linejoin="round"/></g><g><path d="M 43.2 -74.8 L 9.600000000000001 -58 L 43.19999999999999 -41.2 L 76.79999999999998 -58 Z" fill="#c5bbb0" stroke="rgba(0,0,0,0.16)" stroke-width="0.85" stroke-linejoin="round"/><path d="M 43.2 -34.8 L 9.600000000000001 -17.999999999999996 L 9.600000000000001 -58 L 43.2 -74.8 Z" fill="#8d8579" stroke="rgba(0,0,0,0.16)" stroke-width="0.85" stroke-linejoin="round"/><path d="M 9.600000000000001 -17.999999999999996 L 43.19999999999999 -1.2000000000000028 L 43.19999999999999 -41.2 L 9.600000000000001 -58 Z" fill="#a79d90" stroke="rgba(0,0,0,0.16)" stroke-width="0.85" stroke-linejoin="round"/></g><g><path d="M -43.2 -74.8 L -76.79999999999998 -58 L -43.19999999999999 -41.2 L -9.600000000000001 -58 Z" fill="#c5bbb0" stroke="rgba(0,0,0,0.16)" stroke-width="0.85" stroke-linejoin="round"/><path d="M -43.2 -34.8 L -76.79999999999998 -18.000000000000004 L -76.79999999999998 -58 L -43.2 -74.8 Z" fill="#8d8579" stroke="rgba(0,0,0,0.16)" stroke-width="0.85" stroke-linejoin="round"/><path d="M -76.79999999999998 -18.000000000000004 L -43.19999999999999 -1.2000000000000028 L -43.19999999999999 -41.2 L -76.79999999999998 -58 Z" fill="#a79d90" stroke="rgba(0,0,0,0.16)" stroke-width="0.85" stroke-linejoin="round"/></g><g><path d="M 0 -53.199999999999996 L -33.59999999999999 -36.400000000000006 L 0 -19.60000000000001 L 33.59999999999999 -36.400000000000006 Z" fill="#c5bbb0" stroke="rgba(0,0,0,0.16)" stroke-width="0.85" stroke-linejoin="round"/><path d="M 0 -13.199999999999996 L -33.59999999999999 3.599999999999998 L -33.59999999999999 -36.400000000000006 L 0 -53.199999999999996 Z" fill="#8d8579" stroke="rgba(0,0,0,0.16)" stroke-width="0.85" stroke-linejoin="round"/><path d="M -33.59999999999999 3.599999999999998 L 0 20.39999999999999 L 0 -19.60000000000001 L -33.59999999999999 -36.400000000000006 Z" fill="#a79d90" stroke="rgba(0,0,0,0.16)" stroke-width="0.85" stroke-linejoin="round"/></g><g><path d="M 0 -111.19999999999999 L -9.599999999999994 -106.4 L 76.8 -63.2 L 86.39999999999999 -68 Z" fill="#5b3f30" stroke="rgba(0,0,0,0.16)" stroke-width="0.85" stroke-linejoin="round"/><path d="M 0 -101.19999999999999 L -9.599999999999994 -96.4 L -9.599999999999994 -106.4 L 0 -111.19999999999999 Z" fill="#2f1f18" stroke="rgba(0,0,0,0.16)" stroke-width="0.85" stroke-linejoin="round"/><path d="M -9.599999999999994 -96.4 L 76.8 -53.2 L 76.8 -63.2 L -9.599999999999994 -106.4 Z" fill="#7b5240" stroke="rgba(0,0,0,0.16)" stroke-width="0.85" stroke-linejoin="round"/></g><g><path d="M -76.8 -72.8 L -86.39999999999999 -68 L 0 -24.800000000000004 L 9.599999999999994 -29.6 Z" fill="#5b3f30" stroke="rgba(0,0,0,0.16)" stroke-width="0.85" stroke-linejoin="round"/><path d="M -76.8 -62.8 L -86.39999999999999 -58 L -86.39999999999999 -68 L -76.8 -72.8 Z" fill="#2f1f18" stroke="rgba(0,0,0,0.16)" stroke-width="0.85" stroke-linejoin="round"/><path d="M -86.39999999999999 -58 L 0 -14.800000000000004 L 0 -24.800000000000004 L -86.39999999999999 -68 Z" fill="#7b5240" stroke="rgba(0,0,0,0.16)" stroke-width="0.85" stroke-linejoin="round"/></g><g><path d="M -9.599999999999994 -106.4 L -76.8 -72.8 L -67.2 -68 L 0 -101.6 Z" fill="#5b3f30" stroke="rgba(0,0,0,0.16)" stroke-width="0.85" stroke-linejoin="round"/><path d="M -9.599999999999994 -96.4 L -76.8 -62.8 L -76.8 -72.8 L -9.599999999999994 -106.4 Z" fill="#2f1f18" stroke="rgba(0,0,0,0.16)" stroke-width="0.85" stroke-linejoin="round"/><path d="M -76.8 -62.8 L -67.2 -58 L -67.2 -68 L -76.8 -72.8 Z" fill="#7b5240" stroke="rgba(0,0,0,0.16)" stroke-width="0.85" stroke-linejoin="round"/></g><g><path d="M 67.2 -68 L 0 -34.4 L 9.599999999999994 -29.6 L 76.8 -63.2 Z" fill="#5b3f30" stroke="rgba(0,0,0,0.16)" stroke-width="0.85" stroke-linejoin="round"/><path d="M 67.2 -58 L 0 -24.4 L 0 -34.4 L 67.2 -68 Z" fill="#2f1f18" stroke="rgba(0,0,0,0.16)" stroke-width="0.85" stroke-linejoin="round"/><path d="M 0 -24.4 L 9.599999999999994 -19.6 L 9.599999999999994 -29.6 L 0 -34.4 Z" fill="#7b5240" stroke="rgba(0,0,0,0.16)" stroke-width="0.85" stroke-linejoin="round"/></g><path d="M 0 -111.19999999999999 L 86.39999999999999 -68 L 62.400000000000006 -106 L 0 -137.2 Z" fill="url(#cornerWatchtowerRoof)" stroke="rgba(0,0,0,0.16)" stroke-width="0.95" stroke-linejoin="round"/><path d="M -86.39999999999999 -68 L 0 -24.800000000000004 L 0 -74.8 L -62.400000000000006 -106 Z" fill="url(#cornerWatchtowerRoof)" stroke="rgba(0,0,0,0.16)" stroke-width="0.95" stroke-linejoin="round"/><path d="M 0 -137.2 L 62.400000000000006 -106 L 0 -74.8 L -62.400000000000006 -106 Z" fill="url(#cornerWatchtowerRoof)" stroke="rgba(0,0,0,0.14)" stroke-width="0.95" stroke-linejoin="round"/><g><path d="M 0 -115.19999999999999 L -38.4 -96 L 0 -76.8 L 38.4 -96 Z" fill="#ded3c0" stroke="rgba(0,0,0,0.16)" stroke-width="0.85" stroke-linejoin="round"/><path d="M 0 -87.19999999999999 L -38.4 -68 L -38.4 -96 L 0 -115.19999999999999 Z" fill="#9e9587" stroke="rgba(0,0,0,0.16)" stroke-width="0.85" stroke-linejoin="round"/><path d="M -38.4 -68 L 0 -48.8 L 0 -76.8 L -38.4 -96 Z" fill="#b8ae9f" stroke="rgba(0,0,0,0.16)" stroke-width="0.85" stroke-linejoin="round"/></g><g><path d="M 0 -135.2 L -26.4 -122 L 0 -108.8 L 26.4 -122 Z" fill="#cbb890" stroke="rgba(0,0,0,0.16)" stroke-width="0.85" stroke-linejoin="round"/><path d="M 0 -109.2 L -26.4 -96 L -26.4 -122 L 0 -135.2 Z" fill="#99824f" stroke="rgba(0,0,0,0.16)" stroke-width="0.85" stroke-linejoin="round"/><path d="M -26.4 -96 L 0 -82.8 L 0 -108.8 L -26.4 -122 Z" fill="#b39c65" stroke="rgba(0,0,0,0.16)" stroke-width="0.85" stroke-linejoin="round"/></g><g><path d="M 0 -145.2 L -14.400000000000006 -138 L 0 -130.79999999999998 L 14.400000000000006 -138 Z" fill="#d8ccad" stroke="rgba(0,0,0,0.16)" stroke-width="0.85" stroke-linejoin="round"/><path d="M 0 -129.2 L -14.400000000000006 -122 L -14.400000000000006 -138 L 0 -145.2 Z" fill="#b39c65" stroke="rgba(0,0,0,0.16)" stroke-width="0.85" stroke-linejoin="round"/><path d="M -14.400000000000006 -122 L 0 -114.8 L 0 -130.79999999999998 L -14.400000000000006 -138 Z" fill="#c3ad73" stroke="rgba(0,0,0,0.16)" stroke-width="0.85" stroke-linejoin="round"/></g><path d="M 4.799999999999997 -154.8 L 33.599999999999994 -140.4 L 38.39999999999999 -159.6 L 19.199999999999996 -169.2 Z" fill="#4c3a32" stroke="rgba(0,0,0,0.14)" stroke-width="0.8" stroke-linejoin="round"/><path d="M -33.6 -135.6 L -4.800000000000004 -121.2 L -19.200000000000003 -130.8 L -38.4 -140.4 Z" fill="#4c3a32" stroke="rgba(0,0,0,0.14)" stroke-width="0.8" stroke-linejoin="round"/><path d="M 19.199999999999996 -169.2 L 38.39999999999999 -159.6 L -19.200000000000003 -130.8 L -38.4 -140.4 Z" fill="url(#cornerWatchtowerRoof)" stroke="rgba(0,0,0,0.14)" stroke-width="0.9" stroke-linejoin="round"/><path d="M -10 -48 L 0 -58 L 10 -48 L 6 -20 L -6 -20 Z" fill="#c7a65a" opacity="0.92"/><path d="M -4 -64 L 4 -64 L 4 -58 L -4 -58 Z" fill="#c7a65a" opacity="0.92"/></g></svg>
