<svg data-asset-anchor="bottom-center footprint center" style="width:384;height:384;overflow:visible;pointer-events:none" width="384" height="384" viewBox="0 0 384 384" fill="none" xmlns="http://www.w3.org/2000/svg" role="img" aria-label="Dock Base v1" data-asset-id="Dock_Base_v1" data-footprint-size="320" data-anchor="bottom-center footprint center"><g transform="scale(1)"><defs><filter id="dockShadow" x="-50%" y="-50%" width="200%" height="200%"><feGaussianBlur in="SourceAlpha" stdDeviation="4"/><feOffset dx="2" dy="6" result="offsetblur"/><feComponentTransfer><feFuncA type="linear" slope="0.22"/></feComponentTransfer><feMerge><feMergeNode/><feMergeNode in="SourceGraphic"/></feMerge></filter></defs><g filter="url(#dockShadow)"><path d="M 169.6 168 L 262.4 214.4 L 176 257.6 L 83.20000000000002 211.2 Z" fill="#31595C" opacity="0.36"/><path d="M 163.2 189.4 L 224 219.8 L 176 243.8 L 115.19999999999999 213.4 Z" fill="#203F43" opacity="0.26"/><path d="M 200 134.8 L 334.4 202 L 283.20000000000005 227.6 L 148.8 160.39999999999998 Z" fill="#5C6B60" opacity="0.9"/><path d="M 148.8 162.39999999999998 L 283.20000000000005 229.6 L 283.20000000000005 227.6 L 148.8 160.39999999999998 Z" fill="#3E4C45"/><path d="M 334.4 204 L 283.20000000000005 229.6 L 283.20000000000005 227.6 L 334.4 202 Z" fill="#3E4C45"/><path d="M 157.60000000000002 158.8 L 162.4 161.2 L 162.4 153.2 L 157.60000000000002 150.8 Z" fill="#140E0A"/><path d="M 221.6 190.8 L 226.4 193.2 L 226.4 185.2 L 221.6 182.8 Z" fill="#140E0A"/><path d="M 285.6 222.8 L 290.4 225.2 L 290.4 217.2 L 285.6 214.8 Z" fill="#140E0A"/><path d="M 188.8 134.39999999999998 L 323.20000000000005 201.6 L 283.20000000000005 221.6 L 148.8 154.39999999999998 Z" fill="#3E2C22"/><path d="M 148.8 156.39999999999998 L 283.20000000000005 223.6 L 283.20000000000005 221.6 L 148.8 154.39999999999998 Z" fill="#2A1C14"/><path d="M 323.20000000000005 203.6 L 283.20000000000005 223.6 L 283.20000000000005 221.6 L 323.20000000000005 201.6 Z" fill="#140E0A"/><path d="M 200 140 L 160 160 Z" stroke="#21150F" stroke-width="1.5" opacity="0.6"/><path d="M 216 148 L 176 168 Z" stroke="#21150F" stroke-width="1.5" opacity="0.6"/><path d="M 232 156 L 192 176 Z" stroke="#21150F" stroke-width="1.5" opacity="0.6"/><path d="M 248 164 L 208 184 Z" stroke="#21150F" stroke-width="1.5" opacity="0.6"/><path d="M 264 172 L 224 192 Z" stroke="#21150F" stroke-width="1.5" opacity="0.6"/><path d="M 280 180 L 240 200 Z" stroke="#21150F" stroke-width="1.5" opacity="0.6"/><path d="M 296 188 L 256 208 Z" stroke="#21150F" stroke-width="1.5" opacity="0.6"/><path d="M 312 196 L 272 216 Z" stroke="#21150F" stroke-width="1.5" opacity="0.6"/><g id="cargo-box"><path d="M 184 156 L 196.8 162.4 L 196.8 156.4 L 184 150 Z" fill="#2A1C14"/><path d="M 209.6 156 L 196.8 162.4 L 196.8 156.4 L 209.6 150 Z" fill="#140E0A"/><path d="M 196.79999999999998 143.60000000000002 L 209.6 150 L 196.8 156.4 L 184 150 Z" fill="#35261B"/></g><g id="shed"><path d="M 192 141.6 L 196.79999999999998 144 L 192 126.4 L 187.20000000000002 124 Z" fill="#140E0A"/><path d="M 224 157.6 L 228.8 160 L 224 142.4 L 219.2 140 Z" fill="#140E0A"/><path d="M 168 153.6 L 172.8 156 L 168 138.4 L 163.2 136 Z" fill="#140E0A"/><path d="M 200 169.6 L 204.8 172 L 200 154.4 L 195.2 152 Z" fill="#140E0A"/><path d="M 152 136 L 200 160 L 220.8 139.6 L 172.8 115.6 Z" fill="#4B635D" stroke="#1A120E" stroke-width="0.5"/><path d="M 240 140 L 200 160 L 220.8 139.6 Z" fill="#273834" stroke="#1A120E" stroke-width="0.5"/><path d="M 192 116 L 152 136 L 172.8 115.6 Z" fill="#354A45" stroke="#1A120E" stroke-width="0.5"/><circle cx="192" cy="159" r="2.5" fill="#FDE047" filter="drop-shadow(0 0 3px #FDE047)"/><path d="M 192 159 L 192 156 Z" stroke="#1A120E" stroke-width="1"/></g><g id="pier"><path d="M 164.79999999999998 200 L 169.6 202.4 L 164.79999999999998 196.8 L 160 194.4 Z" fill="#140E0A"/><path d="M 187.2 211.2 L 192 213.6 L 187.2 208 L 182.39999999999998 205.6 Z" fill="#140E0A"/><path d="M 137.60000000000002 213.6 L 142.4 216 L 137.60000000000002 210.4 L 132.8 208 Z" fill="#140E0A"/><path d="M 160 224.8 L 164.8 227.2 L 160 221.6 L 155.2 219.2 Z" fill="#140E0A"/><path d="M 192 176 L 224 192 L 160 224 L 128 208 Z" fill="#3E2C22"/><path d="M 128 210 L 160 226 L 160 224 L 128 208 Z" fill="#2A1C14"/><path d="M 224 194 L 160 226 L 160 224 L 224 192 Z" fill="#140E0A"/><path d="M 184 180 L 216 196 Z" stroke="#21150F" stroke-width="1.5" opacity="0.6"/><path d="M 176 184 L 208 200 Z" stroke="#21150F" stroke-width="1.5" opacity="0.6"/><path d="M 168 188 L 200 204 Z" stroke="#21150F" stroke-width="1.5" opacity="0.6"/><path d="M 160 192 L 192 208 Z" stroke="#21150F" stroke-width="1.5" opacity="0.6"/><path d="M 152 196 L 184 212 Z" stroke="#21150F" stroke-width="1.5" opacity="0.6"/><path d="M 144 200 L 176 216 Z" stroke="#21150F" stroke-width="1.5" opacity="0.6"/><path d="M 136 204 L 168 220 Z" stroke="#21150F" stroke-width="1.5" opacity="0.6"/></g><g><path d="M 141.60000000000002 206.8 L 146.4 209.2 L 146.4 203.2 L 141.60000000000002 200.8 Z" fill="#2A1C14"/><path d="M 148.8 208 L 144 210.4 L 144 204.4 L 148.8 202 Z" fill="#140E0A"/><path d="M 144 199.6 L 148.8 202 L 144 204.4 L 139.2 202 Z" fill="#FDE047"/></g><g><path d="M 157.60000000000002 214.79999999999998 L 162.4 217.2 L 162.4 211.2 L 157.60000000000002 208.79999999999998 Z" fill="#2A1C14"/><path d="M 164.8 216 L 160 218.4 L 160 212.4 L 164.8 210 Z" fill="#140E0A"/><path d="M 160 207.6 L 164.8 210 L 160 212.4 L 155.2 210 Z" fill="#FDE047"/></g></g></g></svg>
