<svg data-asset-anchor="bottom-center footprint center" style="width:384;height:384;overflow:visible;pointer-events:none" width="384" height="384" viewBox="-192 -180 384 384" fill="none" xmlns="http://www.w3.org/2000/svg" role="img" aria-label="Drill Ground Base v1" data-asset-id="DrillGround_Base_v1" data-footprint-size="240"><defs><linearGradient id="drillSoil" x1="0%" y1="0%" x2="100%" y2="100%"><stop offset="0%" stop-color="#5a4a30"/><stop offset="55%" stop-color="#38311f"/><stop offset="100%" stop-color="#211b13"/></linearGradient><linearGradient id="drillStone" x1="0%" y1="0%" x2="100%" y2="100%"><stop offset="0%" stop-color="#3c3b2f"/><stop offset="100%" stop-color="#171711"/></linearGradient><linearGradient id="drillBronze" x1="0%" y1="0%" x2="0%" y2="100%"><stop offset="0%" stop-color="#b8944a"/><stop offset="100%" stop-color="#5b3b16"/></linearGradient><filter id="drillShadow" x="-20%" y="-20%" width="140%" height="140%"><feGaussianBlur in="SourceAlpha" stdDeviation="2.4"/><feOffset dx="2" dy="4" result="offsetblur"/><feComponentTransfer><feFuncA type="linear" slope="0.42"/></feComponentTransfer><feMerge><feMergeNode/><feMergeNode in="SourceGraphic"/></feMerge></filter></defs><g filter="url(#drillShadow)"><path d="M 0 -60 L 120 0 L 0 60 L -120 0 Z" fill="#151914" stroke="#070605" stroke-width="1.2"/><path d="M -120 0 L -120 -10 L 0 50 L 0 60 Z" fill="#10120e" stroke="#070605" stroke-width="0.8"/><path d="M 120 0 L 120 -10 L 0 50 L 0 60 Z" fill="#0c0e0c" stroke="#070605" stroke-width="0.8"/><path d="M 0 -70 L 120 -10 L 0 50 L -120 -10 Z" fill="url(#drillStone)" stroke="#6f5b2e" stroke-width="1"/><path d="M 0 -61.4 L 100.80000000000001 -10.999999999999996 L 0 39.400000000000006 L -100.80000000000001 -10.999999999999996 Z" fill="url(#drillSoil)" stroke="rgba(181,142,64,0.48)" stroke-width="0.9"/><path d="M -10.799999999999997 -47.4 L 70.8 -6.600000000000001" stroke="rgba(210,170,88,0.26)" stroke-width="1"/><path d="M -28.799999999999997 -38.4 L 52.8 2.3999999999999986" stroke="rgba(210,170,88,0.26)" stroke-width="1"/><path d="M -46.800000000000004 -29.399999999999995 L 34.79999999999999 11.400000000000002" stroke="rgba(210,170,88,0.26)" stroke-width="1"/><path d="M -64.8 -20.4 L 16.8 20.4" stroke="rgba(210,170,88,0.26)" stroke-width="1"/><path d="M 12.000000000000004 -44.400000000000006 L -64.8 -6.000000000000002" stroke="rgba(0,0,0,0.22)" stroke-width="1.1"/><path d="M 38.4 -31.2 L -38.39999999999999 7.199999999999996" stroke="rgba(0,0,0,0.22)" stroke-width="1.1"/><path d="M 64.80000000000001 -18 L -11.999999999999996 20.4" stroke="rgba(0,0,0,0.22)" stroke-width="1.1"/><path d="M -2.400000000000002 -48.2 L 26.4 -33.8 L 7.199999999999999 -24.200000000000003 L -21.599999999999998 -38.6 Z" fill="#2a2418" stroke="#7d632e" stroke-width="0.8"/><path d="M -21.599999999999998 -38.6 L -21.599999999999998 -47.6 L 7.199999999999999 -33.2 L 7.199999999999999 -24.200000000000003 Z" fill="#14100c"/><path d="M -2.400000000000002 -57.2 L 26.4 -42.8 L 7.199999999999999 -33.2 L -21.599999999999998 -47.6 Z" fill="#423420" stroke="#9a7534" stroke-width="0.7"/><path d="M 60 -20.4 L 60 -60.4" stroke="#55300f" stroke-width="3"/><path d="M 77.99999999999999 -11.400000000000002 L 77.99999999999999 -51.400000000000006" stroke="#55300f" stroke-width="3"/><path d="M 55.2 -46.4 L 79.19999999999999 -34.4" stroke="url(#drillBronze)" stroke-width="3"/><path d="M 64.8 -20.4 L 64.8 -66.4" stroke="#a99b75" stroke-width="1.2"/><path d="M 72 -16.799999999999997 L 72 -62.8" stroke="#a99b75" stroke-width="1.2"/><path d="M 79.19999999999999 -13.200000000000001 L 79.19999999999999 -59.2" stroke="#a99b75" stroke-width="1.2"/><path d="M -52.8 -12 L -52.8 -54" stroke="#493019" stroke-width="3"/><path d="M -62.400000000000006 -50.8 L -43.199999999999996 -64.8 L -43.199999999999996 -41.2 L -62.400000000000006 -30.199999999999996 Z" fill="#8a2f24" stroke="#d1aa5e" stroke-width="1"/><circle cx="-52.8" cy="-48" r="8" fill="#c8aa63" opacity="0.75"/><circle cx="-52.8" cy="-48" r="3" fill="#4f1e18" opacity="0.85"/></g></svg>
