<svg data-asset-anchor="bottom-center footprint center" style="width:384;height:384;overflow:visible;pointer-events:none" width="384" height="384" viewBox="0 0 384 384" fill="none" xmlns="http://www.w3.org/2000/svg" role="img" aria-label="Fort Base v1" data-asset-id="Fort_Base_v1" data-footprint-size="320" data-anchor="bottom-center footprint center"><g transform="scale(1)"><defs><filter id="fortShadow" x="-50%" y="-50%" width="200%" height="200%"><feGaussianBlur in="SourceAlpha" stdDeviation="5"/><feOffset dx="4" dy="8" result="offsetblur"/><feComponentTransfer><feFuncA type="linear" slope="0.2"/></feComponentTransfer><feMerge><feMergeNode/><feMergeNode in="SourceGraphic"/></feMerge></filter></defs><g filter="url(#fortShadow)"><path d="M 192 140.8 L 326.4 208 L 192 275.2 L 57.599999999999994 208 Z" fill="#17211D" opacity="0.26"/><path d="M 70.4 208 L 192 268.8 L 192 260.8 L 70.4 200 Z" fill="#4B5A53" stroke="#111815" stroke-width="0.5"/><path d="M 313.6 208 L 192 268.8 L 192 260.8 L 313.6 200 Z" fill="#3D4B45" stroke="#111815" stroke-width="0.5"/><path d="M 192 139.2 L 313.6 200 L 192 260.8 L 70.4 200 Z" fill="#515F58" stroke="#1C2521" stroke-width="0.5"/><g><path d="M 172.8 127.6 L 192 137.2 L 192 112.19999999999999 L 172.8 102.6 Z" fill="#7F1D1D" stroke="#2D0A0A" stroke-width="0.5"/><path d="M 211.2 127.6 L 192 137.2 L 192 112.19999999999999 L 211.2 102.6 Z" fill="#450A0A" stroke="#2D0A0A" stroke-width="0.5"/><path d="M 192 93 L 211.2 102.6 L 192 112.19999999999999 L 172.8 102.6 Z" fill="#B91C1C" stroke="#2D0A0A" stroke-width="0.5"/><path d="M 192 96.19999999999999 L 204.79999999999998 102.6 L 192 109 L 179.20000000000002 102.6 Z" fill="#64748B"/><path d="M 179.20000000000002 102.6 L 192 109 L 192 104 L 179.20000000000002 97.6 Z" fill="#94A3B8"/><path d="M 204.79999999999998 102.6 L 192 109 L 192 104 L 204.79999999999998 97.6 Z" fill="#334155"/></g><path d="M 198.4 134 L 320 194.8 L 320 174.8 L 198.4 114 Z" fill="#450A0A"/><path d="M 185.6 134 L 64 194.8 L 64 174.8 L 185.6 114 Z" fill="#7F1D1D"/><g><path d="M 32 198 L 51.19999999999999 207.6 L 51.19999999999999 182.6 L 32 173 Z" fill="#7F1D1D" stroke="#2D0A0A" stroke-width="0.5"/><path d="M 70.4 198 L 51.19999999999999 207.6 L 51.19999999999999 182.6 L 70.4 173 Z" fill="#450A0A" stroke="#2D0A0A" stroke-width="0.5"/><path d="M 51.19999999999999 163.4 L 70.4 173 L 51.19999999999999 182.6 L 32 173 Z" fill="#B91C1C" stroke="#2D0A0A" stroke-width="0.5"/><path d="M 51.19999999999999 166.6 L 64 173 L 51.19999999999999 179.4 L 38.400000000000006 173 Z" fill="#64748B"/><path d="M 38.400000000000006 173 L 51.19999999999999 179.4 L 51.19999999999999 174.4 L 38.400000000000006 168 Z" fill="#94A3B8"/><path d="M 64 173 L 51.19999999999999 179.4 L 51.19999999999999 174.4 L 64 168 Z" fill="#334155"/></g><g><path d="M 313.6 198 L 332.8 207.6 L 332.8 182.6 L 313.6 173 Z" fill="#7F1D1D" stroke="#2D0A0A" stroke-width="0.5"/><path d="M 352 198 L 332.8 207.6 L 332.8 182.6 L 352 173 Z" fill="#450A0A" stroke="#2D0A0A" stroke-width="0.5"/><path d="M 332.8 163.4 L 352 173 L 332.8 182.6 L 313.6 173 Z" fill="#B91C1C" stroke="#2D0A0A" stroke-width="0.5"/><path d="M 332.8 166.6 L 345.6 173 L 332.8 179.4 L 320 173 Z" fill="#64748B"/><path d="M 320 173 L 332.8 179.4 L 332.8 174.4 L 320 168 Z" fill="#94A3B8"/><path d="M 345.6 173 L 332.8 179.4 L 332.8 174.4 L 345.6 168 Z" fill="#334155"/></g><g id="central-keep"><path d="M 144 198 L 192 222 L 192 197 L 144 173 Z" fill="#64748B" stroke="#1E293B" stroke-width="0.5"/><path d="M 240 198 L 192 222 L 192 197 L 240 173 Z" fill="#334155" stroke="#1E293B" stroke-width="0.5"/><path d="M 159.84 206.08 L 175.84 214.08 L 175.84 202.08 L 159.84 194.08 Z" fill="#450A0A" stroke="#000"/><path d="M 134.39999999999998 173 L 192 201.8 L 192 198.8 L 134.39999999999998 170 Z" fill="#7F1D1D" stroke="#2D0A0A"/><path d="M 249.60000000000002 173 L 192 201.8 L 192 198.8 L 249.60000000000002 170 Z" fill="#450A0A" stroke="#2D0A0A"/><path d="M 153.6 170 L 192 189.2 L 192 172.2 L 153.6 153 Z" fill="#7F1D1D"/><path d="M 230.4 170 L 192 189.2 L 192 172.2 L 230.4 153 Z" fill="#450A0A"/><path d="M 166.24 170.48 L 179.04000000000002 176.88 L 179.04000000000002 170.88 L 166.24 164.48 Z" fill="#111827"/><path d="M 134.39999999999998 153 L 192 181.8 L 192 128 Z" fill="#374151" stroke="#111827" stroke-width="1"/><path d="M 249.60000000000002 153 L 192 181.8 L 192 128 Z" fill="#1F2937" stroke="#111827" stroke-width="1"/><path d="M 134.39999999999998 153 L 192 128 Z" stroke="#334155" stroke-width="2"/><path d="M 192 181.8 L 192 128 Z" stroke="#334155" stroke-width="2"/><path d="M 249.60000000000002 153 L 192 128 Z" stroke="#334155" stroke-width="2"/><path d="M 192 128 L 192 98 Z" stroke="#450A0A" stroke-width="2"/><path d="M 192 100 L 192 113 L 216 119 Z" fill="#991B1B" stroke="#FDE047" stroke-width="1"/></g><path d="M 51.19999999999999 207.6 L 96 230 L 96 210 L 51.19999999999999 187.6 Z" fill="#7F1D1D"/><path d="M 64 181.2 L 108.8 203.6 L 96 210 L 51.19999999999999 187.6 Z" fill="#B91C1C"/><path d="M 108.8 223.6 L 96 230 L 96 210 L 108.8 203.6 Z" fill="#450A0A"/><path d="M 64 214 L 64 194 Z" stroke="#450A0A" stroke-width="1"/><path d="M 80 222 L 80 202 Z" stroke="#450A0A" stroke-width="1"/><path d="M 96 213 L 128 229 L 128 226 L 96 210 Z" fill="#7F1D1D"/><path d="M 108.8 203.6 L 140.79999999999998 219.6 L 128 226 L 96 210 Z" fill="#B91C1C"/><path d="M 108.8 206.6 L 96 213 L 96 210 L 108.8 203.6 Z" fill="#450A0A"/><path d="M 128 246 L 172.8 268.4 L 172.8 248.39999999999998 L 128 226 Z" fill="#7F1D1D"/><path d="M 140.79999999999998 219.6 L 185.6 242 L 172.8 248.39999999999998 L 128 226 Z" fill="#B91C1C"/><path d="M 144 254 L 144 234 Z" stroke="#450A0A" stroke-width="1"/><path d="M 160 262 L 160 242 Z" stroke="#450A0A" stroke-width="1"/><path d="M 332.8 207.6 L 211.2 268.4 L 211.2 248.39999999999998 L 332.8 187.6 Z" fill="#450A0A"/><path d="M 320 181.2 L 332.8 187.6 L 211.2 248.39999999999998 L 198.4 242 Z" fill="#7F1D1D"/><path d="M 304 222 L 304 202 Z" stroke="#2D0A0A" stroke-width="1"/><path d="M 272 238 L 272 218 Z" stroke="#2D0A0A" stroke-width="1"/><path d="M 240 254 L 240 234 Z" stroke="#2D0A0A" stroke-width="1"/><g><path d="M 172.8 268.4 L 192 278 L 192 253 L 172.8 243.39999999999998 Z" fill="#7F1D1D" stroke="#2D0A0A" stroke-width="0.5"/><path d="M 211.2 268.4 L 192 278 L 192 253 L 211.2 243.39999999999998 Z" fill="#450A0A" stroke="#2D0A0A" stroke-width="0.5"/><path d="M 192 233.8 L 211.2 243.39999999999998 L 192 253 L 172.8 243.39999999999998 Z" fill="#B91C1C" stroke="#2D0A0A" stroke-width="0.5"/><path d="M 192 237 L 204.79999999999998 243.39999999999998 L 192 249.8 L 179.20000000000002 243.39999999999998 Z" fill="#64748B"/><path d="M 179.20000000000002 243.39999999999998 L 192 249.8 L 192 244.8 L 179.20000000000002 238.39999999999998 Z" fill="#94A3B8"/><path d="M 204.79999999999998 243.39999999999998 L 192 249.8 L 192 244.8 L 204.79999999999998 238.39999999999998 Z" fill="#334155"/></g></g></g></svg>
