<svg data-asset-anchor="bottom-center footprint center" style="width:384;height:384;overflow:visible;pointer-events:none" width="384" height="384" viewBox="-192 -230 384 384" fill="none" xmlns="http://www.w3.org/2000/svg" role="img" aria-label="Granary Base v1" data-asset-id="Granary_Base_v1" data-footprint-size="240"><defs><filter id="granaryShadow-world_cell_1" x="-20%" y="-20%" width="140%" height="140%"><feGaussianBlur in="SourceAlpha" stdDeviation="2.7"/><feOffset dx="2" dy="4" result="offsetblur"/><feComponentTransfer><feFuncA type="linear" slope="0.48"/></feComponentTransfer><feMerge><feMergeNode/><feMergeNode in="SourceGraphic"/></feMerge></filter></defs><g filter="url(#granaryShadow-world_cell_1)"><path d="M -8.4 -55.8 L 109.2 3 L 7.199999999999999 63.599999999999994 L -112.8 10.799999999999999 Z" fill="rgba(0,0,0,0.46)" stroke="none" stroke-width="0.5" stroke-linejoin="round"/><g><path d="M -3.5999999999999996 -67.8 L -116.39999999999999 -11.4 L -1.2 46.199999999999996 L 111.6 -10.2 Z" fill="#51422b" stroke="rgba(0,0,0,0.2)" stroke-width="0.5" stroke-linejoin="round"/><path d="M -3.5999999999999996 -55.8 L -116.39999999999999 0.6 L -116.39999999999999 -11.4 L -3.5999999999999996 -67.8 Z" fill="#252015" stroke="rgba(0,0,0,0.2)" stroke-width="0.5" stroke-linejoin="round"/><path d="M -116.39999999999999 0.6 L -1.2 58.199999999999996 L -1.2 46.199999999999996 L -116.39999999999999 -11.4 Z" fill="#352d1d" stroke="rgba(0,0,0,0.2)" stroke-width="0.5" stroke-linejoin="round"/></g><g><path d="M -3.5999999999999996 -66.6 L -100.8 -18 L 0 32.4 L 97.2 -16.2 Z" fill="#4b4a42" stroke="rgba(0,0,0,0.2)" stroke-width="0.5" stroke-linejoin="round"/><path d="M -3.5999999999999996 -60.6 L -100.8 -12 L -100.8 -18 L -3.5999999999999996 -66.6 Z" fill="#1f1d17" stroke="rgba(0,0,0,0.2)" stroke-width="0.5" stroke-linejoin="round"/><path d="M -100.8 -12 L 0 38.4 L 0 32.4 L -100.8 -18 Z" fill="#2f2c24" stroke="rgba(0,0,0,0.2)" stroke-width="0.5" stroke-linejoin="round"/></g><g><path d="M -70.8 10.2 L -75.6 12.599999999999998 L -49.199999999999996 25.799999999999997 L -44.4 23.4 Z" fill="#4b4a42" stroke="rgba(0,0,0,0.2)" stroke-width="0.5" stroke-linejoin="round"/><path d="M -70.8 22.2 L -75.6 24.599999999999998 L -75.6 12.599999999999998 L -70.8 10.2 Z" fill="#1f1d17" stroke="rgba(0,0,0,0.2)" stroke-width="0.5" stroke-linejoin="round"/><path d="M -75.6 24.599999999999998 L -49.199999999999996 37.8 L -49.199999999999996 25.799999999999997 L -75.6 12.599999999999998 Z" fill="#2f2c24" stroke="rgba(0,0,0,0.2)" stroke-width="0.5" stroke-linejoin="round"/></g><g><path d="M -9.6 -112 L -64.8 -84.4 L 4.8 -49.6 L 60 -77.2 Z" fill="#71604b" stroke="rgba(0,0,0,0.2)" stroke-width="0.5" stroke-linejoin="round"/><path d="M -9.6 -48 L -64.8 -20.4 L -64.8 -84.4 L -9.6 -112 Z" fill="#3e3225" stroke="rgba(0,0,0,0.2)" stroke-width="0.5" stroke-linejoin="round"/><path d="M -64.8 -20.4 L 4.8 14.399999999999999 L 4.8 -49.6 L -64.8 -84.4 Z" fill="#564636" stroke="rgba(0,0,0,0.2)" stroke-width="0.5" stroke-linejoin="round"/></g><g><path d="M -9.6 -120.8 L -49.199999999999996 -101 L 6 -73.4 L 45.6 -93.2 Z" fill="#4a3420" stroke="rgba(0,0,0,0.2)" stroke-width="0.5" stroke-linejoin="round"/><path d="M -9.6 -104.8 L -49.199999999999996 -85 L -49.199999999999996 -101 L -9.6 -120.8 Z" fill="#2e1f13" stroke="rgba(0,0,0,0.2)" stroke-width="0.5" stroke-linejoin="round"/><path d="M -49.199999999999996 -85 L 6 -57.400000000000006 L 6 -73.4 L -49.199999999999996 -101 Z" fill="#6a4a2b" stroke="rgba(0,0,0,0.2)" stroke-width="0.5" stroke-linejoin="round"/></g><g><path d="M -2.4 -142.4 L -90 -98.6 L 43.199999999999996 -170.4 Z" fill="#aa8a47" stroke="rgba(0,0,0,0.2)" stroke-width="0.5" stroke-linejoin="round"/><path d="M -90 -98.6 L 1.2 -53 L 76.8 -153.6 L 43.199999999999996 -170.4 Z" fill="#d0b06a" stroke="rgba(0,0,0,0.2)" stroke-width="0.5" stroke-linejoin="round"/></g><path d="M 43.199999999999996 -170.4 L 76.8 -153.6 L 15.6 -127 L -18 -143.8 Z" fill="#8d6e35" stroke="rgba(0,0,0,0.2)" stroke-width="0.5" stroke-linejoin="round"/><path d="M -2.4 -142.4 L -90 -98.6 L -85.2 -99.6 L -1.2 -141.6 Z" fill="#6d5324" stroke="rgba(0,0,0,0.2)" stroke-width="0.5" stroke-linejoin="round"/><path d="M -90 -98.6 L 1.2 -53 L 1.2 -56.4 L -85.2 -99.6 Z" fill="#8e6d31" stroke="rgba(0,0,0,0.2)" stroke-width="0.5" stroke-linejoin="round"/><g><path d="M -35.4 -37.3 L -39 -35.5 L -21 -26.5 L -17.4 -28.3 Z" fill="#17140f" stroke="rgba(0,0,0,0.2)" stroke-width="0.5" stroke-linejoin="round"/><path d="M -35.4 -9.3 L -39 -7.5 L -39 -35.5 L -35.4 -37.3 Z" fill="#2a2017" stroke="rgba(0,0,0,0.2)" stroke-width="0.5" stroke-linejoin="round"/><path d="M -39 -7.5 L -21 1.5 L -21 -26.5 L -39 -35.5 Z" fill="#2a2017" stroke="rgba(0,0,0,0.2)" stroke-width="0.5" stroke-linejoin="round"/></g><path d="M -34.199999999999996 -22.3 L -88.8 -55.6 L -23.4 -16.900000000000002 L -88.8 -43.6 Z" fill="#9f7638" stroke="none" stroke-width="0.5" stroke-linejoin="round"/><g><path d="M -48 -86.8 L -80.39999999999999 -70.6 L -60 -60.4 L -27.599999999999998 -76.6 Z" fill="#51422b" stroke="rgba(0,0,0,0.2)" stroke-width="0.5" stroke-linejoin="round"/><path d="M -48 -46.8 L -80.39999999999999 -30.6 L -80.39999999999999 -70.6 L -48 -86.8 Z" fill="#252015" stroke="rgba(0,0,0,0.2)" stroke-width="0.5" stroke-linejoin="round"/><path d="M -80.39999999999999 -30.6 L -60 -20.4 L -60 -60.4 L -80.39999999999999 -70.6 Z" fill="#352d1d" stroke="rgba(0,0,0,0.2)" stroke-width="0.5" stroke-linejoin="round"/></g><g><path d="M 37.199999999999996 -44.2 L 4.8 -28 L 25.2 -17.800000000000004 L 57.599999999999994 -34 Z" fill="#51422b" stroke="rgba(0,0,0,0.2)" stroke-width="0.5" stroke-linejoin="round"/><path d="M 37.199999999999996 -4.200000000000001 L 4.8 12 L 4.8 -28 L 37.199999999999996 -44.2 Z" fill="#252015" stroke="rgba(0,0,0,0.2)" stroke-width="0.5" stroke-linejoin="round"/><path d="M 4.8 12 L 25.2 22.199999999999996 L 25.2 -17.800000000000004 L 4.8 -28 Z" fill="#352d1d" stroke="rgba(0,0,0,0.2)" stroke-width="0.5" stroke-linejoin="round"/></g><g><path d="M -58.8 -89.8 L -74.39999999999999 -82 L -60 -74.8 L -44.4 -82.6 Z" stroke="rgba(0,0,0,0.2)" stroke-width="0.5" stroke-linejoin="round"/><path d="M -58.8 -77.8 L -74.39999999999999 -70 L -74.39999999999999 -82 L -58.8 -89.8 Z" fill="#aa8a47" stroke="rgba(0,0,0,0.2)" stroke-width="0.5" stroke-linejoin="round"/><path d="M -74.39999999999999 -70 L -60 -62.8 L -60 -74.8 L -74.39999999999999 -82 Z" fill="#d0b06a" stroke="rgba(0,0,0,0.2)" stroke-width="0.5" stroke-linejoin="round"/></g><g><path d="M 25.2 -47.8 L 9.6 -40 L 24 -32.800000000000004 L 39.6 -40.6 Z" stroke="rgba(0,0,0,0.2)" stroke-width="0.5" stroke-linejoin="round"/><path d="M 25.2 -35.8 L 9.6 -28 L 9.6 -40 L 25.2 -47.8 Z" fill="#aa8a47" stroke="rgba(0,0,0,0.2)" stroke-width="0.5" stroke-linejoin="round"/><path d="M 9.6 -28 L 24 -20.800000000000004 L 24 -32.800000000000004 L 9.6 -40 Z" fill="#d0b06a" stroke="rgba(0,0,0,0.2)" stroke-width="0.5" stroke-linejoin="round"/></g><path d="M -81.6 -24 L -72 -32.8 L -69.6 -18 L -80.39999999999999 -12.6 Z" fill="#9c844f" stroke="#5b4928" stroke-width="0.9" stroke-linejoin="round"/><path d="M 6 19.799999999999997 L 15.6 11 L 18 25.799999999999997 L 7.199999999999999 31.199999999999996 Z" fill="#8e7643" stroke="#5b4928" stroke-width="0.9" stroke-linejoin="round"/><path d="M -28.799999999999997 3.599999999999998 L -25.2 5.399999999999999 L -25.2 -32.6 L -28.799999999999997 -34.400000000000006 Z" fill="#55361a" stroke="none" stroke-width="0.5" stroke-linejoin="round"/><path d="M -12.000000000000004 -50.4 L -4.800000000000004 -44.4" stroke="rgba(215,187,120,0.16)" stroke-width="1.1"/><path d="M -36.00000000000001 -33.6 L -28.800000000000004 -27.599999999999998" stroke="rgba(215,187,120,0.16)" stroke-width="1.1"/><path d="M 55.199999999999996 -14.4 L 62.4 -8.4" stroke="rgba(215,187,120,0.16)" stroke-width="1.1"/><path d="M 19.19999999999999 -1.1999999999999993 L 26.39999999999998 4.800000000000001" stroke="rgba(215,187,120,0.16)" stroke-width="1.1"/></g></svg>
