<svg data-asset-anchor="bottom-center footprint center" style="width:384;height:384;overflow:visible;pointer-events:none" width="384" height="384" viewBox="-192 -220 384 384" fill="none" xmlns="http://www.w3.org/2000/svg" role="img" aria-label="Infirmary Base v1" data-asset-id="Infirmary_Base_v1" data-footprint-size="240"><defs><linearGradient id="infirmaryRoof" x1="0%" y1="0%" x2="0%" y2="100%"><stop offset="0%" stop-color="#525a52"/><stop offset="100%" stop-color="#232823"/></linearGradient><linearGradient id="infirmaryPaper" x1="0%" y1="0%" x2="100%" y2="100%"><stop offset="0%" stop-color="#ece4d5"/><stop offset="100%" stop-color="#cfc6b7"/></linearGradient><filter id="infirmaryShadow" x="-25%" y="-25%" width="150%" height="150%"><feGaussianBlur in="SourceAlpha" stdDeviation="2.8"/><feOffset dx="2" dy="4" result="offsetblur"/><feComponentTransfer><feFuncA type="linear" slope="0.42"/></feComponentTransfer><feMerge><feMergeNode/><feMergeNode in="SourceGraphic"/></feMerge></filter></defs><g filter="url(#infirmaryShadow)"><path d="M 0 -60 L 120 0 L 0 60 L -120 0 Z" fill="#151715" stroke="#090807" stroke-width="1.15"/><g><path d="M 0 -70 L -120 -10 L 0 50 L 120 -10 Z" fill="#464741" stroke="rgba(0,0,0,0.16)" stroke-width="0.85" stroke-linejoin="round"/><path d="M 0 -60 L -120 0 L -120 -10 L 0 -70 Z" fill="#272823" stroke="rgba(0,0,0,0.16)" stroke-width="0.85" stroke-linejoin="round"/><path d="M -120 0 L 0 60 L 0 50 L -120 -10 Z" fill="#34362f" stroke="rgba(0,0,0,0.16)" stroke-width="0.85" stroke-linejoin="round"/></g><g><path d="M 0 -68.4 L -100.80000000000001 -17.999999999999996 L 0 32.400000000000006 L 100.80000000000001 -17.999999999999996 Z" fill="#464741" stroke="rgba(0,0,0,0.16)" stroke-width="0.85" stroke-linejoin="round"/><path d="M 0 -60.4 L -100.80000000000001 -9.999999999999996 L -100.80000000000001 -17.999999999999996 L 0 -68.4 Z" fill="#272823" stroke="rgba(0,0,0,0.16)" stroke-width="0.85" stroke-linejoin="round"/><path d="M -100.80000000000001 -9.999999999999996 L 0 40.400000000000006 L 0 32.400000000000006 L -100.80000000000001 -17.999999999999996 Z" fill="#34362f" stroke="rgba(0,0,0,0.16)" stroke-width="0.85" stroke-linejoin="round"/></g><g><path d="M -2.400000000000002 -98 L -84 -57.2 L 2.400000000000002 -14 L 84 -54.8 Z" fill="#c9c2b4" stroke="rgba(0,0,0,0.16)" stroke-width="0.85" stroke-linejoin="round"/><path d="M -2.400000000000002 -60 L -84 -19.200000000000003 L -84 -57.2 L -2.400000000000002 -98 Z" fill="#8e877a" stroke="rgba(0,0,0,0.16)" stroke-width="0.85" stroke-linejoin="round"/><path d="M -84 -19.200000000000003 L 2.400000000000002 24 L 2.400000000000002 -14 L -84 -57.2 Z" fill="#a59d91" stroke="rgba(0,0,0,0.16)" stroke-width="0.85" stroke-linejoin="round"/></g><g><path d="M -12.000000000000004 -106 L -16.8 -103.6 L 79.2 -55.6 L 84 -58 Z" fill="#5a3828" stroke="rgba(0,0,0,0.16)" stroke-width="0.85" stroke-linejoin="round"/><path d="M -12.000000000000004 -98 L -16.8 -95.6 L -16.8 -103.6 L -12.000000000000004 -106 Z" fill="#301f17" stroke="rgba(0,0,0,0.16)" stroke-width="0.85" stroke-linejoin="round"/><path d="M -16.8 -95.6 L 79.2 -47.6 L 79.2 -55.6 L -16.8 -103.6 Z" fill="#7a4a33" stroke="rgba(0,0,0,0.16)" stroke-width="0.85" stroke-linejoin="round"/></g><g><path d="M -79.2 -72.4 L -84.00000000000001 -70 L 11.999999999999996 -21.999999999999993 L 16.8 -24.4 Z" fill="#5a3828" stroke="rgba(0,0,0,0.16)" stroke-width="0.85" stroke-linejoin="round"/><path d="M -79.2 -64.4 L -84.00000000000001 -62 L -84.00000000000001 -70 L -79.2 -72.4 Z" fill="#301f17" stroke="rgba(0,0,0,0.16)" stroke-width="0.85" stroke-linejoin="round"/><path d="M -84.00000000000001 -62 L 11.999999999999996 -13.999999999999993 L 11.999999999999996 -21.999999999999993 L -84.00000000000001 -70 Z" fill="#7a4a33" stroke="rgba(0,0,0,0.16)" stroke-width="0.85" stroke-linejoin="round"/></g><path d="M 0 -114.4 L 100.80000000000001 -64 L 69.60000000000001 -88.8 L -2.3999999999999955 -124.80000000000001 Z" fill="url(#infirmaryRoof)" stroke="rgba(0,0,0,0.16)" stroke-width="0.95" stroke-linejoin="round"/><path d="M -100.80000000000001 -64 L 0 -13.599999999999994 L 2.400000000000002 -55.199999999999996 L -69.60000000000001 -91.2 Z" fill="url(#infirmaryRoof)" stroke="rgba(0,0,0,0.16)" stroke-width="0.95" stroke-linejoin="round"/><path d="M -2.3999999999999955 -124.80000000000001 L 69.60000000000001 -88.8 L 2.400000000000002 -55.199999999999996 L -69.60000000000001 -91.2 Z" fill="url(#infirmaryRoof)" stroke="rgba(0,0,0,0.14)" stroke-width="0.95" stroke-linejoin="round"/><path d="M -2.3999999999999955 -129.6 L 79.19999999999999 -88.8 L 57.599999999999994 -82 L 0 -110.8 Z" fill="#566356" stroke="rgba(0,0,0,0.12)" stroke-width="0.8" stroke-linejoin="round"/><g><path d="M 0 -55.2 L -16.8 -46.8 L -4.799999999999997 -40.8 L 12.000000000000004 -49.2 Z" fill="#6d6960" stroke="rgba(0,0,0,0.16)" stroke-width="0.85" stroke-linejoin="round"/><path d="M 0 -39.2 L -16.8 -30.8 L -16.8 -46.8 L 0 -55.2 Z" fill="#413d37" stroke="rgba(0,0,0,0.16)" stroke-width="0.85" stroke-linejoin="round"/><path d="M -16.8 -30.8 L -4.799999999999997 -24.799999999999997 L -4.799999999999997 -40.8 L -16.8 -46.8 Z" fill="#848078" stroke="rgba(0,0,0,0.16)" stroke-width="0.85" stroke-linejoin="round"/></g><g><path d="M -45.6 -32.4 L -62.400000000000006 -24 L -50.4 -18 L -33.599999999999994 -26.4 Z" fill="#6d6960" stroke="rgba(0,0,0,0.16)" stroke-width="0.85" stroke-linejoin="round"/><path d="M -45.6 -16.4 L -62.400000000000006 -8 L -62.400000000000006 -24 L -45.6 -32.4 Z" fill="#413d37" stroke="rgba(0,0,0,0.16)" stroke-width="0.85" stroke-linejoin="round"/><path d="M -62.400000000000006 -8 L -50.4 -1.9999999999999982 L -50.4 -18 L -62.400000000000006 -24 Z" fill="#848078" stroke="rgba(0,0,0,0.16)" stroke-width="0.85" stroke-linejoin="round"/></g><g><path d="M 50.400000000000006 -30 L 33.6 -21.599999999999998 L 45.6 -15.6 L 62.400000000000006 -24 Z" fill="#6d6960" stroke="rgba(0,0,0,0.16)" stroke-width="0.85" stroke-linejoin="round"/><path d="M 50.400000000000006 -13.999999999999998 L 33.6 -5.599999999999998 L 33.6 -21.599999999999998 L 50.400000000000006 -30 Z" fill="#413d37" stroke="rgba(0,0,0,0.16)" stroke-width="0.85" stroke-linejoin="round"/><path d="M 33.6 -5.599999999999998 L 45.6 0.40000000000000036 L 45.6 -15.6 L 33.6 -21.599999999999998 Z" fill="#848078" stroke="rgba(0,0,0,0.16)" stroke-width="0.85" stroke-linejoin="round"/></g><g><path d="M 4.800000000000004 -7.199999999999999 L -11.999999999999996 1.2000000000000028 L 0 7.200000000000003 L 16.8 -1.1999999999999993 Z" fill="#6d6960" stroke="rgba(0,0,0,0.16)" stroke-width="0.85" stroke-linejoin="round"/><path d="M 4.800000000000004 8.8 L -11.999999999999996 17.200000000000003 L -11.999999999999996 1.2000000000000028 L 4.800000000000004 -7.199999999999999 Z" fill="#413d37" stroke="rgba(0,0,0,0.16)" stroke-width="0.85" stroke-linejoin="round"/><path d="M -11.999999999999996 17.200000000000003 L 0 23.200000000000003 L 0 7.200000000000003 L -11.999999999999996 1.2000000000000028 Z" fill="#848078" stroke="rgba(0,0,0,0.16)" stroke-width="0.85" stroke-linejoin="round"/></g><g><path d="M 33.599999999999994 -86.4 L 26.4 -82.8 L 45.599999999999994 -73.2 L 52.8 -76.8 Z" fill="#5c5f58" stroke="rgba(0,0,0,0.16)" stroke-width="0.85" stroke-linejoin="round"/><path d="M 33.599999999999994 -74.4 L 26.4 -70.8 L 26.4 -82.8 L 33.599999999999994 -86.4 Z" fill="#353832" stroke="rgba(0,0,0,0.16)" stroke-width="0.85" stroke-linejoin="round"/><path d="M 26.4 -70.8 L 45.599999999999994 -61.2 L 45.599999999999994 -73.2 L 26.4 -82.8 Z" fill="#474b44" stroke="rgba(0,0,0,0.16)" stroke-width="0.85" stroke-linejoin="round"/></g><path d="M 22.8 -84.6 L 49.199999999999996 -71.4 L 35.99999999999999 -62.4 L 16.799999999999994 -72 Z" fill="#57544d" stroke="rgba(0,0,0,0.14)" stroke-width="0.75" stroke-linejoin="round"/><path d="M 36 -78 L 26.4 -93.2" stroke="#8a7344" stroke-width="1.1"/><path d="M -24 -44.4 L -11.999999999999996 -38.4 L -40.8 -24 L -52.8 -30 Z" fill="url(#infirmaryPaper)" stroke="rgba(0,0,0,0.12)" stroke-width="0.75" stroke-linejoin="round"/><path d="M 40.8 -12.000000000000002 L 52.8 -6.0000000000000036 L 23.999999999999993 8.399999999999999 L 11.999999999999996 2.3999999999999986 Z" fill="url(#infirmaryPaper)" stroke="rgba(0,0,0,0.12)" stroke-width="0.75" stroke-linejoin="round"/><path d="M -38.4 -37.2 L -26.4 -31.2" stroke="#a89e8b" stroke-width="0.8"/><path d="M 26.4 -4.800000000000001 L 38.39999999999999 1.1999999999999957" stroke="#a89e8b" stroke-width="0.8"/><g><path d="M -25.200000000000003 -71.8 L -63.6 -52.599999999999994 L -58.8 -50.199999999999996 L -20.4 -69.39999999999999 Z" fill="#5a3828" stroke="rgba(0,0,0,0.16)" stroke-width="0.85" stroke-linejoin="round"/><path d="M -25.200000000000003 -49.8 L -63.6 -30.599999999999998 L -63.6 -52.599999999999994 L -25.200000000000003 -71.8 Z" fill="#301f17" stroke="rgba(0,0,0,0.16)" stroke-width="0.85" stroke-linejoin="round"/><path d="M -63.6 -30.599999999999998 L -58.8 -28.199999999999996 L -58.8 -50.199999999999996 L -63.6 -52.599999999999994 Z" fill="#7a4a33" stroke="rgba(0,0,0,0.16)" stroke-width="0.85" stroke-linejoin="round"/></g><g><path d="M 58.79999999999999 -29.8 L 20.39999999999999 -10.600000000000001 L 25.199999999999996 -8.2 L 63.6 -27.4 Z" fill="#5a3828" stroke="rgba(0,0,0,0.16)" stroke-width="0.85" stroke-linejoin="round"/><path d="M 58.79999999999999 -7.800000000000001 L 20.39999999999999 11.399999999999999 L 20.39999999999999 -10.600000000000001 L 58.79999999999999 -29.8 Z" fill="#301f17" stroke="rgba(0,0,0,0.16)" stroke-width="0.85" stroke-linejoin="round"/><path d="M 20.39999999999999 11.399999999999999 L 25.199999999999996 13.8 L 25.199999999999996 -8.2 L 20.39999999999999 -10.600000000000001 Z" fill="#7a4a33" stroke="rgba(0,0,0,0.16)" stroke-width="0.85" stroke-linejoin="round"/></g><path d="M -24 -73.6 L -16.8 -70 L -60 -48.4 L -67.2 -52 Z" fill="#73482f" stroke="rgba(0,0,0,0.12)" stroke-width="0.7" stroke-linejoin="round"/><path d="M 59.99999999999999 -31.6 L 67.2 -28 L 23.999999999999993 -6.399999999999999 L 16.79999999999999 -10 Z" fill="#73482f" stroke="rgba(0,0,0,0.12)" stroke-width="0.7" stroke-linejoin="round"/><g><path d="M 43.199999999999996 -74.8 L 33.599999999999994 -70 L 48 -62.8 L 57.6 -67.6 Z" fill="#726154" stroke="rgba(0,0,0,0.16)" stroke-width="0.85" stroke-linejoin="round"/><path d="M 43.199999999999996 -62.8 L 33.599999999999994 -58 L 33.599999999999994 -70 L 43.199999999999996 -74.8 Z" fill="#4a3c33" stroke="rgba(0,0,0,0.16)" stroke-width="0.85" stroke-linejoin="round"/><path d="M 33.599999999999994 -58 L 48 -50.8 L 48 -62.8 L 33.599999999999994 -70 Z" fill="#8d7b6a" stroke="rgba(0,0,0,0.16)" stroke-width="0.85" stroke-linejoin="round"/></g><path d="M 31.199999999999996 -71.2 L 50.39999999999999 -61.6 L 40.80000000000001 -55.2 L 26.400000000000002 -62.400000000000006 Z" fill="#6d665d" stroke="rgba(0,0,0,0.14)" stroke-width="0.75" stroke-linejoin="round"/><path d="M 2.400000000000002 -32.8 L 45.60000000000001 -11.199999999999998 L 40.800000000000004 -8.799999999999995 L -2.400000000000002 -30.4 Z" fill="#5e6c61" stroke="rgba(0,0,0,0.1)" stroke-width="0.6" stroke-linejoin="round"/><path d="M -40.800000000000004 -11.199999999999998 L 2.400000000000002 10.400000000000006 L -2.399999999999989 12.8 L -45.599999999999994 -8.800000000000002 Z" fill="#5e6c61" stroke="rgba(0,0,0,0.1)" stroke-width="0.6" stroke-linejoin="round"/><g><path d="M 16.8 -40.8 L 5.999999999999998 -35.4 L 16.799999999999994 -30 L 27.599999999999998 -35.400000000000006 Z" fill="#ddd6c7" stroke="rgba(0,0,0,0.16)" stroke-width="0.85" stroke-linejoin="round"/><path d="M 16.8 -34.8 L 5.999999999999998 -29.4 L 5.999999999999998 -35.4 L 16.8 -40.8 Z" fill="#a79f90" stroke="rgba(0,0,0,0.16)" stroke-width="0.85" stroke-linejoin="round"/><path d="M 5.999999999999998 -29.4 L 16.799999999999994 -24 L 16.799999999999994 -30 L 5.999999999999998 -35.4 Z" fill="#c0b7a8" stroke="rgba(0,0,0,0.16)" stroke-width="0.85" stroke-linejoin="round"/></g><g><path d="M 34.800000000000004 -31.799999999999997 L 24 -26.4 L 34.8 -21 L 45.6 -26.4 Z" fill="#ddd6c7" stroke="rgba(0,0,0,0.16)" stroke-width="0.85" stroke-linejoin="round"/><path d="M 34.800000000000004 -25.799999999999997 L 24 -20.4 L 24 -26.4 L 34.800000000000004 -31.799999999999997 Z" fill="#a79f90" stroke="rgba(0,0,0,0.16)" stroke-width="0.85" stroke-linejoin="round"/><path d="M 24 -20.4 L 34.8 -15 L 34.8 -21 L 24 -26.4 Z" fill="#c0b7a8" stroke="rgba(0,0,0,0.16)" stroke-width="0.85" stroke-linejoin="round"/></g><g><path d="M -34.800000000000004 -14.999999999999996 L -45.6 -9.6 L -34.800000000000004 -4.200000000000001 L -24.000000000000007 -9.6 Z" fill="#ddd6c7" stroke="rgba(0,0,0,0.16)" stroke-width="0.85" stroke-linejoin="round"/><path d="M -34.800000000000004 -8.999999999999996 L -45.6 -3.5999999999999996 L -45.6 -9.6 L -34.800000000000004 -14.999999999999996 Z" fill="#a79f90" stroke="rgba(0,0,0,0.16)" stroke-width="0.85" stroke-linejoin="round"/><path d="M -45.6 -3.5999999999999996 L -34.800000000000004 1.799999999999999 L -34.800000000000004 -4.200000000000001 L -45.6 -9.6 Z" fill="#c0b7a8" stroke="rgba(0,0,0,0.16)" stroke-width="0.85" stroke-linejoin="round"/></g><g><path d="M -16.8 -5.9999999999999964 L -27.599999999999998 -0.5999999999999979 L -16.8 4.800000000000001 L -6.000000000000005 -0.5999999999999979 Z" fill="#ddd6c7" stroke="rgba(0,0,0,0.16)" stroke-width="0.85" stroke-linejoin="round"/><path d="M -16.8 3.552713678800501e-15 L -27.599999999999998 5.400000000000002 L -27.599999999999998 -0.5999999999999979 L -16.8 -5.9999999999999964 Z" fill="#a79f90" stroke="rgba(0,0,0,0.16)" stroke-width="0.85" stroke-linejoin="round"/><path d="M -27.599999999999998 5.400000000000002 L -16.8 10.8 L -16.8 4.800000000000001 L -27.599999999999998 -0.5999999999999979 Z" fill="#c0b7a8" stroke="rgba(0,0,0,0.16)" stroke-width="0.85" stroke-linejoin="round"/></g></g></svg>
