<svg data-asset-anchor="center" width="384" height="384" viewBox="0 0 384 384" fill="none" xmlns="http://www.w3.org/2000/svg" role="img" aria-label="Main City Foundation Base v1" data-asset-id="MainCityFoundation_Base_v1" data-footprint-size="240" data-anchor="center">
  <defs>
    <radialGradient id="foundationFade" cx="50%" cy="45%" r="58%">
      <stop offset="0" stop-color="#14110c" stop-opacity="1"/>
      <stop offset="0.72" stop-color="#0b0906" stop-opacity="0.96"/>
      <stop offset="1" stop-color="#000000" stop-opacity="0"/>
    </radialGradient>
    <linearGradient id="foundationPlate" x1="192" y1="42" x2="192" y2="248" gradientUnits="userSpaceOnUse">
      <stop offset="0" stop-color="#18130d"/>
      <stop offset="0.54" stop-color="#0e0b08"/>
      <stop offset="1" stop-color="#050403"/>
    </linearGradient>
    <linearGradient id="foundationRim" x1="40" y1="74" x2="344" y2="230" gradientUnits="userSpaceOnUse">
      <stop offset="0" stop-color="#d4bd74"/>
      <stop offset="0.5" stop-color="#73623a"/>
      <stop offset="1" stop-color="#f1d687"/>
    </linearGradient>
    <filter id="foundationShadow" x="-20%" y="-20%" width="140%" height="150%" color-interpolation-filters="sRGB">
      <feDropShadow dx="0" dy="16" stdDeviation="10" flood-color="#000000" flood-opacity="0.62"/>
    </filter>
  </defs>
  <ellipse cx="192" cy="164" rx="176" ry="126" fill="url(#foundationFade)"/>
  <g filter="url(#foundationShadow)">
    <path d="M192 48L354 142L192 236L30 142Z" fill="url(#foundationPlate)" stroke="#090705" stroke-width="8" stroke-linejoin="round"/>
    <path d="M192 48L354 142L192 236L30 142Z" stroke="url(#foundationRim)" stroke-width="5" stroke-linejoin="round"/>
    <path d="M192 62L330 142L192 222L54 142Z" stroke="#2c2316" stroke-width="2" stroke-linejoin="round"/>
    <path d="M192 77L306 142L192 207L78 142Z" stroke="#19130c" stroke-width="2" stroke-linejoin="round"/>
    <path d="M78 142L192 77L306 142L192 207Z" fill="#0d0b08" fill-opacity="0.34"/>
    <path d="M192 48L192 236" stroke="#7d6b3b" stroke-width="1.2" stroke-opacity="0.45"/>
    <path d="M127 86L289 180" stroke="#7d6b3b" stroke-width="1.1" stroke-opacity="0.34"/>
    <path d="M95 105L257 199" stroke="#7d6b3b" stroke-width="1.1" stroke-opacity="0.34"/>
    <path d="M62 124L224 218" stroke="#7d6b3b" stroke-width="1.1" stroke-opacity="0.34"/>
    <path d="M257 86L95 180" stroke="#7d6b3b" stroke-width="1.1" stroke-opacity="0.34"/>
    <path d="M289 105L127 199" stroke="#7d6b3b" stroke-width="1.1" stroke-opacity="0.34"/>
    <path d="M322 124L160 218" stroke="#7d6b3b" stroke-width="1.1" stroke-opacity="0.34"/>
    <path d="M192 107L252 142L192 177L132 142Z" fill="#1e2428" fill-opacity="0.68" stroke="#6a7f8a" stroke-width="1.4" stroke-linejoin="round"/>
    <path d="M192 116L236 142L192 168L148 142Z" fill="#c7a65a" fill-opacity="0.08" stroke="#c7a65a" stroke-width="1.2" stroke-dasharray="5 5" stroke-opacity="0.52"/>
  </g>
</svg>
