<svg data-asset-anchor="bottom-center footprint center" style="width:384;height:384;overflow:visible;pointer-events:none" width="384" height="384" viewBox="-192 -210 384 384" fill="none" xmlns="http://www.w3.org/2000/svg" role="img" aria-label="Market Base v1" data-asset-id="Market_Base_v1" data-footprint-size="240"><defs><linearGradient id="marketShadow" x1="0%" y1="0%" x2="100%" y2="100%"><stop offset="0%" stop-color="#000000" stop-opacity="0.52"/><stop offset="100%" stop-color="#000000" stop-opacity="0"/></linearGradient><linearGradient id="marketRoof" x1="0%" y1="0%" x2="0%" y2="100%"><stop offset="0%" stop-color="#494541"/><stop offset="100%" stop-color="#201d1a"/></linearGradient><filter id="marketSoftShadow" x="-25%" y="-25%" width="150%" height="150%"><feGaussianBlur in="SourceAlpha" stdDeviation="2.8"/><feOffset dx="2" dy="4" result="offsetblur"/><feComponentTransfer><feFuncA type="linear" slope="0.4"/></feComponentTransfer><feMerge><feMergeNode/><feMergeNode in="SourceGraphic"/></feMerge></filter></defs><g filter="url(#marketSoftShadow)"><path d="M 0 -60 L 120 0 L 0 60 L -120 0 Z" fill="#161815" stroke="#0a0908" stroke-width="1.15"/><g><path d="M 0 -70 L -120 -10 L 0 50 L 120 -10 Z" fill="#444037" stroke="rgba(0,0,0,0.18)" stroke-width="0.9" stroke-linejoin="round"/><path d="M 0 -60 L -120 0 L -120 -10 L 0 -70 Z" fill="#26211c" stroke="rgba(0,0,0,0.18)" stroke-width="0.9" stroke-linejoin="round"/><path d="M -120 0 L 0 60 L 0 50 L -120 -10 Z" fill="#343028" stroke="rgba(0,0,0,0.18)" stroke-width="0.9" stroke-linejoin="round"/></g><g><path d="M 0 -65 L -96 -17 L 0 31 L 96 -17 Z" fill="#444037" stroke="rgba(0,0,0,0.18)" stroke-width="0.9" stroke-linejoin="round"/><path d="M 0 -58 L -96 -10 L -96 -17 L 0 -65 Z" fill="#26211c" stroke="rgba(0,0,0,0.18)" stroke-width="0.9" stroke-linejoin="round"/><path d="M -96 -10 L 0 38 L 0 31 L -96 -17 Z" fill="#343028" stroke="rgba(0,0,0,0.18)" stroke-width="0.9" stroke-linejoin="round"/></g><g><path d="M 4.799999999999997 -89.8 L -33.6 -70.6 L 43.19999999999999 -32.2 L 81.6 -51.400000000000006 Z" fill="#3a2217" stroke="rgba(0,0,0,0.18)" stroke-width="0.9" stroke-linejoin="round"/><path d="M 4.799999999999997 -57.8 L -33.6 -38.599999999999994 L -33.6 -70.6 L 4.799999999999997 -89.8 Z" fill="#23130f" stroke="rgba(0,0,0,0.18)" stroke-width="0.9" stroke-linejoin="round"/><path d="M -33.6 -38.599999999999994 L 43.19999999999999 -0.20000000000000284 L 43.19999999999999 -32.2 L -33.6 -70.6 Z" fill="#5a311e" stroke="rgba(0,0,0,0.18)" stroke-width="0.9" stroke-linejoin="round"/></g><g><path d="M -43.2 -65.8 L -81.6 -46.6 L -4.800000000000004 -8.200000000000003 L 33.59999999999999 -27.400000000000002 Z" fill="#3a2217" stroke="rgba(0,0,0,0.18)" stroke-width="0.9" stroke-linejoin="round"/><path d="M -43.2 -33.8 L -81.6 -14.600000000000001 L -81.6 -46.6 L -43.2 -65.8 Z" fill="#23130f" stroke="rgba(0,0,0,0.18)" stroke-width="0.9" stroke-linejoin="round"/><path d="M -81.6 -14.600000000000001 L -4.800000000000004 23.799999999999997 L -4.800000000000004 -8.200000000000003 L -81.6 -46.6 Z" fill="#5a311e" stroke="rgba(0,0,0,0.18)" stroke-width="0.9" stroke-linejoin="round"/></g><g><path d="M -4.799999999999997 -89.8 L -81.6 -51.400000000000006 L -72 -46.6 L 4.799999999999997 -85 Z" fill="#6a3b25" stroke="rgba(0,0,0,0.18)" stroke-width="0.9" stroke-linejoin="round"/><path d="M -4.799999999999997 -57.8 L -81.6 -19.400000000000002 L -81.6 -51.400000000000006 L -4.799999999999997 -89.8 Z" fill="#402417" stroke="rgba(0,0,0,0.18)" stroke-width="0.9" stroke-linejoin="round"/><path d="M -81.6 -19.400000000000002 L -72 -14.600000000000005 L -72 -46.6 L -81.6 -51.400000000000006 Z" fill="#8b5230" stroke="rgba(0,0,0,0.18)" stroke-width="0.9" stroke-linejoin="round"/></g><g><path d="M 72.00000000000001 -51.4 L -4.799999999999991 -13 L 4.800000000000004 -8.200000000000003 L 81.6 -46.6 Z" fill="#6a3b25" stroke="rgba(0,0,0,0.18)" stroke-width="0.9" stroke-linejoin="round"/><path d="M 72.00000000000001 -19.4 L -4.799999999999991 19 L -4.799999999999991 -13 L 72.00000000000001 -51.4 Z" fill="#402417" stroke="rgba(0,0,0,0.18)" stroke-width="0.9" stroke-linejoin="round"/><path d="M -4.799999999999991 19 L 4.800000000000004 23.799999999999997 L 4.800000000000004 -8.200000000000003 L -4.799999999999991 -13 Z" fill="#8b5230" stroke="rgba(0,0,0,0.18)" stroke-width="0.9" stroke-linejoin="round"/></g><path d="M 0 -94.6 L 91.2 -49 L 57.599999999999994 -69.6 L -4.800000000000004 -100.8 Z" fill="url(#marketRoof)" stroke="rgba(0,0,0,0.16)" stroke-width="0.9" stroke-linejoin="round"/><path d="M -91.2 -49 L 0 -3.3999999999999986 L 4.800000000000004 -43.2 L -57.599999999999994 -74.4 Z" fill="url(#marketRoof)" stroke="rgba(0,0,0,0.16)" stroke-width="0.9" stroke-linejoin="round"/><path d="M -4.800000000000004 -100.8 L 57.599999999999994 -69.6 L 4.800000000000004 -43.2 L -57.599999999999994 -74.4 Z" fill="url(#marketRoof)" stroke="rgba(0,0,0,0.12)" stroke-width="0.9" stroke-linejoin="round"/><path d="M -16.8 -59.199999999999996 L 2.3999999999999955 -49.599999999999994 L -2.400000000000002 -43.2 L -21.599999999999998 -52.800000000000004 Z" fill="#433227" stroke="none" stroke-width="0" stroke-linejoin="round"/><path d="M 2.399999999999989 27.200000000000003 L 21.599999999999994 36.800000000000004 L 16.8 43.199999999999996 L -2.400000000000002 33.599999999999994 Z" fill="#433227" stroke="none" stroke-width="0" stroke-linejoin="round"/><g><path d="M 3.600000000000003 -44.8 L -15.600000000000001 -35.2 L 0 -27.4 L 19.200000000000003 -37 Z" fill="#5e594f" stroke="rgba(0,0,0,0.18)" stroke-width="0.9" stroke-linejoin="round"/><path d="M 3.600000000000003 -35.8 L -15.600000000000001 -26.2 L -15.600000000000001 -35.2 L 3.600000000000003 -44.8 Z" fill="#38342d" stroke="rgba(0,0,0,0.18)" stroke-width="0.9" stroke-linejoin="round"/><path d="M -15.600000000000001 -26.2 L 0 -18.4 L 0 -27.4 L -15.600000000000001 -35.2 Z" fill="#746d61" stroke="rgba(0,0,0,0.18)" stroke-width="0.9" stroke-linejoin="round"/></g><g><path d="M -44.4 -20.8 L -63.6 -11.2 L -48 -3.3999999999999986 L -28.799999999999997 -13 Z" fill="#5e594f" stroke="rgba(0,0,0,0.18)" stroke-width="0.9" stroke-linejoin="round"/><path d="M -44.4 -11.8 L -63.6 -2.1999999999999984 L -63.6 -11.2 L -44.4 -20.8 Z" fill="#38342d" stroke="rgba(0,0,0,0.18)" stroke-width="0.9" stroke-linejoin="round"/><path d="M -63.6 -2.1999999999999984 L -48 5.600000000000001 L -48 -3.3999999999999986 L -63.6 -11.2 Z" fill="#746d61" stroke="rgba(0,0,0,0.18)" stroke-width="0.9" stroke-linejoin="round"/></g><g><path d="M 48 -22.6 L 28.799999999999997 -13 L 44.4 -5.199999999999999 L 63.6 -14.8 Z" fill="#5e594f" stroke="rgba(0,0,0,0.18)" stroke-width="0.9" stroke-linejoin="round"/><path d="M 48 -13.600000000000001 L 28.799999999999997 -4 L 28.799999999999997 -13 L 48 -22.6 Z" fill="#38342d" stroke="rgba(0,0,0,0.18)" stroke-width="0.9" stroke-linejoin="round"/><path d="M 28.799999999999997 -4 L 44.4 3.8000000000000007 L 44.4 -5.199999999999999 L 28.799999999999997 -13 Z" fill="#746d61" stroke="rgba(0,0,0,0.18)" stroke-width="0.9" stroke-linejoin="round"/></g><g><path d="M 0 1.3999999999999986 L -19.200000000000003 11 L -3.600000000000003 18.8 L 15.600000000000001 9.2 Z" fill="#5e594f" stroke="rgba(0,0,0,0.18)" stroke-width="0.9" stroke-linejoin="round"/><path d="M 0 10.399999999999999 L -19.200000000000003 20 L -19.200000000000003 11 L 0 1.3999999999999986 Z" fill="#38342d" stroke="rgba(0,0,0,0.18)" stroke-width="0.9" stroke-linejoin="round"/><path d="M -19.200000000000003 20 L -3.600000000000003 27.8 L -3.600000000000003 18.8 L -19.200000000000003 11 Z" fill="#746d61" stroke="rgba(0,0,0,0.18)" stroke-width="0.9" stroke-linejoin="round"/></g><g><path d="M 42 -83.4 L 30 -77.4 L 46.8 -69 L 58.79999999999999 -75 Z" fill="#b08d53" stroke="rgba(0,0,0,0.18)" stroke-width="0.9" stroke-linejoin="round"/><path d="M 42 -69.4 L 30 -63.400000000000006 L 30 -77.4 L 42 -83.4 Z" fill="#6e5530" stroke="rgba(0,0,0,0.18)" stroke-width="0.9" stroke-linejoin="round"/><path d="M 30 -63.400000000000006 L 46.8 -55 L 46.8 -69 L 30 -77.4 Z" fill="#8d6a3b" stroke="rgba(0,0,0,0.18)" stroke-width="0.9" stroke-linejoin="round"/></g><path d="M 38.4 -73.2 L 28.799999999999997 -86.4" stroke="#8b6c37" stroke-width="1.2"/><path d="M 16.8 -94.8 L 45.6 -80.4 L 33.599999999999994 -72 L 11.999999999999996 -82.8 Z" fill="#605148" stroke="rgba(0,0,0,0.14)" stroke-width="0.8" stroke-linejoin="round"/><g><path d="M -36 -43.6 L -55.199999999999996 -34 L 36.00000000000001 11.599999999999998 L 55.2 2 Z" fill="#564438" stroke="rgba(0,0,0,0.18)" stroke-width="0.9" stroke-linejoin="round"/><path d="M -36 -39.6 L -55.199999999999996 -30.000000000000004 L -55.199999999999996 -34 L -36 -43.6 Z" fill="#30261f" stroke="rgba(0,0,0,0.18)" stroke-width="0.9" stroke-linejoin="round"/><path d="M -55.199999999999996 -30.000000000000004 L 36.00000000000001 15.599999999999998 L 36.00000000000001 11.599999999999998 L -55.199999999999996 -34 Z" fill="#746055" stroke="rgba(0,0,0,0.18)" stroke-width="0.9" stroke-linejoin="round"/></g><g><path d="M -33.599999999999994 -49.4 L -52.8 -39.8 L -45.599999999999994 -36.2 L -26.4 -45.8 Z" fill="#b08d53" stroke="rgba(0,0,0,0.18)" stroke-width="0.9" stroke-linejoin="round"/><path d="M -33.599999999999994 -42.4 L -52.8 -32.8 L -52.8 -39.8 L -33.599999999999994 -49.4 Z" fill="#6e5530" stroke="rgba(0,0,0,0.18)" stroke-width="0.9" stroke-linejoin="round"/><path d="M -52.8 -32.8 L -45.599999999999994 -29.200000000000003 L -45.599999999999994 -36.2 L -52.8 -39.8 Z" fill="#8d6a3b" stroke="rgba(0,0,0,0.18)" stroke-width="0.9" stroke-linejoin="round"/></g><g><path d="M 45.60000000000001 -9.799999999999999 L 26.40000000000001 -0.1999999999999993 L 33.6 3.3999999999999986 L 52.8 -6.200000000000003 Z" fill="#b08d53" stroke="rgba(0,0,0,0.18)" stroke-width="0.9" stroke-linejoin="round"/><path d="M 45.60000000000001 -2.799999999999999 L 26.40000000000001 6.800000000000001 L 26.40000000000001 -0.1999999999999993 L 45.60000000000001 -9.799999999999999 Z" fill="#6e5530" stroke="rgba(0,0,0,0.18)" stroke-width="0.9" stroke-linejoin="round"/><path d="M 26.40000000000001 6.800000000000001 L 33.6 10.399999999999999 L 33.6 3.3999999999999986 L 26.40000000000001 -0.1999999999999993 Z" fill="#8d6a3b" stroke="rgba(0,0,0,0.18)" stroke-width="0.9" stroke-linejoin="round"/></g><path d="M -33.6 -65.8 L -19.199999999999996 -58.599999999999994 L -33.599999999999994 -51.4 L -48 -58.6 Z" fill="#2d281f" stroke="rgba(0,0,0,0.14)" stroke-width="0.7" stroke-linejoin="round"/><path d="M 19.200000000000003 -39.4 L 33.6 -32.2 L 19.200000000000003 -25 L 4.800000000000004 -32.2 Z" fill="#2d281f" stroke="rgba(0,0,0,0.14)" stroke-width="0.7" stroke-linejoin="round"/><path d="M 0 -48.4 L 76.79999999999998 -10.000000000000004 L 0 28.39999999999999 L -76.79999999999998 -10.000000000000004 Z" fill="none" stroke="rgba(255,214,138,0.18)" stroke-width="1"/><path d="M 0 -87.4 L 0 -10.600000000000009" fill="none" stroke="rgba(0,0,0,0.18)" stroke-width="0.7"/></g><path d="M -7.199999999999993 -66 L 132 3.600000000000003 L 0 62.400000000000006 L -124.80000000000001 0 Z" fill="url(#marketShadow)" stroke="none" opacity="0.55"/></svg>
