<svg data-asset-anchor="bottom-center footprint center" style="width:384;height:384;overflow:visible;pointer-events:none" width="384" height="384" viewBox="0 0 384 384" fill="none" xmlns="http://www.w3.org/2000/svg" role="img" aria-label="Pass SW Base v1" data-asset-id="Pass_SW_Base_v1" data-footprint-size="320" data-anchor="bottom-center footprint center"><g><defs><linearGradient id="passStoneDark" x1="0%" y1="0%" x2="0%" y2="100%"><stop offset="0%" stop-color="#66736E"/><stop offset="100%" stop-color="#46534E"/></linearGradient><linearGradient id="passStoneLight" x1="0%" y1="0%" x2="0%" y2="100%"><stop offset="0%" stop-color="#829089"/><stop offset="100%" stop-color="#5D6963"/></linearGradient><linearGradient id="gateWood" x1="0%" y1="0%" x2="0%" y2="100%"><stop offset="0%" stop-color="#7F1D1D"/><stop offset="100%" stop-color="#450A0A"/></linearGradient><linearGradient id="goldGrad" x1="0%" y1="0%" x2="100%" y2="100%"><stop offset="0%" stop-color="#FDE047"/><stop offset="100%" stop-color="#B45309"/></linearGradient><filter id="passShadowSW" x="-50%" y="-50%" width="200%" height="200%"><feGaussianBlur in="SourceAlpha" stdDeviation="6"/><feOffset dx="8" dy="12" result="offsetblur"/><feComponentTransfer><feFuncA type="linear" slope="0.22"/></feComponentTransfer><feMerge><feMergeNode/><feMergeNode in="SourceGraphic"/></feMerge></filter><filter id="passShadowSE" x="-50%" y="-50%" width="200%" height="200%"><feGaussianBlur in="SourceAlpha" stdDeviation="6"/><feOffset dx="-8" dy="12" result="offsetblur"/><feComponentTransfer><feFuncA type="linear" slope="0.22"/></feComponentTransfer><feMerge><feMergeNode/><feMergeNode in="SourceGraphic"/></feMerge></filter></defs><g transform="scale(1)"><path d="M 150.4 174.4 L 259.2 228.8 L 179.2 268.8 L 70.4 214.4 Z" fill="#27322E" opacity="0.30"/><path d="M 70.4 214.4 L 179.2 268.8 L 179.2 260.8 L 70.4 206.4 Z" fill="#45524C" stroke="#222B27" stroke-width="0.6"/><path d="M 259.2 228.8 L 179.2 268.8 L 179.2 260.8 L 259.2 220.8 Z" fill="#394641" stroke="#1D2522" stroke-width="0.6"/><path d="M 150.4 166.4 L 259.2 220.8 L 179.2 260.8 L 70.4 206.4 Z" fill="#647169" stroke="#2F3935" stroke-width="0.8"/><g filter="url(#passShadowSW)"><path d="M 288 230 L 192 278 L 192 213 L 288 165 Z" fill="url(#passStoneDark)" stroke="#000"/><path d="M 32 198 L 192 278 L 192 213 L 32 133 Z" fill="url(#passStoneLight)" stroke="#000"/><path d="M 128 85 L 288 165 L 192 213 L 32 133 Z" fill="url(#passStoneLight)" stroke="#000"/><path d="M 88 226 L 136 250 L 136 220 L 112 196 L 88 196 Z" fill="#000"/><path d="M 99.2 223.6 L 140.8 244.4 L 140.8 206.4 L 99.2 185.6 Z" fill="url(#gateWood)"/><path d="M 120 234 L 120 196 Z" stroke="#2D0A0A" stroke-width="1.5"/><path d="M 176 125 L 176 90 Z" stroke="#7F1D1D" stroke-width="3"/><path d="M 208 141 L 208 106 Z" stroke="#7F1D1D" stroke-width="3"/><path d="M 112 157 L 112 122 Z" stroke="#7F1D1D" stroke-width="3"/><path d="M 144 173 L 144 138 Z" stroke="#7F1D1D" stroke-width="3"/><path d="M 176 74 L 240 106 L 144 154 L 80 122 Z" fill="#111827"/><path d="M 144 154 L 240 106 L 160 89 Z" fill="#1E293B" stroke="#000"/><path d="M 80 122 L 144 154 L 160 89 Z" fill="#334155" stroke="#000"/><path d="M 40 137 L 48 141 L 48 128 L 40 124 Z" fill="url(#passStoneLight)" stroke="#000"/><path d="M 60.79999999999998 147.4 L 68.8 151.4 L 68.8 138.4 L 60.79999999999998 134.4 Z" fill="url(#passStoneLight)" stroke="#000"/><path d="M 155.2 194.60000000000002 L 163.20000000000002 198.60000000000002 L 163.20000000000002 185.60000000000002 L 155.2 181.60000000000002 Z" fill="url(#passStoneLight)" stroke="#000"/><path d="M 176 205 L 184 209 L 184 196 L 176 192 Z" fill="url(#passStoneLight)" stroke="#000"/></g><path d="M 80 122 L 160 89 Z" stroke="#B45309" stroke-width="2.5"/><path d="M 144 154 L 160 89 Z" stroke="#B45309" stroke-width="2.5"/><path d="M 240 106 L 160 89 Z" stroke="#B45309" stroke-width="2.5"/><path d="M 160 89 L 160 74 Z" stroke="#D4AF37" stroke-width="2"/><circle cx="160" cy="74" r="3.5" fill="url(#goldGrad)"/><path d="M 120 113 L 120 63 Z" stroke="#1E293B" stroke-width="1.5"/><path d="M 120 63 L 120 88 L 147.2 89.6 Z" fill="#991B1B" stroke="#7F1D1D"/></g></g></svg>
