<svg data-asset-anchor="bottom-center footprint center" style="width:384;height:384;overflow:visible;pointer-events:none" width="384" height="384" viewBox="0 0 384 384" fill="none" xmlns="http://www.w3.org/2000/svg" role="img" aria-label="Pass SE Base v1" data-asset-id="Pass_SE_Base_v1" data-footprint-size="320" data-anchor="bottom-center footprint center"><g><defs><linearGradient id="passStoneDark" x1="0%" y1="0%" x2="0%" y2="100%"><stop offset="0%" stop-color="#66736E"/><stop offset="100%" stop-color="#46534E"/></linearGradient><linearGradient id="passStoneLight" x1="0%" y1="0%" x2="0%" y2="100%"><stop offset="0%" stop-color="#829089"/><stop offset="100%" stop-color="#5D6963"/></linearGradient><linearGradient id="gateWood" x1="0%" y1="0%" x2="0%" y2="100%"><stop offset="0%" stop-color="#7F1D1D"/><stop offset="100%" stop-color="#450A0A"/></linearGradient><linearGradient id="goldGrad" x1="0%" y1="0%" x2="100%" y2="100%"><stop offset="0%" stop-color="#FDE047"/><stop offset="100%" stop-color="#B45309"/></linearGradient><filter id="passShadowSW" x="-50%" y="-50%" width="200%" height="200%"><feGaussianBlur in="SourceAlpha" stdDeviation="6"/><feOffset dx="8" dy="12" result="offsetblur"/><feComponentTransfer><feFuncA type="linear" slope="0.22"/></feComponentTransfer><feMerge><feMergeNode/><feMergeNode in="SourceGraphic"/></feMerge></filter><filter id="passShadowSE" x="-50%" y="-50%" width="200%" height="200%"><feGaussianBlur in="SourceAlpha" stdDeviation="6"/><feOffset dx="-8" dy="12" result="offsetblur"/><feComponentTransfer><feFuncA type="linear" slope="0.22"/></feComponentTransfer><feMerge><feMergeNode/><feMergeNode in="SourceGraphic"/></feMerge></filter></defs><g transform="scale(1)"><path d="M 233.6 174.4 L 313.6 214.4 L 204.8 268.8 L 124.8 228.8 Z" fill="#27322E" opacity="0.30"/><path d="M 124.8 228.8 L 204.8 268.8 L 204.8 260.8 L 124.8 220.8 Z" fill="#45524C" stroke="#222B27" stroke-width="0.6"/><path d="M 313.6 214.4 L 204.8 268.8 L 204.8 260.8 L 313.6 206.4 Z" fill="#394641" stroke="#1D2522" stroke-width="0.6"/><path d="M 233.6 166.4 L 313.6 206.4 L 204.8 260.8 L 124.8 220.8 Z" fill="#647169" stroke="#2F3935" stroke-width="0.8"/><g filter="url(#passShadowSE)"><path d="M 96 230 L 192 278 L 192 213 L 96 165 Z" fill="url(#passStoneLight)" stroke="#000"/><path d="M 352 198 L 192 278 L 192 213 L 352 133 Z" fill="url(#passStoneDark)" stroke="#000"/><path d="M 256 85 L 352 133 L 192 213 L 96 165 Z" fill="url(#passStoneLight)" stroke="#000"/><path d="M 296 226 L 248 250 L 248 220 L 272 196 L 296 196 Z" fill="#000"/><path d="M 284.8 223.6 L 243.2 244.4 L 243.2 206.4 L 284.8 185.6 Z" fill="url(#gateWood)"/><path d="M 264 234 L 264 196 Z" stroke="#2D0A0A" stroke-width="1.5"/><path d="M 208 125 L 208 90 Z" stroke="#7F1D1D" stroke-width="3"/><path d="M 272 157 L 272 122 Z" stroke="#7F1D1D" stroke-width="3"/><path d="M 176 141 L 176 106 Z" stroke="#7F1D1D" stroke-width="3"/><path d="M 240 173 L 240 138 Z" stroke="#7F1D1D" stroke-width="3"/><path d="M 208 74 L 304 122 L 240 154 L 144 106 Z" fill="#111827"/><path d="M 240 154 L 144 106 L 224 89 Z" fill="#334155" stroke="#000"/><path d="M 304 122 L 240 154 L 224 89 Z" fill="#1E293B" stroke="#000"/><path d="M 344 137 L 336 141 L 336 128 L 344 124 Z" fill="url(#passStoneDark)" stroke="#000"/><path d="M 323.20000000000005 147.4 L 315.2 151.4 L 315.2 138.4 L 323.20000000000005 134.4 Z" fill="url(#passStoneDark)" stroke="#000"/><path d="M 228.8 194.60000000000002 L 220.79999999999998 198.60000000000002 L 220.79999999999998 185.60000000000002 L 228.8 181.60000000000002 Z" fill="url(#passStoneDark)" stroke="#000"/><path d="M 208 205 L 200 209 L 200 196 L 208 192 Z" fill="url(#passStoneDark)" stroke="#000"/></g><path d="M 304 122 L 224 89 Z" stroke="#B45309" stroke-width="2.5"/><path d="M 240 154 L 224 89 Z" stroke="#B45309" stroke-width="2.5"/><path d="M 144 106 L 224 89 Z" stroke="#B45309" stroke-width="2.5"/><path d="M 224 89 L 224 74 Z" stroke="#D4AF37" stroke-width="2"/><circle cx="224" cy="74" r="3.5" fill="url(#goldGrad)"/><path d="M 264 113 L 264 63 Z" stroke="#1E293B" stroke-width="1.5"/><path d="M 264 63 L 264 88 L 236.8 89.6 Z" fill="#991B1B" stroke="#7F1D1D"/></g></g></svg>
