<svg data-asset-anchor="bottom-center footprint center" style="width:384;height:384;overflow:visible;pointer-events:none" width="384" height="384" viewBox="-192 -220 384 384" fill="none" xmlns="http://www.w3.org/2000/svg" role="img" aria-label="Recruit Hall Base v1" data-asset-id="RecruitHall_Base_v1" data-footprint-size="240"><defs><linearGradient id="recruitRoof" x1="0%" y1="0%" x2="0%" y2="100%"><stop offset="0%" stop-color="#575047"/><stop offset="100%" stop-color="#241f1b"/></linearGradient><linearGradient id="recruitLantern" x1="0%" y1="0%" x2="0%" y2="100%"><stop offset="0%" stop-color="#d0a557"/><stop offset="100%" stop-color="#7a531d"/></linearGradient><filter id="recruitShadow" x="-25%" y="-25%" width="150%" height="150%"><feGaussianBlur in="SourceAlpha" stdDeviation="2.8"/><feOffset dx="2" dy="4" result="offsetblur"/><feComponentTransfer><feFuncA type="linear" slope="0.42"/></feComponentTransfer><feMerge><feMergeNode/><feMergeNode in="SourceGraphic"/></feMerge></filter></defs><g filter="url(#recruitShadow)"><path d="M 0 -60 L 120 0 L 0 60 L -120 0 Z" fill="#161510" stroke="#090807" stroke-width="1.15"/><g><path d="M 0 -70 L -120 -10 L 0 50 L 120 -10 Z" fill="#40372f" stroke="rgba(0,0,0,0.18)" stroke-width="0.9" stroke-linejoin="round"/><path d="M 0 -60 L -120 0 L -120 -10 L 0 -70 Z" fill="#211b17" stroke="rgba(0,0,0,0.18)" stroke-width="0.9" stroke-linejoin="round"/><path d="M -120 0 L 0 60 L 0 50 L -120 -10 Z" fill="#2f2924" stroke="rgba(0,0,0,0.18)" stroke-width="0.9" stroke-linejoin="round"/></g><g><path d="M 0 -68.4 L -100.80000000000001 -17.999999999999996 L 0 32.400000000000006 L 100.80000000000001 -17.999999999999996 Z" fill="#40372f" stroke="rgba(0,0,0,0.18)" stroke-width="0.9" stroke-linejoin="round"/><path d="M 0 -60.4 L -100.80000000000001 -9.999999999999996 L -100.80000000000001 -17.999999999999996 L 0 -68.4 Z" fill="#211b17" stroke="rgba(0,0,0,0.18)" stroke-width="0.9" stroke-linejoin="round"/><path d="M -100.80000000000001 -9.999999999999996 L 0 40.400000000000006 L 0 32.400000000000006 L -100.80000000000001 -17.999999999999996 Z" fill="#2f2924" stroke="rgba(0,0,0,0.18)" stroke-width="0.9" stroke-linejoin="round"/></g><g><path d="M -2.400000000000002 -98.8 L -81.6 -59.2 L 2.400000000000002 -17.200000000000003 L 81.6 -56.8 Z" fill="#2f1b12" stroke="rgba(0,0,0,0.18)" stroke-width="0.9" stroke-linejoin="round"/><path d="M -2.400000000000002 -58.8 L -81.6 -19.200000000000003 L -81.6 -59.2 L -2.400000000000002 -98.8 Z" fill="#1d120d" stroke="rgba(0,0,0,0.18)" stroke-width="0.9" stroke-linejoin="round"/><path d="M -81.6 -19.200000000000003 L 2.400000000000002 22.799999999999997 L 2.400000000000002 -17.200000000000003 L -81.6 -59.2 Z" fill="#4e2a1b" stroke="rgba(0,0,0,0.18)" stroke-width="0.9" stroke-linejoin="round"/></g><g><path d="M -10.800000000000002 -107.4 L -18.000000000000004 -103.8 L 75.6 -57 L 82.8 -60.6 Z" fill="#62321f" stroke="rgba(0,0,0,0.18)" stroke-width="0.9" stroke-linejoin="round"/><path d="M -10.800000000000002 -99.4 L -18.000000000000004 -95.8 L -18.000000000000004 -103.8 L -10.800000000000002 -107.4 Z" fill="#361c13" stroke="rgba(0,0,0,0.18)" stroke-width="0.9" stroke-linejoin="round"/><path d="M -18.000000000000004 -95.8 L 75.6 -49 L 75.6 -57 L -18.000000000000004 -103.8 Z" fill="#834428" stroke="rgba(0,0,0,0.18)" stroke-width="0.9" stroke-linejoin="round"/></g><g><path d="M -75.6 -75 L -82.80000000000001 -71.4 L 10.799999999999997 -24.599999999999994 L 18.000000000000004 -28.200000000000003 Z" fill="#62321f" stroke="rgba(0,0,0,0.18)" stroke-width="0.9" stroke-linejoin="round"/><path d="M -75.6 -67 L -82.80000000000001 -63.4 L -82.80000000000001 -71.4 L -75.6 -75 Z" fill="#361c13" stroke="rgba(0,0,0,0.18)" stroke-width="0.9" stroke-linejoin="round"/><path d="M -82.80000000000001 -63.4 L 10.799999999999997 -16.599999999999994 L 10.799999999999997 -24.599999999999994 L -82.80000000000001 -71.4 Z" fill="#834428" stroke="rgba(0,0,0,0.18)" stroke-width="0.9" stroke-linejoin="round"/></g><path d="M 0 -114 L 96 -66 L 61.2 -91 L -6.000000000000005 -124.6 Z" fill="url(#recruitRoof)" stroke="rgba(0,0,0,0.16)" stroke-width="0.95" stroke-linejoin="round"/><path d="M -96 -66 L 0 -18 L 6.000000000000005 -63.4 L -61.2 -97 Z" fill="url(#recruitRoof)" stroke="rgba(0,0,0,0.16)" stroke-width="0.95" stroke-linejoin="round"/><path d="M -6.000000000000005 -124.6 L 61.2 -91 L 6.000000000000005 -63.4 L -61.2 -97 Z" fill="url(#recruitRoof)" stroke="rgba(0,0,0,0.14)" stroke-width="0.95" stroke-linejoin="round"/><g><path d="M 0 -46.2 L -19.200000000000003 -36.599999999999994 L -2.400000000000002 -28.2 L 16.8 -37.8 Z" fill="#5d584f" stroke="rgba(0,0,0,0.18)" stroke-width="0.9" stroke-linejoin="round"/><path d="M 0 -35.2 L -19.200000000000003 -25.599999999999998 L -19.200000000000003 -36.599999999999994 L 0 -46.2 Z" fill="#3a352f" stroke="rgba(0,0,0,0.18)" stroke-width="0.9" stroke-linejoin="round"/><path d="M -19.200000000000003 -25.599999999999998 L -2.400000000000002 -17.2 L -2.400000000000002 -28.2 L -19.200000000000003 -36.599999999999994 Z" fill="#746c61" stroke="rgba(0,0,0,0.18)" stroke-width="0.9" stroke-linejoin="round"/></g><g><path d="M -43.199999999999996 -24.6 L -62.400000000000006 -15 L -45.6 -6.6 L -26.4 -16.200000000000003 Z" fill="#5d584f" stroke="rgba(0,0,0,0.18)" stroke-width="0.9" stroke-linejoin="round"/><path d="M -43.199999999999996 -13.600000000000001 L -62.400000000000006 -4 L -62.400000000000006 -15 L -43.199999999999996 -24.6 Z" fill="#3a352f" stroke="rgba(0,0,0,0.18)" stroke-width="0.9" stroke-linejoin="round"/><path d="M -62.400000000000006 -4 L -45.6 4.4 L -45.6 -6.6 L -62.400000000000006 -15 Z" fill="#746c61" stroke="rgba(0,0,0,0.18)" stroke-width="0.9" stroke-linejoin="round"/></g><g><path d="M 45.6 -23.4 L 26.4 -13.799999999999999 L 43.199999999999996 -5.399999999999999 L 62.400000000000006 -15 Z" fill="#5d584f" stroke="rgba(0,0,0,0.18)" stroke-width="0.9" stroke-linejoin="round"/><path d="M 45.6 -12.4 L 26.4 -2.799999999999999 L 26.4 -13.799999999999999 L 45.6 -23.4 Z" fill="#3a352f" stroke="rgba(0,0,0,0.18)" stroke-width="0.9" stroke-linejoin="round"/><path d="M 26.4 -2.799999999999999 L 43.199999999999996 5.600000000000001 L 43.199999999999996 -5.399999999999999 L 26.4 -13.799999999999999 Z" fill="#746c61" stroke="rgba(0,0,0,0.18)" stroke-width="0.9" stroke-linejoin="round"/></g><g><path d="M 2.400000000000002 -1.8000000000000007 L -16.8 7.800000000000001 L 0 16.200000000000003 L 19.200000000000003 6.599999999999998 Z" fill="#5d584f" stroke="rgba(0,0,0,0.18)" stroke-width="0.9" stroke-linejoin="round"/><path d="M 2.400000000000002 9.2 L -16.8 18.8 L -16.8 7.800000000000001 L 2.400000000000002 -1.8000000000000007 Z" fill="#3a352f" stroke="rgba(0,0,0,0.18)" stroke-width="0.9" stroke-linejoin="round"/><path d="M -16.8 18.8 L 0 27.200000000000003 L 0 16.200000000000003 L -16.8 7.800000000000001 Z" fill="#746c61" stroke="rgba(0,0,0,0.18)" stroke-width="0.9" stroke-linejoin="round"/></g><path d="M 10.799999999999997 -33 L 29.999999999999993 -23.400000000000002 L -10.80000000000001 -3 L -30.000000000000007 -12.599999999999998 Z" fill="#241913" stroke="rgba(0,0,0,0.22)" stroke-width="0.8" stroke-linejoin="round"/><path d="M 10.800000000000002 -29.4 L 22.800000000000008 -23.4 L -10.799999999999997 -6.599999999999996 L -22.8 -12.599999999999998 Z" fill="#5d3d29" stroke="rgba(0,0,0,0.18)" stroke-width="0.7" stroke-linejoin="round"/><g><path d="M 38.4 -86.4 L 28.799999999999997 -81.6 L 43.2 -74.39999999999999 L 52.800000000000004 -79.19999999999999 Z" fill="#b38d4f" stroke="rgba(0,0,0,0.18)" stroke-width="0.9" stroke-linejoin="round"/><path d="M 38.4 -74.4 L 28.799999999999997 -69.6 L 28.799999999999997 -81.6 L 38.4 -86.4 Z" fill="#7a5d31" stroke="rgba(0,0,0,0.18)" stroke-width="0.9" stroke-linejoin="round"/><path d="M 28.799999999999997 -69.6 L 43.2 -62.4 L 43.2 -74.39999999999999 L 28.799999999999997 -81.6 Z" fill="#95713b" stroke="rgba(0,0,0,0.18)" stroke-width="0.9" stroke-linejoin="round"/></g><path d="M 24 -84 L 47.99999999999999 -72 L 38.39999999999999 -63.6 L 19.199999999999996 -73.2 Z" fill="url(#recruitLantern)" stroke="rgba(0,0,0,0.14)" stroke-width="0.8" stroke-linejoin="round"/><path d="M 36 -78 L 26.4 -95.2" stroke="#8c6a35" stroke-width="1.2"/><path d="M -13.200000000000005 -29.4 L -22.8 -58.2" stroke="#9d7340" stroke-width="1.1"/><path d="M 22.8 -11.399999999999999 L 32.4 -30.6" stroke="#9d7340" stroke-width="1.1"/><path d="M -26.4 -64.8 L -16.799999999999994 -60 L -35.99999999999999 -50.4 L -45.599999999999994 -55.2 Z" fill="#5c4231" stroke="rgba(0,0,0,0.12)" stroke-width="0.7" stroke-linejoin="round"/><path d="M 36 -33.6 L 45.60000000000001 -28.799999999999997 L 26.40000000000001 -19.2 L 16.8 -24.000000000000004 Z" fill="#5c4231" stroke="rgba(0,0,0,0.12)" stroke-width="0.7" stroke-linejoin="round"/><g><path d="M -21.599999999999998 -74.4 L -64.80000000000001 -52.8 L -60 -50.4 L -16.8 -72 Z" fill="#62321f" stroke="rgba(0,0,0,0.18)" stroke-width="0.9" stroke-linejoin="round"/><path d="M -21.599999999999998 -50.400000000000006 L -64.80000000000001 -28.799999999999997 L -64.80000000000001 -52.8 L -21.599999999999998 -74.4 Z" fill="#361c13" stroke="rgba(0,0,0,0.18)" stroke-width="0.9" stroke-linejoin="round"/><path d="M -64.80000000000001 -28.799999999999997 L -60 -26.4 L -60 -50.4 L -64.80000000000001 -52.8 Z" fill="#834428" stroke="rgba(0,0,0,0.18)" stroke-width="0.9" stroke-linejoin="round"/></g><g><path d="M 59.99999999999999 -33.6 L 16.79999999999999 -12 L 21.599999999999994 -9.599999999999994 L 64.80000000000001 -31.200000000000003 Z" fill="#62321f" stroke="rgba(0,0,0,0.18)" stroke-width="0.9" stroke-linejoin="round"/><path d="M 59.99999999999999 -9.600000000000003 L 16.79999999999999 12 L 16.79999999999999 -12 L 59.99999999999999 -33.6 Z" fill="#361c13" stroke="rgba(0,0,0,0.18)" stroke-width="0.9" stroke-linejoin="round"/><path d="M 16.79999999999999 12 L 21.599999999999994 14.400000000000006 L 21.599999999999994 -9.599999999999994 L 16.79999999999999 -12 Z" fill="#834428" stroke="rgba(0,0,0,0.18)" stroke-width="0.9" stroke-linejoin="round"/></g><path d="M -19.200000000000003 -78 L -12.000000000000004 -74.4 L -64.80000000000001 -48 L -72 -51.6 Z" fill="#7b4a34" stroke="rgba(0,0,0,0.14)" stroke-width="0.7" stroke-linejoin="round"/><path d="M 64.8 -36 L 72 -32.4 L 19.200000000000003 -6 L 11.999999999999996 -9.600000000000001 Z" fill="#7b4a34" stroke="rgba(0,0,0,0.14)" stroke-width="0.7" stroke-linejoin="round"/><path d="M -2.400000000000002 -52 L 84 -8.799999999999999 L 67.2 -18 L 0 -51.6 Z" fill="#3a2e25" stroke="rgba(0,0,0,0.1)" stroke-width="0.6" stroke-linejoin="round"/></g></svg>
