<svg data-asset-anchor="bottom-center footprint center" style="width:384;height:384;overflow:visible;pointer-events:none" width="384" height="384" viewBox="-192 -210 384 384" fill="none" xmlns="http://www.w3.org/2000/svg" role="img" aria-label="Residence Base v1" data-asset-id="Residence_Base_v1" data-footprint-size="240"><defs><linearGradient id="residence-stone-world_cell_1" x1="0%" y1="0%" x2="100%" y2="100%"><stop offset="0%" stop-color="#7d786f"/><stop offset="100%" stop-color="#3f3a35"/></linearGradient><linearGradient id="residence-wood-world_cell_1" x1="0%" y1="0%" x2="100%" y2="100%"><stop offset="0%" stop-color="#5b3928"/><stop offset="60%" stop-color="#33231a"/><stop offset="100%" stop-color="#1b120d"/></linearGradient><linearGradient id="residence-roof-world_cell_1" x1="0%" y1="0%" x2="100%" y2="100%"><stop offset="0%" stop-color="#2a2723"/><stop offset="100%" stop-color="#141210"/></linearGradient><filter id="residence-shadow-world_cell_1" x="-20%" y="-20%" width="140%" height="140%"><feGaussianBlur in="SourceAlpha" stdDeviation="2.5"/><feOffset dx="2" dy="4" result="offsetblur"/><feComponentTransfer><feFuncA type="linear" slope="0.44"/></feComponentTransfer><feMerge><feMergeNode/><feMergeNode in="SourceGraphic"/></feMerge></filter></defs><g filter="url(#residence-shadow-world_cell_1)"><path d="M 0 -60 L 120 0 L 0 60 L -120 0 Z" fill="#171512" stroke="#080706" stroke-width="1.1"/><path d="M -120 0 L -120 -10 L 0 50 L 0 60 Z" fill="#0f0d0c" stroke="#050403" stroke-width="0.8"/><path d="M 120 0 L 120 -10 L 0 50 L 0 60 Z" fill="#0c0b0a" stroke="#050403" stroke-width="0.8"/><path d="M 0 -70 L 120 -10 L 0 50 L -120 -10 Z" fill="url(#residence-stone-world_cell_1)" stroke="#6f5b31" stroke-width="0.9"/><path d="M -2.400000000000002 -47.2 L 72.00000000000001 -9.999999999999996 L 28.799999999999997 11.600000000000005 L -45.60000000000001 -25.599999999999998 Z" fill="url(#residence-wood-world_cell_1)" stroke="#8a6d3d" stroke-width="0.95"/><path d="M -45.60000000000001 -25.599999999999998 L -45.60000000000001 -49.599999999999994 L 28.799999999999997 -12.399999999999995 L 28.799999999999997 11.600000000000005 Z" fill="#1d1410" stroke="#59402a" stroke-width="0.8"/><path d="M -2.400000000000002 -71.2 L 72.00000000000001 -34 L 28.799999999999997 -12.399999999999995 L -45.60000000000001 -49.599999999999994 Z" fill="#433830" stroke="#a88a58" stroke-width="0.75"/><path d="M -4.800000000000004 -77.19999999999999 L 86.39999999999999 -31.599999999999998 L 36.00000000000001 -48 L -36 -84 Z" fill="url(#residence-roof-world_cell_1)" stroke="#090808" stroke-width="0.95"/><path d="M -36 -84 L 36.00000000000001 -48 L 0 -80 L -36 -84 Z" fill="#a6864a" opacity="0.78"/><path d="M -21.600000000000005 -13.599999999999996 L 7.199999999999993 0.8000000000000025 L -11.999999999999996 10.399999999999999 L -40.8 -4.000000000000002 Z" fill="#1a120e" stroke="#6a4d29" stroke-width="0.8"/><path d="M -20.4 -10.600000000000003 L 1.200000000000001 0.19999999999999574 L -13.2 7.399999999999995 L -34.8 -3.400000000000004 Z" fill="#2b2018" stroke="rgba(198,166,95,0.18)" stroke-width="0.55"/><path d="M -12.000000000000004 -35.2 L 0 -29.199999999999996 L -9.599999999999994 -24.4 L -21.599999999999998 -30.400000000000002 Z" fill="#31241c" stroke="#8c6c3d" stroke-width="0.7"/><path d="M 40.800000000000004 -8.799999999999995 L 52.8 -2.799999999999997 L 43.2 2 L 31.200000000000006 -3.9999999999999982 Z" fill="#31241c" stroke="#8c6c3d" stroke-width="0.7"/><path d="M -45.599999999999994 -6.4 L -7.199999999999993 12.8 L -19.19999999999999 18.799999999999997 L -57.599999999999994 -0.40000000000000213 Z" fill="#27221b" stroke="#846539" stroke-width="0.75"/><path d="M -67.2 -12.399999999999999 L -50.4 -3.9999999999999982 L -64.80000000000001 3.200000000000001 L -81.6 -5.199999999999999 Z" fill="#40362f" stroke="#917246" stroke-width="0.7"/><path d="M -11.999999999999996 15.200000000000003 L 4.800000000000004 23.6 L -9.599999999999994 30.800000000000004 L -26.4 22.400000000000006 Z" fill="#40362f" stroke="#917246" stroke-width="0.7"/><path d="M -50.400000000000006 -30.4 L -31.200000000000003 -20.799999999999997 L -57.599999999999994 -12.400000000000002 L -76.79999999999998 -22 Z" fill="#2a1d16" stroke="#7e6337" stroke-width="0.75"/><path d="M -50.400000000000006 -30.4 L -31.200000000000003 -20.799999999999997 L -60 -31.6 L -76.79999999999998 -40 Z" fill="#33251d" stroke="#090807" stroke-width="0.7"/><path d="M 2.400000000000002 8.000000000000004 L 11.999999999999996 12.8 L 2.400000000000002 9.599999999999998 L -7.199999999999993 4.800000000000001 Z" fill="#59442b" stroke="#b18f57" stroke-width="0.75"/><path d="M -55.2 -22.799999999999997 L -36 -13.199999999999998" stroke="rgba(192,160,92,0.16)" stroke-width="1.1"/></g></svg>
