<svg data-asset-anchor="bottom-center footprint center" style="width:384;height:384;overflow:visible;pointer-events:none" width="384" height="384" viewBox="-192 -220 384 384" fill="none" xmlns="http://www.w3.org/2000/svg" role="img" aria-label="Stable Base v1" data-asset-id="Stable_Base_v1" data-footprint-size="240"><defs><linearGradient id="stable-stone-world_cell_1" x1="0%" y1="0%" x2="100%" y2="100%"><stop offset="0%" stop-color="#5f5d57"/><stop offset="100%" stop-color="#2c2a26"/></linearGradient><linearGradient id="stable-wood-world_cell_1" x1="0%" y1="0%" x2="100%" y2="100%"><stop offset="0%" stop-color="#5c3a27"/><stop offset="55%" stop-color="#342018"/><stop offset="100%" stop-color="#1d120e"/></linearGradient><linearGradient id="stable-bronze-world_cell_1" x1="0%" y1="0%" x2="0%" y2="100%"><stop offset="0%" stop-color="#d1b06b"/><stop offset="100%" stop-color="#6d5326"/></linearGradient><filter id="stable-shadow-world_cell_1" x="-20%" y="-20%" width="140%" height="140%"><feGaussianBlur in="SourceAlpha" stdDeviation="2.6"/><feOffset dx="2" dy="4" result="offsetblur"/><feComponentTransfer><feFuncA type="linear" slope="0.45"/></feComponentTransfer><feMerge><feMergeNode/><feMergeNode in="SourceGraphic"/></feMerge></filter></defs><g filter="url(#stable-shadow-world_cell_1)"><path d="M 0 -60 L 120 0 L 0 60 L -120 0 Z" fill="#171613" stroke="#090807" stroke-width="1.1"/><path d="M -120 0 L -120 -10 L 0 50 L 0 60 Z" fill="#10100d" stroke="#060504" stroke-width="0.8"/><path d="M 120 0 L 120 -10 L 0 50 L 0 60 Z" fill="#0e0d0b" stroke="#060504" stroke-width="0.8"/><path d="M 0 -70 L 120 -10 L 0 50 L -120 -10 Z" fill="url(#stable-stone-world_cell_1)" stroke="#6f5a31" stroke-width="0.95"/><path d="M 0 -64.8 L 105.6 -12.000000000000004 L 0 40.8 L -105.6 -12.000000000000004 Z" fill="#362f28" opacity="0.35"/><path d="M -69.60000000000001 -14.6 L 7.199999999999993 23.799999999999997 L -12.00000000000001 33.4 L -88.8 -4.999999999999998 Z" fill="#241d18" stroke="#6a4d25" stroke-width="0.75"/><path d="M -9.599999999999994 -48.4 L 76.8 -5.200000000000003 L 38.39999999999999 14 L -48 -29.199999999999996 Z" fill="url(#stable-wood-world_cell_1)" stroke="#8a6a39" stroke-width="1"/><path d="M -48 -29.199999999999996 L -48 -63.199999999999996 L 38.39999999999999 -20 L 38.39999999999999 14 Z" fill="#201611" stroke="#5c3d28" stroke-width="0.85"/><path d="M -9.599999999999994 -82.4 L 76.8 -39.2 L 38.39999999999999 -20 L -48 -63.199999999999996 Z" fill="#423831" stroke="#9b8453" stroke-width="0.85"/><path d="M -9.600000000000001 -87.19999999999999 L 86.39999999999999 -39.2 L 35.99999999999999 -53.6 L -40.800000000000004 -92 Z" fill="#23211d" stroke="#0f0f0c" stroke-width="0.95"/><path d="M -9.600000000000001 -84.8 L 81.6 -39.2 L 36.00000000000001 -54 L -36 -90 Z" fill="none" stroke="rgba(204,171,99,0.25)" stroke-width="0.9"/><path d="M -40.800000000000004 -92 L 35.99999999999999 -53.6 L 0 -90 L -38.4 -93.2 Z" fill="url(#stable-bronze-world_cell_1)"/><path d="M -4.799999999999997 -43.6 L -2.160000000000002 -42.28 L -35.760000000000005 -25.48 L -38.4 -26.799999999999997 Z" fill="#5a3322"/><path d="M 12.000000000000004 -35.2 L 14.640000000000006 -33.879999999999995 L -18.959999999999997 -17.08 L -21.599999999999998 -18.4 Z" fill="#5a3322"/><path d="M 28.799999999999997 -26.8 L 31.44 -25.48 L -2.160000000000002 -8.68 L -4.800000000000004 -10 Z" fill="#5a3322"/><path d="M 45.6 -18.4 L 48.24 -17.08 L 14.64 -0.2799999999999976 L 11.999999999999996 -1.5999999999999996 Z" fill="#5a3322"/><path d="M 62.400000000000006 -10 L 65.04 -8.68 L 31.44 8.120000000000005 L 28.799999999999997 6.800000000000001 Z" fill="#5a3322"/><path d="M -4.800000000000004 -38.8 L 5.999999999999992 -33.400000000000006 L -20.400000000000006 -20.200000000000003 L -31.200000000000003 -25.6 Z" fill="#241813" stroke="rgba(191,160,92,0.22)" stroke-width="0.6"/><path d="M 11.999999999999996 -30.4 L 22.799999999999994 -25 L -3.600000000000003 -11.8 L -14.399999999999999 -17.2 Z" fill="#241813" stroke="rgba(191,160,92,0.22)" stroke-width="0.6"/><path d="M 28.799999999999997 -21.999999999999996 L 39.599999999999994 -16.6 L 13.2 -3.4000000000000004 L 2.400000000000002 -8.799999999999999 Z" fill="#241813" stroke="rgba(191,160,92,0.22)" stroke-width="0.6"/><path d="M 45.6 -13.599999999999996 L 56.4 -8.2 L 30 5 L 19.200000000000003 -0.3999999999999986 Z" fill="#241813" stroke="rgba(191,160,92,0.22)" stroke-width="0.6"/><path d="M -47.99999999999999 -26 L 24.000000000000007 10" stroke="#74562b" stroke-width="3"/><path d="M -50.4 -27.200000000000003 L -43.199999999999996 -23.6 L -50.400000000000006 -28 L -57.6 -31.599999999999998 Z" fill="#36241a"/><path d="M 57.599999999999994 -9.599999999999998 L 69.6 -3.5999999999999996 L 62.400000000000006 0 L 50.4 -5.999999999999998 Z" fill="url(#stable-bronze-world_cell_1)"/><path d="M 57.6 -11.2 L 57.6 -26.2" stroke="#b79e62" stroke-width="1.1"/><path d="M 62.400000000000006 -8.800000000000004 L 62.400000000000006 -23.800000000000004" stroke="#b79e62" stroke-width="1.1"/><path d="M 67.2 -6.400000000000002 L 67.2 -21.400000000000002" stroke="#b79e62" stroke-width="1.1"/><path d="M -52.800000000000004 -29.199999999999996 L -28.800000000000004 -17.199999999999996 L -64.8 -4.000000000000002 L -88.8 -16 Z" fill="#271a14" stroke="#7a5a30" stroke-width="0.9"/><path d="M -52.800000000000004 -29.199999999999996 L -28.800000000000004 -17.199999999999996 L -67.19999999999999 -31.200000000000003 L -88.8 -42 Z" fill="#2f231a" stroke="#0d0b09" stroke-width="0.8"/><path d="M -88.8 -42 L -67.19999999999999 -31.200000000000003 L -72.00000000000001 -56.4 L -81.60000000000001 -61.2 Z" fill="url(#stable-bronze-world_cell_1)"/><path d="M 4.800000000000004 8.200000000000003 L 16.8 14.200000000000003 L 9.600000000000009 11.200000000000003 L -7.199999999999993 2.8000000000000007 Z" fill="#70633a" stroke="#9d8447" stroke-width="0.75"/><path d="M -4.800000000000004 8.200000000000003 L 2.399999999999989 11.8 L -9.600000000000009 9.799999999999997 L -16.8 6.200000000000003 Z" fill="#473221" stroke="#8a6a39" stroke-width="0.7"/></g></svg>
