<svg data-asset-anchor="bottom-center footprint center" style="width:384;height:384;overflow:visible;pointer-events:none" width="384" height="384" viewBox="-192 -235 384 384" fill="none" xmlns="http://www.w3.org/2000/svg" role="img" aria-label="Warehouse Base v1" data-asset-id="Warehouse_Base_v1" data-footprint-size="240"><defs><filter id="warehouseShadow-world_cell_1" x="-20%" y="-20%" width="140%" height="140%"><feGaussianBlur in="SourceAlpha" stdDeviation="2.8"/><feOffset dx="2" dy="4" result="offsetblur"/><feComponentTransfer><feFuncA type="linear" slope="0.48"/></feComponentTransfer><feMerge><feMergeNode/><feMergeNode in="SourceGraphic"/></feMerge></filter></defs><g filter="url(#warehouseShadow-world_cell_1)"><path d="M -6 -55.8 L 112.8 3.5999999999999996 L 8.4 66.6 L -114 11.4 Z" fill="rgba(0,0,0,0.48)" stroke="none" stroke-width="0.5" stroke-linejoin="round"/><g><path d="M -3.5999999999999996 -70.19999999999999 L -120 -12 L 0 48 L 116.39999999999999 -10.2 Z" fill="#43423c" stroke="rgba(0,0,0,0.2)" stroke-width="0.5" stroke-linejoin="round"/><path d="M -3.5999999999999996 -58.199999999999996 L -120 0 L -120 -12 L -3.5999999999999996 -70.19999999999999 Z" fill="#1f1d18" stroke="rgba(0,0,0,0.2)" stroke-width="0.5" stroke-linejoin="round"/><path d="M -120 0 L 0 60 L 0 48 L -120 -12 Z" fill="#2b2923" stroke="rgba(0,0,0,0.2)" stroke-width="0.5" stroke-linejoin="round"/></g><g><path d="M -3.5999999999999996 -69 L -105.6 -18 L 0 34.8 L 102 -16.2 Z" fill="#53514a" stroke="rgba(0,0,0,0.2)" stroke-width="0.5" stroke-linejoin="round"/><path d="M -3.5999999999999996 -63 L -105.6 -12 L -105.6 -18 L -3.5999999999999996 -69 Z" fill="#2a2721" stroke="rgba(0,0,0,0.2)" stroke-width="0.5" stroke-linejoin="round"/><path d="M -105.6 -12 L 0 40.8 L 0 34.8 L -105.6 -18 Z" fill="#393630" stroke="rgba(0,0,0,0.2)" stroke-width="0.5" stroke-linejoin="round"/></g><g><path d="M -70.8 10.2 L -75.6 12.599999999999998 L -49.199999999999996 25.799999999999997 L -44.4 23.4 Z" fill="#53514a" stroke="rgba(0,0,0,0.2)" stroke-width="0.5" stroke-linejoin="round"/><path d="M -70.8 22.2 L -75.6 24.599999999999998 L -75.6 12.599999999999998 L -70.8 10.2 Z" fill="#2a2721" stroke="rgba(0,0,0,0.2)" stroke-width="0.5" stroke-linejoin="round"/><path d="M -75.6 24.599999999999998 L -49.199999999999996 37.8 L -49.199999999999996 25.799999999999997 L -75.6 12.599999999999998 Z" fill="#393630" stroke="rgba(0,0,0,0.2)" stroke-width="0.5" stroke-linejoin="round"/></g><g><path d="M -15.6 -99.4 L -76.8 -68.8 L 9.6 -25.6 L 70.8 -56.2 Z" fill="#361d14" stroke="rgba(0,0,0,0.2)" stroke-width="0.5" stroke-linejoin="round"/><path d="M -15.6 -53.4 L -76.8 -22.8 L -76.8 -68.8 L -15.6 -99.4 Z" fill="#4e291b" stroke="rgba(0,0,0,0.2)" stroke-width="0.5" stroke-linejoin="round"/><path d="M -76.8 -22.8 L 9.6 20.4 L 9.6 -25.6 L -76.8 -68.8 Z" fill="#6f3d26" stroke="rgba(0,0,0,0.2)" stroke-width="0.5" stroke-linejoin="round"/></g><g><path d="M -15.6 -112.2 L -62.4 -88.8 L 9.6 -52.8 L 56.4 -76.2 Z" fill="#53514a" stroke="rgba(0,0,0,0.2)" stroke-width="0.5" stroke-linejoin="round"/><path d="M -15.6 -92.2 L -62.4 -68.8 L -62.4 -88.8 L -15.6 -112.2 Z" fill="#2a2721" stroke="rgba(0,0,0,0.2)" stroke-width="0.5" stroke-linejoin="round"/><path d="M -62.4 -68.8 L 9.6 -32.8 L 9.6 -52.8 L -62.4 -88.8 Z" fill="#393630" stroke="rgba(0,0,0,0.2)" stroke-width="0.5" stroke-linejoin="round"/></g><g><path d="M -15.6 -117 L -46.8 -101.4 L 10.799999999999999 -72.6 L 42 -88.2 Z" fill="#361d14" stroke="rgba(0,0,0,0.2)" stroke-width="0.5" stroke-linejoin="round"/><path d="M -15.6 -105 L -46.8 -89.4 L -46.8 -101.4 L -15.6 -117 Z" fill="#4e291b" stroke="rgba(0,0,0,0.2)" stroke-width="0.5" stroke-linejoin="round"/><path d="M -46.8 -89.4 L 10.799999999999999 -60.6 L 10.799999999999999 -72.6 L -46.8 -101.4 Z" fill="#6f3d26" stroke="rgba(0,0,0,0.2)" stroke-width="0.5" stroke-linejoin="round"/></g><g><path d="M -43.199999999999996 -35.6 L -46.8 -33.8 L -34.8 -27.8 L -31.2 -29.6 Z" fill="#14110d" stroke="rgba(0,0,0,0.2)" stroke-width="0.5" stroke-linejoin="round"/><path d="M -43.199999999999996 -9.6 L -46.8 -7.800000000000001 L -46.8 -33.8 L -43.199999999999996 -35.6 Z" fill="#201813" stroke="rgba(0,0,0,0.2)" stroke-width="0.5" stroke-linejoin="round"/><path d="M -46.8 -7.800000000000001 L -34.8 -1.8000000000000007 L -34.8 -27.8 L -46.8 -33.8 Z" fill="#201813" stroke="rgba(0,0,0,0.2)" stroke-width="0.5" stroke-linejoin="round"/></g><g><path d="M -28.799999999999997 -28.4 L -32.4 -26.6 L -20.4 -20.6 L -16.8 -22.400000000000002 Z" fill="#14110d" stroke="rgba(0,0,0,0.2)" stroke-width="0.5" stroke-linejoin="round"/><path d="M -28.799999999999997 -2.4000000000000004 L -32.4 -0.6000000000000014 L -32.4 -26.6 L -28.799999999999997 -28.4 Z" fill="#201813" stroke="rgba(0,0,0,0.2)" stroke-width="0.5" stroke-linejoin="round"/><path d="M -32.4 -0.6000000000000014 L -20.4 5.399999999999999 L -20.4 -20.6 L -32.4 -26.6 Z" fill="#201813" stroke="rgba(0,0,0,0.2)" stroke-width="0.5" stroke-linejoin="round"/></g><path d="M -34.199999999999996 -16.3 L -91.8 -49.1 L -29.4 -13.900000000000002 L -91.8 -41.1 Z" fill="#a57d41" stroke="none" stroke-width="0.5" stroke-linejoin="round"/><g><path d="M -4.8 -152.4 L -114 -97.8 L 34.8 -174.6 Z" fill="#202021" stroke="rgba(0,0,0,0.2)" stroke-width="0.5" stroke-linejoin="round"/><path d="M -114 -97.8 L 3.5999999999999996 -39 L 85.2 -149.4 L 34.8 -174.6 Z" fill="#2d2d2f" stroke="rgba(0,0,0,0.2)" stroke-width="0.5" stroke-linejoin="round"/></g><path d="M 33.6 -175.2 L 86.39999999999999 -148.8 L 25.2 -123.2 L -27.599999999999998 -149.6 Z" fill="#a57d41" stroke="rgba(0,0,0,0.2)" stroke-width="0.5" stroke-linejoin="round"/><path d="M -4.8 -152.4 L -114 -97.8 L -109.2 -98.8 L -3.5999999999999996 -151.6 Z" fill="#675033" stroke="rgba(0,0,0,0.2)" stroke-width="0.5" stroke-linejoin="round"/><path d="M -114 -97.8 L 3.5999999999999996 -39 L 3.5999999999999996 -42.4 L -109.2 -98.8 Z" fill="#7a6035" stroke="rgba(0,0,0,0.2)" stroke-width="0.5" stroke-linejoin="round"/><g><path d="M -57.599999999999994 -59.2 L -88.8 -43.6 L -73.2 -35.8 L -42 -51.4 Z" fill="#60442c" stroke="rgba(0,0,0,0.2)" stroke-width="0.5" stroke-linejoin="round"/><path d="M -57.599999999999994 -43.2 L -88.8 -27.6 L -88.8 -43.6 L -57.599999999999994 -59.2 Z" fill="#402d1c" stroke="rgba(0,0,0,0.2)" stroke-width="0.5" stroke-linejoin="round"/><path d="M -88.8 -27.6 L -73.2 -19.8 L -73.2 -35.8 L -88.8 -43.6 Z" fill="#7b5a36" stroke="rgba(0,0,0,0.2)" stroke-width="0.5" stroke-linejoin="round"/></g><g><path d="M 36 -12.400000000000002 L 4.8 3.1999999999999957 L 20.4 11 L 51.6 -4.600000000000001 Z" fill="#60442c" stroke="rgba(0,0,0,0.2)" stroke-width="0.5" stroke-linejoin="round"/><path d="M 36 3.599999999999998 L 4.8 19.199999999999996 L 4.8 3.1999999999999957 L 36 -12.400000000000002 Z" fill="#402d1c" stroke="rgba(0,0,0,0.2)" stroke-width="0.5" stroke-linejoin="round"/><path d="M 4.8 19.199999999999996 L 20.4 27 L 20.4 11 L 4.8 3.1999999999999957 Z" fill="#7b5a36" stroke="rgba(0,0,0,0.2)" stroke-width="0.5" stroke-linejoin="round"/></g><g><path d="M -61.199999999999996 -69 L -74.39999999999999 -62.4 L -63.599999999999994 -57 L -50.4 -63.6 Z" fill="#5e5a43" stroke="rgba(0,0,0,0.2)" stroke-width="0.5" stroke-linejoin="round"/><path d="M -61.199999999999996 -55 L -74.39999999999999 -48.4 L -74.39999999999999 -62.4 L -61.199999999999996 -69 Z" fill="#3a3727" stroke="rgba(0,0,0,0.2)" stroke-width="0.5" stroke-linejoin="round"/><path d="M -74.39999999999999 -48.4 L -63.599999999999994 -43 L -63.599999999999994 -57 L -74.39999999999999 -62.4 Z" fill="#7a7250" stroke="rgba(0,0,0,0.2)" stroke-width="0.5" stroke-linejoin="round"/></g><g><path d="M 32.4 -22.2 L 19.2 -15.600000000000001 L 30 -10.200000000000003 L 43.199999999999996 -16.8 Z" fill="#5e5a43" stroke="rgba(0,0,0,0.2)" stroke-width="0.5" stroke-linejoin="round"/><path d="M 32.4 -8.2 L 19.2 -1.6000000000000014 L 19.2 -15.600000000000001 L 32.4 -22.2 Z" fill="#3a3727" stroke="rgba(0,0,0,0.2)" stroke-width="0.5" stroke-linejoin="round"/><path d="M 19.2 -1.6000000000000014 L 30 3.799999999999997 L 30 -10.200000000000003 L 19.2 -15.600000000000001 Z" fill="#7a7250" stroke="rgba(0,0,0,0.2)" stroke-width="0.5" stroke-linejoin="round"/></g><path d="M -60.599999999999994 -67.5 L -53.4 -63.9 L -54.6 -65.3 L -61.8 -68.9 Z" fill="#c39a58" stroke="rgba(0,0,0,0.2)" stroke-width="0.5" stroke-linejoin="round"/><path d="M 31.799999999999997 -21.3 L 39 -17.700000000000003 L 37.8 -19.1 L 30.599999999999998 -22.7 Z" fill="#c39a58" stroke="rgba(0,0,0,0.2)" stroke-width="0.5" stroke-linejoin="round"/><path d="M -30 4.199999999999999 L -21.599999999999998 0 L -19.2 9.599999999999998 L -27.599999999999998 15 Z" fill="#60442c" stroke="#3b291a" stroke-width="0.9" stroke-linejoin="round"/><path d="M -20.4 9 L -12 2.799999999999997 L -9.6 14.399999999999999 L -18 19.799999999999997 Z" fill="#7b5a36" stroke="#3b291a" stroke-width="0.9" stroke-linejoin="round"/><path d="M -61.199999999999996 -14.600000000000001 L -52.8 -17.6 L -46.8 -7.4 L -57.599999999999994 -3.200000000000001 Z" fill="#7a7250" stroke="#4b4530" stroke-width="0.9" stroke-linejoin="round"/><path d="M -57.599999999999994 -69.6 L 7.199999999999999 -37.2 L 4.8 -40 L -60 -72.4 Z" fill="#5b4728" stroke="rgba(0,0,0,0.2)" stroke-width="0.5" stroke-linejoin="round"/><path d="M -34.8 -77.4 L -13.2 -66.6 L -16.8 -70.8 L -38.4 -81.6 Z" fill="#c39a58" stroke="rgba(0,0,0,0.2)" stroke-width="0.5" stroke-linejoin="round"/></g></svg>
