<svg data-asset-anchor="bottom-center footprint center" style="width:384;height:384;overflow:visible;pointer-events:none" width="384" height="384" viewBox="-192 -230 384 384" fill="none" xmlns="http://www.w3.org/2000/svg" role="img" aria-label="Workshop Base v1" data-asset-id="Workshop_Base_v1" data-footprint-size="240"><defs><linearGradient id="workshop-brick-world_cell_1" x1="0%" y1="0%" x2="100%" y2="100%"><stop offset="0%" stop-color="#60534a"/><stop offset="100%" stop-color="#2d2722"/></linearGradient><linearGradient id="workshop-wood-world_cell_1" x1="0%" y1="0%" x2="100%" y2="100%"><stop offset="0%" stop-color="#5a3725"/><stop offset="60%" stop-color="#302117"/><stop offset="100%" stop-color="#1a120d"/></linearGradient><linearGradient id="workshop-bronze-world_cell_1" x1="0%" y1="0%" x2="0%" y2="100%"><stop offset="0%" stop-color="#c2a055"/><stop offset="100%" stop-color="#6a4e24"/></linearGradient><filter id="workshop-shadow-world_cell_1" x="-20%" y="-20%" width="140%" height="140%"><feGaussianBlur in="SourceAlpha" stdDeviation="2.8"/><feOffset dx="2" dy="4" result="offsetblur"/><feComponentTransfer><feFuncA type="linear" slope="0.46"/></feComponentTransfer><feMerge><feMergeNode/><feMergeNode in="SourceGraphic"/></feMerge></filter></defs><g filter="url(#workshop-shadow-world_cell_1)"><path d="M 0 -60 L 120 0 L 0 60 L -120 0 Z" fill="#191715" stroke="#090807" stroke-width="1.1"/><path d="M -120 0 L -120 -10 L 0 50 L 0 60 Z" fill="#10100e" stroke="#060504" stroke-width="0.8"/><path d="M 120 0 L 120 -10 L 0 50 L 0 60 Z" fill="#0e0d0c" stroke="#060504" stroke-width="0.8"/><path d="M 0 -70 L 120 -10 L 0 50 L -120 -10 Z" fill="url(#workshop-brick-world_cell_1)" stroke="#6f5731" stroke-width="0.95"/><path d="M 0 -62.4 L 100.80000000000001 -11.999999999999996 L 0 38.400000000000006 L -100.80000000000001 -11.999999999999996 Z" fill="#2c261f" stroke="rgba(194,160,85,0.35)" stroke-width="0.8"/><path d="M -9.599999999999994 -48 L 69.6 -8.400000000000004 L 31.19999999999999 10.8 L -48 -28.799999999999994 Z" fill="url(#workshop-wood-world_cell_1)" stroke="#8a6b3a" stroke-width="1"/><path d="M -48 -28.799999999999994 L -48 -58.8 L 31.19999999999999 -19.2 L 31.19999999999999 10.8 Z" fill="#201714" stroke="#5a3d2a" stroke-width="0.8"/><path d="M -9.599999999999994 -78 L 69.6 -38.400000000000006 L 31.19999999999999 -19.2 L -48 -58.8 Z" fill="#44392f" stroke="#a58a58" stroke-width="0.8"/><path d="M -7.199999999999999 -84 L 84 -38.4 L 35.99999999999999 -55.6 L -40.800000000000004 -94 Z" fill="#22211d" stroke="#0e0d0a" stroke-width="0.95"/><path d="M -36 -94 L 36.00000000000001 -58 L 0 -93 L -36 -94 Z" fill="url(#workshop-bronze-world_cell_1)"/><path d="M 69.6 -50.4 L 79.2 -45.599999999999994 L 72.00000000000001 -42 L 62.400000000000006 -46.8 Z" fill="#3d3127" stroke="#8b6734" stroke-width="0.7"/><path d="M 69.6 -48 L 74.4 -45.599999999999994 L 74.4 -91.6 L 69.6 -94 Z" fill="#2e2722" stroke="#75592f" stroke-width="0.7"/><path d="M 4.799999999999997 -78 L 14.399999999999999 -73.2 L 7.199999999999999 -69.6 L -2.400000000000002 -74.4 Z" fill="#36251b" stroke="#8a6d3d" stroke-width="0.65"/><path d="M -40.800000000000004 -27.599999999999998 L 31.200000000000003 8.400000000000006 L 16.8 15.600000000000005 L -55.2 -20.4 Z" fill="#1b120f" stroke="#5b4028" stroke-width="0.8"/><path d="M -27.600000000000005 -18.599999999999994 L -27.600000000000005 -52.599999999999994" stroke="#6c4b2e" stroke-width="3"/><path d="M 13.2 1.800000000000006 L 13.2 -32.199999999999996" stroke="#6c4b2e" stroke-width="3"/><path d="M -26.400000000000002 -17.999999999999996 L 11.999999999999996 1.2000000000000046 L 2.400000000000002 -17.999999999999996 L -36 -37.199999999999996 Z" fill="#2a1d16" stroke="rgba(196,165,92,0.23)" stroke-width="0.6"/><path d="M -64.80000000000001 -25.2 L -43.2 -14.399999999999999 L -62.400000000000006 -4.800000000000003 L -84 -15.600000000000003 Z" fill="#2b2018" stroke="#8d6937" stroke-width="0.75"/><path d="M -64.80000000000001 -22.799999999999997 L -52.800000000000004 -16.799999999999997 L -62.400000000000006 -24 L -74.4 -30 Z" fill="#6b5a42" stroke="#b3995f" stroke-width="0.75"/><path d="M -7.200000000000006 1.1999999999999993 L 16.8 13.200000000000003 L 0 21.6 L -24.000000000000007 9.599999999999998 Z" fill="#241814" stroke="#7c5c33" stroke-width="0.75"/><path d="M -14.399999999999999 2.4000000000000057 L 0 4.800000000000001 L -2.399999999999989 0.8000000000000007 L -16.8 -1.6000000000000014 Z" fill="#7b231d" stroke="#d0a35d" stroke-width="0.85"/><path d="M -4.800000000000004 2.8000000000000007 L -4.800000000000004 -35.2" stroke="#b7aa81" stroke-width="1.1"/><path d="M 2.400000000000002 6.400000000000006 L 2.400000000000002 -31.599999999999994" stroke="#b7aa81" stroke-width="1.1"/><path d="M 9.599999999999994 10 L 9.599999999999994 -28" stroke="#b7aa81" stroke-width="1.1"/><path d="M -11.999999999999996 -51.6 L 2.400000000000002 -44.400000000000006 L -36 -30 L -50.4 -37.2 Z" fill="#2a1d14" stroke="#7b5a31" stroke-width="0.8"/><path d="M -19.200000000000003 -50.4 L -4.800000000000004 -43.2 L -36 -50.400000000000006 L -47.99999999999999 -56.4 Z" fill="#3b2b20" stroke="#0d0c0a" stroke-width="0.7"/><path d="M -21.599999999999998 -46.800000000000004 L -11.999999999999996 -42 L -21.599999999999998 -47.2 L -31.200000000000003 -52 Z" fill="url(#workshop-bronze-world_cell_1)"/><path d="M -38.39999999999999 -5.800000000000001 L 0 13.399999999999999" stroke="rgba(200,165,90,0.18)" stroke-width="1.2"/><path d="M -38.4 -3.400000000000002 L -11.999999999999996 0.20000000000000462" stroke="rgba(180,74,40,0.18)" stroke-width="1.1"/></g></svg>
